SplineFontDB: 3.0
FontName: GohuFont-11
FullName: GohuFont
FamilyName: GohuFont
Weight: Medium
Copyright: Copyright by Hugo Chargois - Licensed under the WTFPL - Converted by Guilherme Maeda
UComments: "2014-10-1: Created." 
Version: 001.000
DefaultBaseFilename: gohufont-11
ItalicAngle: 0
UnderlinePosition: 2
UnderlineWidth: 102
Ascent: 1638
Descent: 410
LayerCount: 2
Layer: 0 0 "Back"  1
Layer: 1 0 "Fore"  0
XUID: [1021 509 1242700312 5277678]
FSType: 8
OS2Version: 0
OS2_WeightWidthSlopeOnly: 0
OS2_UseTypoMetrics: 1
CreationTime: 1412204861
ModificationTime: 1421850301
PfmFamily: 17
TTFWeight: 500
TTFWidth: 5
LineGap: 377
VLineGap: 0
OS2TypoAscent: 0
OS2TypoAOffset: 1
OS2TypoDescent: 0
OS2TypoDOffset: 1
OS2TypoLinegap: 377
OS2WinAscent: 0
OS2WinAOffset: 1
OS2WinDescent: 0
OS2WinDOffset: 1
HheadAscent: 0
HheadAOffset: 1
HheadDescent: 0
HheadDOffset: 1
OS2Vendor: 'PfEd'
MarkAttachClasses: 1
DEI: 91125
LangName: 1033 
Encoding: ISO8859-1
UnicodeInterp: none
NameList: Adobe Glyph List
DisplaySize: -24
AntiAlias: 1
FitToEm: 1
WinInfo: 0 38 12
BeginPrivate: 0
EndPrivate
TeXData: 1 0 0 572522 286261 190840 478532 1048576 190840 783286 444596 497025 792723 393216 433062 380633 303038 157286 324010 404750 52429 2506097 1059062 262144
BeginChars: 256 191

StartChar: EXCLAMATION
Encoding: 33 33 1
Width: 1117
VWidth: 80
Flags: HW
HStem: 2.36328 185.81<372.363 558.546> 1471.82 20G<372.363 558.546>
VStem: 372.363 186.183<2.36328 188.173 374.354 1491.82>
LayerCount: 2
Fore
SplineSet
372.36328125 933.086914062 m 1
 372.36328125 1491.81835938 l 1
 465.454101562 1491.81835938 l 1
 558.545898438 1491.81835938 l 1
 558.545898438 933.086914062 l 1
 558.545898438 374.354492188 l 1
 465.454101562 374.354492188 l 1
 372.36328125 374.354492188 l 1
 372.36328125 933.086914062 l 1
372.36328125 95.2685546875 m 1
 372.36328125 188.172851562 l 1
 465.454101562 188.172851562 l 1
 558.545898438 188.172851562 l 1
 558.545898438 95.2685546875 l 1
 558.545898438 2.36328125 l 1
 465.454101562 2.36328125 l 1
 372.36328125 2.36328125 l 1
 372.36328125 95.2685546875 l 1
EndSplineSet
EndChar

StartChar: QUOTATION
Encoding: 34 34 2
Width: 1117
VWidth: 80
Flags: HW
HStem: 933.272 558.546<186.182 372.363 558.546 744.728>
VStem: 186.182 186.182<933.272 1491.82> 558.546 186.182<933.272 1491.82>
LayerCount: 2
Fore
SplineSet
186.181640625 1212.54589844 m 1
 186.181640625 1491.81835938 l 1
 279.272460938 1491.81835938 l 1
 372.36328125 1491.81835938 l 1
 372.36328125 1212.54589844 l 1
 372.36328125 933.272460938 l 1
 279.272460938 933.272460938 l 1
 186.181640625 933.272460938 l 1
 186.181640625 1212.54589844 l 1
558.545898438 1212.54589844 m 1
 558.545898438 1491.81835938 l 1
 651.63671875 1491.81835938 l 1
 744.727539062 1491.81835938 l 1
 744.727539062 1212.54589844 l 1
 744.727539062 933.272460938 l 1
 651.63671875 933.272460938 l 1
 558.545898438 933.272460938 l 1
 558.545898438 1212.54589844 l 1
EndSplineSet
EndChar

StartChar: NUMBER
Encoding: 35 35 3
Width: 1117
VWidth: 80
Flags: HW
HStem: 560.537 186.182<0 186.182 372.363 558.918 745.1 930.909> 932.9 186.554<0 186.182 372.363 558.918 745.1 930.909> 1471.82 20G<186.182 372.363 558.918 745.1>
VStem: 186.182 186.182<188.546 560.537 746.719 932.9 1119.45 1491.82> 558.918 186.182<188.546 560.537 746.719 932.9 1119.45 1491.82>
LayerCount: 2
Fore
SplineSet
558.91796875 839.809570312 m 1
 558.91796875 932.900390625 l 1
 465.640625 932.900390625 l 1
 372.36328125 932.900390625 l 1
 372.36328125 839.809570312 l 1
 372.36328125 746.71875 l 1
 465.640625 746.71875 l 1
 558.91796875 746.71875 l 1
 558.91796875 839.809570312 l 1
186.181640625 1305.63671875 m 1
 186.181640625 1491.81835938 l 1
 279.272460938 1491.81835938 l 1
 372.36328125 1491.81835938 l 1
 372.36328125 1305.63671875 l 1
 372.36328125 1119.45410156 l 1
 465.640625 1119.45410156 l 1
 558.91796875 1119.45410156 l 1
 558.91796875 1305.63671875 l 1
 558.91796875 1491.81835938 l 1
 652.008789062 1491.81835938 l 1
 745.099609375 1491.81835938 l 1
 745.099609375 1305.63671875 l 1
 745.099609375 1119.45410156 l 1
 838.00390625 1119.45410156 l 1
 930.909179688 1119.45410156 l 1
 930.909179688 1026.17773438 l 1
 930.909179688 932.900390625 l 1
 838.00390625 932.900390625 l 1
 745.099609375 932.900390625 l 1
 745.099609375 839.809570312 l 1
 745.099609375 746.71875 l 1
 838.00390625 746.71875 l 1
 930.909179688 746.71875 l 1
 930.909179688 653.627929688 l 1
 930.909179688 560.537109375 l 1
 838.00390625 560.537109375 l 1
 745.099609375 560.537109375 l 1
 745.099609375 374.541015625 l 1
 745.099609375 188.545898438 l 1
 652.008789062 188.545898438 l 1
 558.91796875 188.545898438 l 1
 558.91796875 374.541015625 l 1
 558.91796875 560.537109375 l 1
 465.640625 560.537109375 l 1
 372.36328125 560.537109375 l 1
 372.36328125 374.541015625 l 1
 372.36328125 188.545898438 l 1
 279.272460938 188.545898438 l 1
 186.181640625 188.545898438 l 1
 186.181640625 374.541015625 l 1
 186.181640625 560.537109375 l 1
 93.0908203125 560.537109375 l 1
 0 560.537109375 l 1
 0 653.627929688 l 1
 0 746.71875 l 1
 93.0908203125 746.71875 l 1
 186.181640625 746.71875 l 1
 186.181640625 839.809570312 l 1
 186.181640625 932.900390625 l 1
 93.0908203125 932.900390625 l 1
 0 932.900390625 l 1
 0 1026.17773438 l 1
 0 1119.45410156 l 1
 93.0908203125 1119.45410156 l 1
 186.181640625 1119.45410156 l 1
 186.181640625 1305.63671875 l 1
EndSplineSet
EndChar

StartChar: DOLLAR
Encoding: 36 36 4
Width: 1117
VWidth: 80
Flags: HW
HStem: 1.99121 186.182<186.182 372.363 558.918 745.1> 188.173 186.182<0 186.182> 560.537 186.182<186.182 372.363 558.918 745.1> 932.9 186.554<745.1 930.909> 1119.45 186.183<186.182 372.363 558.918 745.1> 1471.82 20G<372.363 558.918>
VStem: 0 186.182<188.173 374.354 746.719 1119.45> 186.182 558.918<1.99121 188.173 560.537 746.719 1119.45 1305.64> 372.363 186.555<-183.818 1.99121 188.173 560.537 746.719 1119.45 1305.64 1491.82> 745.1 185.81<188.173 560.537 932.9 1119.45>
LayerCount: 2
Fore
SplineSet
372.36328125 933.086914062 m 1x2e80
 372.36328125 1119.45410156 l 1
 279.272460938 1119.45410156 l 1
 186.181640625 1119.45410156 l 1
 186.181640625 933.086914062 l 1
 186.181640625 746.71875 l 1
 279.272460938 746.71875 l 1
 372.36328125 746.71875 l 1
 372.36328125 933.086914062 l 1x2e80
372.36328125 1398.72753906 m 1
 372.36328125 1491.81835938 l 1
 465.640625 1491.81835938 l 1
 558.91796875 1491.81835938 l 1
 558.91796875 1398.72753906 l 1
 558.91796875 1305.63671875 l 1x6c80
 652.008789062 1305.63671875 l 1
 745.099609375 1305.63671875 l 1x6d
 745.099609375 1212.54589844 l 1
 745.099609375 1119.45410156 l 1x35
 652.008789062 1119.45410156 l 1
 558.91796875 1119.45410156 l 1
 558.91796875 933.086914062 l 1
 558.91796875 746.71875 l 1x2c80
 652.008789062 746.71875 l 1
 745.099609375 746.71875 l 1
 745.099609375 653.627929688 l 1
 745.099609375 560.537109375 l 1x2d
 652.008789062 560.537109375 l 1
 558.91796875 560.537109375 l 1
 558.91796875 374.354492188 l 1x6c80
 558.91796875 188.172851562 l 1xa480
 652.008789062 188.172851562 l 1
 745.099609375 188.172851562 l 1xa5
 745.099609375 374.354492188 l 1x6440
 745.099609375 560.537109375 l 1x65
 838.00390625 560.537109375 l 1
 930.909179688 560.537109375 l 1
 930.909179688 374.354492188 l 1
 930.909179688 188.172851562 l 1
 838.00390625 188.172851562 l 1x6440
 745.099609375 188.172851562 l 1
 745.099609375 95.08203125 l 1
 745.099609375 1.9912109375 l 1xa5
 652.008789062 1.9912109375 l 1
 558.91796875 1.9912109375 l 1
 558.91796875 -90.9130859375 l 1
 558.91796875 -183.818359375 l 1
 465.640625 -183.818359375 l 1
 372.36328125 -183.818359375 l 1
 372.36328125 -90.9130859375 l 1
 372.36328125 1.9912109375 l 1xa480
 279.272460938 1.9912109375 l 1
 186.181640625 1.9912109375 l 1
 186.181640625 95.08203125 l 1xa5
 186.181640625 188.172851562 l 1
 279.272460938 188.172851562 l 1
 372.36328125 188.172851562 l 1xa680
 372.36328125 374.354492188 l 1
 372.36328125 560.537109375 l 1x6680
 279.272460938 560.537109375 l 1
 186.181640625 560.537109375 l 1
 186.181640625 653.627929688 l 1x65
 186.181640625 746.71875 l 1
 93.0908203125 746.71875 l 1
 0 746.71875 l 1
 0 933.086914062 l 1
 0 1119.45410156 l 1
 93.0908203125 1119.45410156 l 1
 186.181640625 1119.45410156 l 1x6e
 186.181640625 1212.54589844 l 1
 186.181640625 1305.63671875 l 1x6d
 279.272460938 1305.63671875 l 1
 372.36328125 1305.63671875 l 1
 372.36328125 1398.72753906 l 1
186.181640625 188.172851562 m 1xa6
 93.0908203125 188.172851562 l 1
 0 188.172851562 l 1
 0 281.263671875 l 1
 0 374.354492188 l 1
 93.0908203125 374.354492188 l 1
 186.181640625 374.354492188 l 1x66
 186.181640625 281.263671875 l 1
 186.181640625 188.172851562 l 1xa6
745.099609375 1119.45410156 m 1x35
 838.00390625 1119.45410156 l 1
 930.909179688 1119.45410156 l 1
 930.909179688 1026.17773438 l 1
 930.909179688 932.900390625 l 1
 838.00390625 932.900390625 l 1
 745.099609375 932.900390625 l 1
 745.099609375 1026.17773438 l 1x3440
 745.099609375 1119.45410156 l 1x35
EndSplineSet
EndChar

StartChar: PERCENT
Encoding: 37 37 5
Width: 1117
VWidth: 80
Flags: HW
HStem: 2.36328 185.81<558.918 745.1> 188.173 186.182<372.363 558.918 745.1 930.909> 374.354 186.183<186.182 372.363 558.918 745.1> 560.537 186.182<372.363 558.918> 746.719 186.554<186.182 372.363 558.918 745.1> 933.272 186.182<0 186.182 372.363 558.918> 1119.45 186.183<186.182 372.363>
VStem: 0 186.182<2.36328 374.354 933.272 1119.45> 186.182 186.182<374.354 560.537 746.719 933.272 1119.45 1305.64> 372.363 186.555<188.173 374.354 560.537 746.719 933.272 1119.45> 558.918 186.182<2.36328 188.173 374.354 560.537 746.719 933.272> 745.1 185.81<188.173 374.354 933.272 1305.64>
LayerCount: 2
Fore
SplineSet
186.181640625 1212.54589844 m 1x0480
 186.181640625 1305.63671875 l 1
 279.272460938 1305.63671875 l 1
 372.36328125 1305.63671875 l 1x0280
 372.36328125 1212.54589844 l 1
 372.36328125 1119.45410156 l 1x0480
 279.272460938 1119.45410156 l 1x0280
 186.181640625 1119.45410156 l 1x05
 186.181640625 1026.36328125 l 1
 186.181640625 933.272460938 l 1x09
 279.272460938 933.272460938 l 1
 372.36328125 933.272460938 l 1x0880
 372.36328125 1026.36328125 l 1x0840
 372.36328125 1119.45410156 l 1x0480
 465.640625 1119.45410156 l 1
 558.91796875 1119.45410156 l 1x0440
 558.91796875 1026.36328125 l 1
 558.91796875 933.272460938 l 1x0840
 465.640625 933.272460938 l 1x0440
 372.36328125 933.272460938 l 1x0880
 372.36328125 839.99609375 l 1
 372.36328125 746.71875 l 1x1080
 465.640625 746.71875 l 1
 558.91796875 746.71875 l 1x1040
 558.91796875 839.99609375 l 1x1020
 558.91796875 933.272460938 l 1x0840
 652.008789062 933.272460938 l 1
 745.099609375 933.272460938 l 1
 745.099609375 839.99609375 l 1
 745.099609375 746.71875 l 1
 652.008789062 746.71875 l 1x0820
 558.91796875 746.71875 l 1x1040
 558.91796875 653.627929688 l 1
 558.91796875 560.537109375 l 1x2040
 465.640625 560.537109375 l 1x1040
 372.36328125 560.537109375 l 1x2080
 372.36328125 467.446289062 l 1
 372.36328125 374.354492188 l 1x4080
 465.640625 374.354492188 l 1
 558.91796875 374.354492188 l 1x4040
 558.91796875 467.446289062 l 1x4020
 558.91796875 560.537109375 l 1x2040
 652.008789062 560.537109375 l 1
 745.099609375 560.537109375 l 1x2020
 745.099609375 467.446289062 l 1
 745.099609375 374.354492188 l 1x4020
 652.008789062 374.354492188 l 1x2020
 558.91796875 374.354492188 l 1x4040
 558.91796875 281.263671875 l 1
 558.91796875 188.172851562 l 1x8040
 652.008789062 188.172851562 l 1
 745.099609375 188.172851562 l 1x8020
 745.099609375 281.263671875 l 1x8010
 745.099609375 374.354492188 l 1x4020
 838.00390625 374.354492188 l 1
 930.909179688 374.354492188 l 1
 930.909179688 281.263671875 l 1
 930.909179688 188.172851562 l 1
 838.00390625 188.172851562 l 1x4010
 745.099609375 188.172851562 l 1
 745.099609375 95.2685546875 l 1
 745.099609375 2.36328125 l 1
 652.008789062 2.36328125 l 1
 558.91796875 2.36328125 l 1
 558.91796875 95.2685546875 l 1x8020
 558.91796875 188.172851562 l 1x8040
 465.640625 188.172851562 l 1
 372.36328125 188.172851562 l 1
 372.36328125 281.263671875 l 1x4040
 372.36328125 374.354492188 l 1x4080
 279.272460938 374.354492188 l 1
 186.181640625 374.354492188 l 1x21
 186.181640625 467.446289062 l 1
 186.181640625 560.537109375 l 1
 279.272460938 560.537109375 l 1
 372.36328125 560.537109375 l 1x2080
 372.36328125 653.627929688 l 1x2040
 372.36328125 746.71875 l 1x1080
 279.272460938 746.71875 l 1
 186.181640625 746.71875 l 1
 186.181640625 839.99609375 l 1x0880
 186.181640625 933.272460938 l 1x09
 93.0908203125 933.272460938 l 1
 0 933.272460938 l 1
 0 1026.36328125 l 1
 0 1119.45410156 l 1
 93.0908203125 1119.45410156 l 1
 186.181640625 1119.45410156 l 1x05
 186.181640625 1212.54589844 l 1x0480
186.181640625 374.354492188 m 1xa1
 186.181640625 188.359375 l 1
 186.181640625 2.36328125 l 1
 93.0908203125 2.36328125 l 1
 0 2.36328125 l 1
 0 188.359375 l 1
 0 374.354492188 l 1
 93.0908203125 374.354492188 l 1
 186.181640625 374.354492188 l 1xa1
745.099609375 933.272460938 m 1x0820
 745.099609375 1119.45410156 l 1
 745.099609375 1305.63671875 l 1
 838.00390625 1305.63671875 l 1
 930.909179688 1305.63671875 l 1
 930.909179688 1119.45410156 l 1x0a10
 930.909179688 933.272460938 l 1
 838.00390625 933.272460938 l 1x0410
 745.099609375 933.272460938 l 1x0820
EndSplineSet
EndChar

StartChar: AMPERSAND
Encoding: 38 38 6
Width: 1117
VWidth: 80
Flags: HW
HStem: 2.36328 185.81<186.182 558.918 745.1 930.909> 188.173 186.182<558.918 745.1> 374.354 186.183<372.363 558.918 745.1 930.909> 560.537 186.182<186.182 372.363> 746.719 186.554<372.363 558.918> 933.272 186.182<558.918 745.1> 1119.45 186.183<186.182 558.918>
VStem: 0 186.182<188.173 560.537 746.719 1119.45> 186.182 186.182<560.537 746.719> 372.363 186.555<374.354 560.537 746.719 933.272> 558.918 186.182<188.173 374.354 933.272 1119.45> 745.1 185.81<2.36328 188.173 374.354 560.537>
LayerCount: 2
Fore
SplineSet
186.181640625 1212.54589844 m 1x0a80
 186.181640625 1305.63671875 l 1
 372.549804688 1305.63671875 l 1
 558.91796875 1305.63671875 l 1x0aa0
 558.91796875 1212.54589844 l 1
 558.91796875 1119.45410156 l 1x04a0
 372.549804688 1119.45410156 l 1
 186.181640625 1119.45410156 l 1
 186.181640625 933.086914062 l 1
 186.181640625 746.71875 l 1x1320
 279.272460938 746.71875 l 1
 372.36328125 746.71875 l 1x1280
 372.36328125 839.99609375 l 1
 372.36328125 933.272460938 l 1
 465.640625 933.272460938 l 1
 558.91796875 933.272460938 l 1x0840
 558.91796875 1026.36328125 l 1
 558.91796875 1119.45410156 l 1
 652.008789062 1119.45410156 l 1
 745.099609375 1119.45410156 l 1
 745.099609375 1026.36328125 l 1
 745.099609375 933.272460938 l 1
 652.008789062 933.272460938 l 1x0420
 558.91796875 933.272460938 l 1
 558.91796875 839.99609375 l 1
 558.91796875 746.71875 l 1
 465.640625 746.71875 l 1x0840
 372.36328125 746.71875 l 1x1080
 372.36328125 653.627929688 l 1
 372.36328125 560.537109375 l 1x2080
 279.272460938 560.537109375 l 1
 186.181640625 560.537109375 l 1x11
 186.181640625 374.354492188 l 1
 186.181640625 188.172851562 l 1
 372.549804688 188.172851562 l 1
 558.91796875 188.172851562 l 1
 558.91796875 281.263671875 l 1xa120
 558.91796875 374.354492188 l 1x4040
 465.640625 374.354492188 l 1
 372.36328125 374.354492188 l 1
 372.36328125 467.446289062 l 1x2040
 372.36328125 560.537109375 l 1x2080
 465.640625 560.537109375 l 1
 558.91796875 560.537109375 l 1x2040
 558.91796875 467.446289062 l 1
 558.91796875 374.354492188 l 1x4040
 652.008789062 374.354492188 l 1
 745.099609375 374.354492188 l 1x4020
 745.099609375 281.263671875 l 1
 745.099609375 188.172851562 l 1x8020
 652.008789062 188.172851562 l 1x4020
 558.91796875 188.172851562 l 1
 558.91796875 95.2685546875 l 1
 558.91796875 2.36328125 l 1
 372.549804688 2.36328125 l 1
 186.181640625 2.36328125 l 1
 186.181640625 95.2685546875 l 1x80a0
 186.181640625 188.172851562 l 1x81
 93.0908203125 188.172851562 l 1
 0 188.172851562 l 1x41
 0 374.354492188 l 1x21
 0 560.537109375 l 1
 93.0908203125 560.537109375 l 1
 186.181640625 560.537109375 l 1x11
 186.181640625 653.627929688 l 1x1080
 186.181640625 746.71875 l 1x11
 93.0908203125 746.71875 l 1
 0 746.71875 l 1
 0 933.086914062 l 1
 0 1119.45410156 l 1
 93.0908203125 1119.45410156 l 1
 186.181640625 1119.45410156 l 1x0b
 186.181640625 1212.54589844 l 1x0a80
745.099609375 188.172851562 m 1x8020
 838.00390625 188.172851562 l 1
 930.909179688 188.172851562 l 1
 930.909179688 95.2685546875 l 1
 930.909179688 2.36328125 l 1
 838.00390625 2.36328125 l 1
 745.099609375 2.36328125 l 1
 745.099609375 95.2685546875 l 1x8010
 745.099609375 188.172851562 l 1x8020
745.099609375 374.354492188 m 1x4020
 745.099609375 467.446289062 l 1
 745.099609375 560.537109375 l 1
 838.00390625 560.537109375 l 1
 930.909179688 560.537109375 l 1
 930.909179688 467.446289062 l 1
 930.909179688 374.354492188 l 1
 838.00390625 374.354492188 l 1x2010
 745.099609375 374.354492188 l 1x4020
EndSplineSet
EndChar

StartChar: APOSTROPHE
Encoding: 39 39 7
Width: 1117
VWidth: 80
Flags: HW
HStem: 933.272 558.546<372.363 558.546>
VStem: 372.363 186.183<933.272 1491.82>
LayerCount: 2
Fore
SplineSet
372.36328125 1212.54589844 m 1
 372.36328125 1491.81835938 l 1
 465.454101562 1491.81835938 l 1
 558.545898438 1491.81835938 l 1
 558.545898438 1212.54589844 l 1
 558.545898438 933.272460938 l 1
 465.454101562 933.272460938 l 1
 372.36328125 933.272460938 l 1
 372.36328125 1212.54589844 l 1
EndSplineSet
EndChar

StartChar: LEFT
Encoding: 40 40 8
Width: 1117
VWidth: 80
Flags: HW
HStem: -183.818 185.81<558.546 744.728> 1.99121 21G<372.363 558.546> 1285.64 20G<372.363 558.546> 1305.64 186.182<558.546 744.728>
VStem: 186.182 186.182<374.354 932.9> 372.363 186.183<1.99121 374.354 932.9 1305.64> 558.546 186.182<-183.818 1.99121 1305.64 1491.82>
LayerCount: 2
Fore
SplineSet
558.545898438 1398.72753906 m 1x22
 558.545898438 1491.81835938 l 1
 651.63671875 1491.81835938 l 1
 744.727539062 1491.81835938 l 1
 744.727539062 1398.72753906 l 1
 744.727539062 1305.63671875 l 1
 651.63671875 1305.63671875 l 1x12
 558.545898438 1305.63671875 l 1x24
 558.545898438 1398.72753906 l 1x22
558.545898438 1.9912109375 m 1xa4
 465.454101562 1.9912109375 l 1
 372.36328125 1.9912109375 l 1
 372.36328125 188.172851562 l 1x44
 372.36328125 374.354492188 l 1
 279.272460938 374.354492188 l 1
 186.181640625 374.354492188 l 1
 186.181640625 653.627929688 l 1
 186.181640625 932.900390625 l 1
 279.272460938 932.900390625 l 1
 372.36328125 932.900390625 l 1x48
 372.36328125 1119.26855469 l 1
 372.36328125 1305.63671875 l 1
 465.454101562 1305.63671875 l 1
 558.545898438 1305.63671875 l 1
 558.545898438 1119.26855469 l 1
 558.545898438 932.900390625 l 1x64
 465.454101562 932.900390625 l 1
 372.36328125 932.900390625 l 1
 372.36328125 653.627929688 l 1
 372.36328125 374.354492188 l 1x68
 465.454101562 374.354492188 l 1
 558.545898438 374.354492188 l 1
 558.545898438 188.172851562 l 1
 558.545898438 1.9912109375 l 1xa4
558.545898438 1.9912109375 m 1x84
 651.63671875 1.9912109375 l 1
 744.727539062 1.9912109375 l 1
 744.727539062 -90.9130859375 l 1
 744.727539062 -183.818359375 l 1
 651.63671875 -183.818359375 l 1
 558.545898438 -183.818359375 l 1
 558.545898438 -90.9130859375 l 1x82
 558.545898438 1.9912109375 l 1x84
EndSplineSet
EndChar

StartChar: RIGHT
Encoding: 41 41 9
Width: 1117
VWidth: 80
Flags: HW
HStem: -183.818 185.81<186.182 372.363> 1.99121 21G<372.363 558.546> 1285.64 20G<372.363 558.546> 1305.64 186.182<186.182 372.363>
VStem: 186.182 186.182<-183.818 1.99121 1305.64 1491.82> 372.363 186.183<1.99121 374.354 932.9 1305.64> 558.546 186.182<374.354 932.9>
LayerCount: 2
Fore
SplineSet
186.181640625 1398.72753906 m 1x18
 186.181640625 1491.81835938 l 1
 279.272460938 1491.81835938 l 1
 372.36328125 1491.81835938 l 1x18
 372.36328125 1398.72753906 l 1
 372.36328125 1305.63671875 l 1x28
 279.272460938 1305.63671875 l 1
 186.181640625 1305.63671875 l 1
 186.181640625 1398.72753906 l 1x18
372.36328125 1.9912109375 m 1x88
 372.36328125 188.172851562 l 1
 372.36328125 374.354492188 l 1
 465.454101562 374.354492188 l 1
 558.545898438 374.354492188 l 1x84
 558.545898438 653.627929688 l 1x82
 558.545898438 932.900390625 l 1
 465.454101562 932.900390625 l 1
 372.36328125 932.900390625 l 1
 372.36328125 1119.26855469 l 1x84
 372.36328125 1305.63671875 l 1xa8
 465.454101562 1305.63671875 l 1
 558.545898438 1305.63671875 l 1
 558.545898438 1119.26855469 l 1
 558.545898438 932.900390625 l 1xa4
 651.63671875 932.900390625 l 1
 744.727539062 932.900390625 l 1
 744.727539062 653.627929688 l 1
 744.727539062 374.354492188 l 1xa2
 651.63671875 374.354492188 l 1
 558.545898438 374.354492188 l 1
 558.545898438 188.172851562 l 1
 558.545898438 1.9912109375 l 1
 465.454101562 1.9912109375 l 1x64
 372.36328125 1.9912109375 l 1x88
372.36328125 1.9912109375 m 1x88
 372.36328125 -90.9130859375 l 1
 372.36328125 -183.818359375 l 1
 279.272460938 -183.818359375 l 1
 186.181640625 -183.818359375 l 1
 186.181640625 -90.9130859375 l 1
 186.181640625 1.9912109375 l 1
 279.272460938 1.9912109375 l 1
 372.36328125 1.9912109375 l 1x88
EndSplineSet
EndChar

StartChar: ASTERISK
Encoding: 42 42 10
Width: 1117
VWidth: 80
Flags: HW
HStem: 374.354 186.183<0 186.182 745.1 930.909> 560.537 186.554<186.182 372.363 558.918 745.1> 747.091 186.182<0 186.182 745.1 930.909>
VStem: 0 186.182<374.354 560.537 747.091 933.272> 372.363 186.555<188.546 560.537 747.091 1119.45> 745.1 185.81<374.354 560.537 747.091 933.272>
LayerCount: 2
Fore
SplineSet
372.36328125 933.272460938 m 1x3c
 372.36328125 1119.45410156 l 1
 465.640625 1119.45410156 l 1
 558.91796875 1119.45410156 l 1
 558.91796875 933.272460938 l 1x3c
 558.91796875 747.090820312 l 1
 652.008789062 747.090820312 l 1
 745.099609375 747.090820312 l 1x5c
 745.099609375 653.813476562 l 1
 745.099609375 560.537109375 l 1x9c
 652.008789062 560.537109375 l 1
 558.91796875 560.537109375 l 1
 558.91796875 374.541015625 l 1
 558.91796875 188.545898438 l 1
 465.640625 188.545898438 l 1
 372.36328125 188.545898438 l 1
 372.36328125 374.541015625 l 1
 372.36328125 560.537109375 l 1
 279.272460938 560.537109375 l 1x5c
 186.181640625 560.537109375 l 1x9c
 186.181640625 653.813476562 l 1
 186.181640625 747.090820312 l 1
 279.272460938 747.090820312 l 1
 372.36328125 747.090820312 l 1x5c
 372.36328125 933.272460938 l 1x3c
186.181640625 747.090820312 m 1x5c
 93.0908203125 747.090820312 l 1
 0 747.090820312 l 1
 0 840.181640625 l 1
 0 933.272460938 l 1
 93.0908203125 933.272460938 l 1
 186.181640625 933.272460938 l 1x3c
 186.181640625 840.181640625 l 1
 186.181640625 747.090820312 l 1x5c
186.181640625 560.537109375 m 1x9c
 186.181640625 467.446289062 l 1
 186.181640625 374.354492188 l 1
 93.0908203125 374.354492188 l 1
 0 374.354492188 l 1
 0 467.446289062 l 1
 0 560.537109375 l 1
 93.0908203125 560.537109375 l 1
 186.181640625 560.537109375 l 1x9c
745.099609375 560.537109375 m 1
 838.00390625 560.537109375 l 1
 930.909179688 560.537109375 l 1
 930.909179688 467.446289062 l 1
 930.909179688 374.354492188 l 1
 838.00390625 374.354492188 l 1
 745.099609375 374.354492188 l 1
 745.099609375 467.446289062 l 1
 745.099609375 560.537109375 l 1
745.099609375 747.090820312 m 1x5c
 745.099609375 840.181640625 l 1
 745.099609375 933.272460938 l 1
 838.00390625 933.272460938 l 1
 930.909179688 933.272460938 l 1
 930.909179688 840.181640625 l 1
 930.909179688 747.090820312 l 1
 838.00390625 747.090820312 l 1x3c
 745.099609375 747.090820312 l 1x5c
EndSplineSet
EndChar

StartChar: PLUS
Encoding: 43 43 11
Width: 1117
VWidth: 80
Flags: HW
HStem: 560.537 186.554<0 372.363 558.918 930.909>
VStem: 372.363 186.555<188.546 560.537 747.091 1119.45>
LayerCount: 2
Fore
SplineSet
372.36328125 933.272460938 m 1
 372.36328125 1119.45410156 l 1
 465.640625 1119.45410156 l 1
 558.91796875 1119.45410156 l 1
 558.91796875 933.272460938 l 1
 558.91796875 747.090820312 l 1
 744.913085938 747.090820312 l 1
 930.909179688 747.090820312 l 1
 930.909179688 653.813476562 l 1
 930.909179688 560.537109375 l 1
 744.913085938 560.537109375 l 1
 558.91796875 560.537109375 l 1
 558.91796875 374.541015625 l 1
 558.91796875 188.545898438 l 1
 465.640625 188.545898438 l 1
 372.36328125 188.545898438 l 1
 372.36328125 374.541015625 l 1
 372.36328125 560.537109375 l 1
 186.181640625 560.537109375 l 1
 0 560.537109375 l 1
 0 653.813476562 l 1
 0 747.090820312 l 1
 186.181640625 747.090820312 l 1
 372.36328125 747.090820312 l 1
 372.36328125 933.272460938 l 1
EndSplineSet
EndChar

StartChar: COMMA
Encoding: 44 44 12
Width: 1117
VWidth: 80
Flags: HW
HStem: -370 185.81<186.182 372.363>
VStem: 186.182 186.182<-370 -184.19> 372.363 186.183<-184.19 2.36328>
LayerCount: 2
Fore
SplineSet
186.181640625 188.545898438 m 1xc0
 186.181640625 374.727539062 l 1xc0
 372.36328125 374.727539062 l 1
 558.545898438 374.727539062 l 1
 558.545898438 95.2685546875 l 1
 558.545898438 -184.190429688 l 1xa0
 465.454101562 -184.190429688 l 1
 372.36328125 -184.190429688 l 1xc0
 372.36328125 -90.9130859375 l 1
 372.36328125 2.36328125 l 1xa0
 279.272460938 2.36328125 l 1
 186.181640625 2.36328125 l 1
 186.181640625 188.545898438 l 1xc0
372.36328125 -184.190429688 m 1
 372.36328125 -277.095703125 l 1
 372.36328125 -370 l 1
 279.272460938 -370 l 1
 186.181640625 -370 l 1
 186.181640625 -277.095703125 l 1
 186.181640625 -184.190429688 l 1
 279.272460938 -184.190429688 l 1
 372.36328125 -184.190429688 l 1
EndSplineSet
EndChar

StartChar: HYPHEN-MINUS
Encoding: 45 45 13
Width: 1117
VWidth: 80
Flags: HW
HStem: 560.909 186.182<0 930.909>
LayerCount: 2
Fore
SplineSet
0 654 m 1
 0 747.090820312 l 1
 465.454101562 747.090820312 l 1
 930.909179688 747.090820312 l 1
 930.909179688 654 l 1
 930.909179688 560.909179688 l 1
 465.454101562 560.909179688 l 1
 0 560.909179688 l 1
 0 654 l 1
EndSplineSet
EndChar

StartChar: FULL
Encoding: 46 46 14
Width: 1117
VWidth: 80
Flags: HW
HStem: 2.36328 372.364<186.182 558.546>
VStem: 186.182 372.364<2.36328 374.728>
LayerCount: 2
Fore
SplineSet
186.181640625 188.545898438 m 1
 186.181640625 374.727539062 l 1
 372.36328125 374.727539062 l 1
 558.545898438 374.727539062 l 1
 558.545898438 188.545898438 l 1
 558.545898438 2.36328125 l 1
 372.36328125 2.36328125 l 1
 186.181640625 2.36328125 l 1
 186.181640625 188.545898438 l 1
EndSplineSet
EndChar

StartChar: SOLIDUS
Encoding: 47 47 15
Width: 1117
VWidth: 80
Flags: HW
HStem: -370 21G<0 186.182> -18.0088 20G<0 186.182> 1.99121 21G<186.182 372.363> 1471.82 20G<745.1 930.909>
VStem: 0 186.182<-370 1.99121> 186.182 186.182<1.99121 374.354> 372.363 186.555<374.354 746.719> 558.918 186.182<746.719 1119.45> 745.1 185.81<1119.45 1491.82>
LayerCount: 2
Fore
SplineSet
745.099609375 1305.63671875 m 1x9080
 745.099609375 1491.81835938 l 1
 838.00390625 1491.81835938 l 1
 930.909179688 1491.81835938 l 1
 930.909179688 1305.63671875 l 1
 930.909179688 1119.45410156 l 1x9080
 838.00390625 1119.45410156 l 1
 745.099609375 1119.45410156 l 1x91
 745.099609375 1305.63671875 l 1x9080
186.181640625 1.9912109375 m 1xd8
 186.181640625 188.172851562 l 1
 186.181640625 374.354492188 l 1
 279.272460938 374.354492188 l 1
 372.36328125 374.354492188 l 1xd4
 372.36328125 560.537109375 l 1
 372.36328125 746.71875 l 1
 465.640625 746.71875 l 1
 558.91796875 746.71875 l 1xd2
 558.91796875 933.086914062 l 1
 558.91796875 1119.45410156 l 1
 652.008789062 1119.45410156 l 1
 745.099609375 1119.45410156 l 1
 745.099609375 933.086914062 l 1
 745.099609375 746.71875 l 1xd1
 652.008789062 746.71875 l 1
 558.91796875 746.71875 l 1
 558.91796875 560.537109375 l 1
 558.91796875 374.354492188 l 1xd2
 465.640625 374.354492188 l 1
 372.36328125 374.354492188 l 1
 372.36328125 188.172851562 l 1
 372.36328125 1.9912109375 l 1
 279.272460938 1.9912109375 l 1xb4
 186.181640625 1.9912109375 l 1xd8
186.181640625 1.9912109375 m 1xd8
 186.181640625 -184.00390625 l 1
 186.181640625 -370 l 1
 93.0908203125 -370 l 1
 0 -370 l 1
 0 -184.00390625 l 1
 0 1.9912109375 l 1
 93.0908203125 1.9912109375 l 1
 186.181640625 1.9912109375 l 1xd8
EndSplineSet
EndChar

StartChar: DIGIT
Encoding: 48 48 16
Width: 1117
VWidth: 80
Flags: HW
HStem: 2.36328 185.81<186.182 745.1> 374.354 186.183<186.182 372.363> 560.537 186.182<372.363 558.918> 746.719 186.554<558.918 745.1> 1119.45 186.183<186.182 745.1>
VStem: 0 186.182<188.173 374.354 560.537 1119.45> 186.182 558.918<2.36328 188.173 1119.45 1305.64> 372.363 186.555<560.537 746.719> 745.1 185.81<188.173 746.719 933.272 1119.45>
LayerCount: 2
Fore
SplineSet
186.181640625 1212.54589844 m 1x9a
 186.181640625 1305.63671875 l 1
 465.640625 1305.63671875 l 1
 745.099609375 1305.63671875 l 1
 745.099609375 1212.54589844 l 1
 745.099609375 1119.45410156 l 1x9a
 465.640625 1119.45410156 l 1
 186.181640625 1119.45410156 l 1
 186.181640625 839.99609375 l 1
 186.181640625 560.537109375 l 1
 279.272460938 560.537109375 l 1
 372.36328125 560.537109375 l 1
 372.36328125 467.446289062 l 1
 372.36328125 374.354492188 l 1
 279.272460938 374.354492188 l 1
 186.181640625 374.354492188 l 1
 186.181640625 281.263671875 l 1
 186.181640625 188.172851562 l 1xdd
 465.640625 188.172851562 l 1
 745.099609375 188.172851562 l 1xda
 745.099609375 467.446289062 l 1
 745.099609375 746.71875 l 1
 652.008789062 746.71875 l 1xd880
 558.91796875 746.71875 l 1xa980
 558.91796875 839.99609375 l 1
 558.91796875 933.272460938 l 1
 652.008789062 933.272460938 l 1
 745.099609375 933.272460938 l 1
 745.099609375 1026.36328125 l 1x9980
 745.099609375 1119.45410156 l 1x9a
 838.00390625 1119.45410156 l 1
 930.909179688 1119.45410156 l 1
 930.909179688 653.813476562 l 1
 930.909179688 188.172851562 l 1x9880
 838.00390625 188.172851562 l 1
 745.099609375 188.172851562 l 1
 745.099609375 95.2685546875 l 1
 745.099609375 2.36328125 l 1
 465.640625 2.36328125 l 1
 186.181640625 2.36328125 l 1
 186.181640625 95.2685546875 l 1x9a
 186.181640625 188.172851562 l 1
 93.0908203125 188.172851562 l 1
 0 188.172851562 l 1
 0 653.813476562 l 1
 0 1119.45410156 l 1
 93.0908203125 1119.45410156 l 1
 186.181640625 1119.45410156 l 1x9c
 186.181640625 1212.54589844 l 1x9a
372.36328125 653.627929688 m 1xc9
 372.36328125 746.71875 l 1
 465.640625 746.71875 l 1
 558.91796875 746.71875 l 1
 558.91796875 653.627929688 l 1
 558.91796875 560.537109375 l 1
 465.640625 560.537109375 l 1xa9
 372.36328125 560.537109375 l 1
 372.36328125 653.627929688 l 1xc9
EndSplineSet
EndChar

StartChar: DIGIT
Encoding: 49 49 17
Width: 1117
VWidth: 80
Flags: HW
HStem: 2.36328 21G<372.363 558.546> 746.719 186.554<0 186.182> 933.272 186.182<186.182 372.363> 1285.64 20G<372.363 558.546>
VStem: 0 186.182<746.719 933.272> 372.363 186.183<2.36328 933.272 1119.45 1305.64>
LayerCount: 2
Fore
SplineSet
372.36328125 1212.54589844 m 1xbc
 372.36328125 1305.63671875 l 1
 465.454101562 1305.63671875 l 1
 558.545898438 1305.63671875 l 1
 558.545898438 654 l 1
 558.545898438 2.36328125 l 1
 465.454101562 2.36328125 l 1
 372.36328125 2.36328125 l 1
 372.36328125 467.818359375 l 1
 372.36328125 933.272460938 l 1
 279.272460938 933.272460938 l 1xbc
 186.181640625 933.272460938 l 1xdc
 186.181640625 1026.36328125 l 1
 186.181640625 1119.45410156 l 1
 279.272460938 1119.45410156 l 1
 372.36328125 1119.45410156 l 1
 372.36328125 1212.54589844 l 1xbc
186.181640625 933.272460938 m 1xdc
 186.181640625 839.99609375 l 1
 186.181640625 746.71875 l 1
 93.0908203125 746.71875 l 1
 0 746.71875 l 1
 0 839.99609375 l 1
 0 933.272460938 l 1
 93.0908203125 933.272460938 l 1
 186.181640625 933.272460938 l 1xdc
EndSplineSet
EndChar

StartChar: DIGIT
Encoding: 50 50 18
Width: 1117
VWidth: 80
Flags: HW
HStem: 2.36328 185.81<0 186.182 372.363 930.909> 374.354 186.183<372.363 558.918> 560.537 186.182<558.918 745.1> 933.272 186.182<0 186.182> 1119.45 186.183<186.182 745.1>
VStem: 0 186.182<933.272 1119.45> 186.182 186.182<188.173 374.354> 372.363 186.555<374.354 560.537> 558.918 186.182<560.537 746.719> 745.1 185.81<746.719 1119.45>
LayerCount: 2
Fore
SplineSet
186.181640625 1212.54589844 m 1x92
 186.181640625 1305.63671875 l 1
 465.640625 1305.63671875 l 1
 745.099609375 1305.63671875 l 1
 745.099609375 1212.54589844 l 1
 745.099609375 1119.45410156 l 1
 465.640625 1119.45410156 l 1x8a40
 186.181640625 1119.45410156 l 1x9440
 186.181640625 1212.54589844 l 1x92
186.181640625 1119.45410156 m 1x94
 186.181640625 1026.36328125 l 1
 186.181640625 933.272460938 l 1
 93.0908203125 933.272460938 l 1
 0 933.272460938 l 1
 0 1026.36328125 l 1
 0 1119.45410156 l 1
 93.0908203125 1119.45410156 l 1
 186.181640625 1119.45410156 l 1x94
372.36328125 374.354492188 m 1xc2
 372.36328125 467.446289062 l 1
 372.36328125 560.537109375 l 1
 465.640625 560.537109375 l 1
 558.91796875 560.537109375 l 1xc1
 558.91796875 653.627929688 l 1
 558.91796875 746.71875 l 1
 652.008789062 746.71875 l 1
 745.099609375 746.71875 l 1xa080
 745.099609375 933.086914062 l 1
 745.099609375 1119.45410156 l 1
 838.00390625 1119.45410156 l 1
 930.909179688 1119.45410156 l 1
 930.909179688 933.086914062 l 1
 930.909179688 746.71875 l 1xa840
 838.00390625 746.71875 l 1
 745.099609375 746.71875 l 1
 745.099609375 653.627929688 l 1
 745.099609375 560.537109375 l 1
 652.008789062 560.537109375 l 1xa880
 558.91796875 560.537109375 l 1
 558.91796875 467.446289062 l 1
 558.91796875 374.354492188 l 1xc1
 465.640625 374.354492188 l 1
 372.36328125 374.354492188 l 1xc2
372.36328125 374.354492188 m 1xc2
 372.36328125 281.263671875 l 1
 372.36328125 188.172851562 l 1xc2
 651.63671875 188.172851562 l 1
 930.909179688 188.172851562 l 1
 930.909179688 95.2685546875 l 1
 930.909179688 2.36328125 l 1
 465.454101562 2.36328125 l 1
 0 2.36328125 l 1
 0 95.2685546875 l 1
 0 188.172851562 l 1xc440
 93.0908203125 188.172851562 l 1
 186.181640625 188.172851562 l 1
 186.181640625 281.263671875 l 1
 186.181640625 374.354492188 l 1
 279.272460938 374.354492188 l 1
 372.36328125 374.354492188 l 1xc2
EndSplineSet
EndChar

StartChar: DIGIT
Encoding: 51 51 19
Width: 1117
VWidth: 80
Flags: HW
HStem: 2.36328 185.81<186.182 745.1> 188.173 186.182<0 186.182> 560.537 186.182<372.363 745.1> 933.272 186.182<0 186.182> 1119.45 186.183<186.182 745.1>
VStem: 0 186.182<188.173 374.354 933.272 1119.45> 186.182 558.918<2.36328 188.173 1119.45 1305.64> 745.1 185.81<188.173 560.537 746.719 1119.45>
LayerCount: 2
Fore
SplineSet
186.181640625 1212.54589844 m 1x32
 186.181640625 1305.63671875 l 1
 465.640625 1305.63671875 l 1
 745.099609375 1305.63671875 l 1
 745.099609375 1212.54589844 l 1
 745.099609375 1119.45410156 l 1
 465.640625 1119.45410156 l 1x2a
 186.181640625 1119.45410156 l 1x34
 186.181640625 1212.54589844 l 1x32
186.181640625 1119.45410156 m 1x34
 186.181640625 1026.36328125 l 1
 186.181640625 933.272460938 l 1
 93.0908203125 933.272460938 l 1
 0 933.272460938 l 1
 0 1026.36328125 l 1
 0 1119.45410156 l 1
 93.0908203125 1119.45410156 l 1
 186.181640625 1119.45410156 l 1x34
186.181640625 188.172851562 m 1xa4
 465.640625 188.172851562 l 1
 745.099609375 188.172851562 l 1xa2
 745.099609375 374.354492188 l 1
 745.099609375 560.537109375 l 1
 558.731445312 560.537109375 l 1
 372.36328125 560.537109375 l 1
 372.36328125 653.627929688 l 1
 372.36328125 746.71875 l 1
 558.731445312 746.71875 l 1
 745.099609375 746.71875 l 1
 745.099609375 933.086914062 l 1x61
 745.099609375 1119.45410156 l 1x6a
 838.00390625 1119.45410156 l 1
 930.909179688 1119.45410156 l 1
 930.909179688 933.086914062 l 1
 930.909179688 746.71875 l 1
 838.00390625 746.71875 l 1
 745.099609375 746.71875 l 1
 745.099609375 653.627929688 l 1
 745.099609375 560.537109375 l 1
 838.00390625 560.537109375 l 1
 930.909179688 560.537109375 l 1
 930.909179688 374.354492188 l 1
 930.909179688 188.172851562 l 1
 838.00390625 188.172851562 l 1x69
 745.099609375 188.172851562 l 1
 745.099609375 95.2685546875 l 1
 745.099609375 2.36328125 l 1
 465.640625 2.36328125 l 1
 186.181640625 2.36328125 l 1
 186.181640625 95.2685546875 l 1xa2
 186.181640625 188.172851562 l 1xa4
186.181640625 188.172851562 m 1xa4
 93.0908203125 188.172851562 l 1
 0 188.172851562 l 1
 0 281.263671875 l 1
 0 374.354492188 l 1
 93.0908203125 374.354492188 l 1
 186.181640625 374.354492188 l 1x64
 186.181640625 281.263671875 l 1
 186.181640625 188.172851562 l 1xa4
EndSplineSet
EndChar

StartChar: DIGIT
Encoding: 52 52 20
Width: 1117
VWidth: 80
Flags: HW
HStem: 2.36328 21G<558.918 745.1> 374.354 186.183<186.182 558.918 745.1 930.909> 746.719 186.554<186.182 372.363> 933.272 186.182<372.363 558.918> 1285.64 20G<558.918 745.1>
VStem: 0 186.182<560.537 746.719> 186.182 186.182<746.719 933.272> 558.918 186.182<2.36328 374.354 560.537 933.272 1119.45 1305.64>
LayerCount: 2
Fore
SplineSet
558.91796875 746.904296875 m 1xed
 558.91796875 933.272460938 l 1
 465.640625 933.272460938 l 1xdd
 372.36328125 933.272460938 l 1
 372.36328125 839.99609375 l 1
 372.36328125 746.71875 l 1xeb
 279.272460938 746.71875 l 1
 186.181640625 746.71875 l 1
 186.181640625 653.627929688 l 1
 186.181640625 560.537109375 l 1
 372.549804688 560.537109375 l 1
 558.91796875 560.537109375 l 1
 558.91796875 746.904296875 l 1xed
558.91796875 1212.54589844 m 1
 558.91796875 1305.63671875 l 1
 652.008789062 1305.63671875 l 1
 745.099609375 1305.63671875 l 1
 745.099609375 933.086914062 l 1
 745.099609375 560.537109375 l 1
 838.00390625 560.537109375 l 1
 930.909179688 560.537109375 l 1
 930.909179688 467.446289062 l 1
 930.909179688 374.354492188 l 1
 838.00390625 374.354492188 l 1
 745.099609375 374.354492188 l 1
 745.099609375 188.359375 l 1
 745.099609375 2.36328125 l 1
 652.008789062 2.36328125 l 1
 558.91796875 2.36328125 l 1
 558.91796875 188.359375 l 1
 558.91796875 374.354492188 l 1
 279.458984375 374.354492188 l 1
 0 374.354492188 l 1
 0 560.537109375 l 1
 0 746.71875 l 1
 93.0908203125 746.71875 l 1
 186.181640625 746.71875 l 1xed
 186.181640625 839.99609375 l 1
 186.181640625 933.272460938 l 1
 279.272460938 933.272460938 l 1
 372.36328125 933.272460938 l 1xeb
 372.36328125 1026.36328125 l 1
 372.36328125 1119.45410156 l 1xdb
 465.640625 1119.45410156 l 1
 558.91796875 1119.45410156 l 1
 558.91796875 1212.54589844 l 1
EndSplineSet
EndChar

StartChar: DIGIT
Encoding: 53 53 21
Width: 1117
VWidth: 80
Flags: HW
HStem: 2.36328 185.81<186.182 745.1> 188.173 186.182<0 186.182> 746.719 186.554<186.182 745.1> 1119.45 186.183<186.182 930.909>
VStem: 0 186.182<188.173 374.354 933.272 1119.45> 745.1 185.81<188.173 746.719>
LayerCount: 2
Fore
SplineSet
0 1026.17773438 m 1x3c
 0 1305.63671875 l 1
 465.454101562 1305.63671875 l 1
 930.909179688 1305.63671875 l 1
 930.909179688 1212.54589844 l 1
 930.909179688 1119.45410156 l 1
 558.545898438 1119.45410156 l 1
 186.181640625 1119.45410156 l 1
 186.181640625 1026.36328125 l 1
 186.181640625 933.272460938 l 1
 465.640625 933.272460938 l 1
 745.099609375 933.272460938 l 1
 745.099609375 839.99609375 l 1
 745.099609375 746.71875 l 1
 372.549804688 746.71875 l 1
 0 746.71875 l 1
 0 1026.17773438 l 1x3c
186.181640625 188.172851562 m 1xbc
 465.640625 188.172851562 l 1
 745.099609375 188.172851562 l 1xbc
 745.099609375 467.446289062 l 1
 745.099609375 746.71875 l 1
 838.00390625 746.71875 l 1
 930.909179688 746.71875 l 1
 930.909179688 467.446289062 l 1
 930.909179688 188.172851562 l 1
 838.00390625 188.172851562 l 1x7c
 745.099609375 188.172851562 l 1
 745.099609375 95.2685546875 l 1
 745.099609375 2.36328125 l 1
 465.640625 2.36328125 l 1
 186.181640625 2.36328125 l 1
 186.181640625 95.2685546875 l 1
 186.181640625 188.172851562 l 1xbc
186.181640625 188.172851562 m 1
 93.0908203125 188.172851562 l 1
 0 188.172851562 l 1
 0 281.263671875 l 1
 0 374.354492188 l 1
 93.0908203125 374.354492188 l 1
 186.181640625 374.354492188 l 1x7c
 186.181640625 281.263671875 l 1
 186.181640625 188.172851562 l 1
EndSplineSet
EndChar

StartChar: DIGIT
Encoding: 54 54 22
Width: 1117
VWidth: 80
Flags: HW
HStem: 2.36328 185.81<186.182 745.1> 746.719 186.554<186.182 745.1> 1119.45 186.183<186.182 745.1>
VStem: 0 186.182<188.173 746.719 933.272 1119.45> 186.182 558.918<2.36328 188.173 1119.45 1305.64> 745.1 185.81<188.173 746.719>
LayerCount: 2
Fore
SplineSet
186.181640625 1212.54589844 m 1xe8
 186.181640625 1305.63671875 l 1
 465.640625 1305.63671875 l 1
 745.099609375 1305.63671875 l 1
 745.099609375 1212.54589844 l 1
 745.099609375 1119.45410156 l 1xe8
 465.640625 1119.45410156 l 1
 186.181640625 1119.45410156 l 1xf0
 186.181640625 1212.54589844 l 1xe8
186.181640625 188.172851562 m 1xf4
 465.640625 188.172851562 l 1
 745.099609375 188.172851562 l 1xe8
 745.099609375 467.446289062 l 1
 745.099609375 746.71875 l 1
 465.640625 746.71875 l 1
 186.181640625 746.71875 l 1
 186.181640625 467.446289062 l 1
 186.181640625 188.172851562 l 1xf4
186.181640625 188.172851562 m 1xf0
 93.0908203125 188.172851562 l 1
 0 188.172851562 l 1
 0 653.813476562 l 1
 0 1119.45410156 l 1
 93.0908203125 1119.45410156 l 1
 186.181640625 1119.45410156 l 1
 186.181640625 1026.36328125 l 1
 186.181640625 933.272460938 l 1
 465.640625 933.272460938 l 1
 745.099609375 933.272460938 l 1
 745.099609375 839.99609375 l 1
 745.099609375 746.71875 l 1
 838.00390625 746.71875 l 1
 930.909179688 746.71875 l 1
 930.909179688 467.446289062 l 1
 930.909179688 188.172851562 l 1xf4
 838.00390625 188.172851562 l 1
 745.099609375 188.172851562 l 1
 745.099609375 95.2685546875 l 1
 745.099609375 2.36328125 l 1
 465.640625 2.36328125 l 1
 186.181640625 2.36328125 l 1
 186.181640625 95.2685546875 l 1xe8
 186.181640625 188.172851562 l 1xf0
EndSplineSet
EndChar

StartChar: DIGIT
Encoding: 55 55 23
Width: 1117
VWidth: 80
Flags: HW
HStem: 2.36328 21G<372.363 558.918> 913.272 20G<558.918 745.1> 933.272 21G<745.1 930.909> 1119.45 186.183<0 745.1>
VStem: 372.363 186.555<2.36328 560.537> 558.918 186.182<560.537 933.272> 745.1 185.81<933.272 1119.45>
LayerCount: 2
Fore
SplineSet
0 1212.54589844 m 1xd2
 0 1305.63671875 l 1
 465.454101562 1305.63671875 l 1
 930.909179688 1305.63671875 l 1
 930.909179688 1119.45410156 l 1
 930.909179688 933.272460938 l 1
 838.00390625 933.272460938 l 1xb2
 745.099609375 933.272460938 l 1xd4
 745.099609375 1026.36328125 l 1
 745.099609375 1119.45410156 l 1
 372.549804688 1119.45410156 l 1
 0 1119.45410156 l 1
 0 1212.54589844 l 1xd2
558.91796875 560.537109375 m 1xd8
 558.91796875 746.904296875 l 1
 558.91796875 933.272460938 l 1
 652.008789062 933.272460938 l 1
 745.099609375 933.272460938 l 1
 745.099609375 746.904296875 l 1
 745.099609375 560.537109375 l 1xd4
 652.008789062 560.537109375 l 1
 558.91796875 560.537109375 l 1xd8
558.91796875 560.537109375 m 1x98
 558.91796875 281.450195312 l 1
 558.91796875 2.36328125 l 1
 465.640625 2.36328125 l 1
 372.36328125 2.36328125 l 1
 372.36328125 281.450195312 l 1
 372.36328125 560.537109375 l 1
 465.640625 560.537109375 l 1
 558.91796875 560.537109375 l 1x98
EndSplineSet
EndChar

StartChar: DIGIT
Encoding: 56 56 24
Width: 1117
VWidth: 80
Flags: HW
HStem: 2.36328 185.81<186.182 745.1> 188.173 372.364<0 186.182 745.1 930.909> 560.537 186.182<186.182 745.1> 746.719 372.735<0 186.182 745.1 930.909> 1119.45 186.183<186.182 745.1>
VStem: 0 186.182<188.173 560.537 746.719 1119.45> 186.182 558.918<2.36328 188.173 560.537 746.719 1119.45 1305.64> 745.1 185.81<188.173 560.537 746.719 1119.45>
LayerCount: 2
Fore
SplineSet
186.181640625 1212.54589844 m 1x12
 186.181640625 1305.63671875 l 1
 465.640625 1305.63671875 l 1
 745.099609375 1305.63671875 l 1x0a
 745.099609375 1212.54589844 l 1
 745.099609375 1119.45410156 l 1x12
 465.640625 1119.45410156 l 1x0a
 186.181640625 1119.45410156 l 1x14
 186.181640625 933.086914062 l 1
 186.181640625 746.71875 l 1x24
 465.640625 746.71875 l 1
 745.099609375 746.71875 l 1x22
 745.099609375 933.086914062 l 1x21
 745.099609375 1119.45410156 l 1x12
 838.00390625 1119.45410156 l 1
 930.909179688 1119.45410156 l 1
 930.909179688 933.086914062 l 1
 930.909179688 746.71875 l 1
 838.00390625 746.71875 l 1x11
 745.099609375 746.71875 l 1x22
 745.099609375 653.627929688 l 1
 745.099609375 560.537109375 l 1x42
 465.640625 560.537109375 l 1x22
 186.181640625 560.537109375 l 1x44
 186.181640625 374.354492188 l 1
 186.181640625 188.172851562 l 1x84
 465.640625 188.172851562 l 1
 745.099609375 188.172851562 l 1x82
 745.099609375 374.354492188 l 1x81
 745.099609375 560.537109375 l 1x42
 838.00390625 560.537109375 l 1
 930.909179688 560.537109375 l 1
 930.909179688 374.354492188 l 1
 930.909179688 188.172851562 l 1
 838.00390625 188.172851562 l 1x41
 745.099609375 188.172851562 l 1
 745.099609375 95.2685546875 l 1
 745.099609375 2.36328125 l 1
 465.640625 2.36328125 l 1
 186.181640625 2.36328125 l 1
 186.181640625 95.2685546875 l 1x82
 186.181640625 188.172851562 l 1x84
 93.0908203125 188.172851562 l 1
 0 188.172851562 l 1
 0 374.354492188 l 1
 0 560.537109375 l 1
 93.0908203125 560.537109375 l 1
 186.181640625 560.537109375 l 1x44
 186.181640625 653.627929688 l 1x42
 186.181640625 746.71875 l 1x24
 93.0908203125 746.71875 l 1
 0 746.71875 l 1
 0 933.086914062 l 1
 0 1119.45410156 l 1
 93.0908203125 1119.45410156 l 1
 186.181640625 1119.45410156 l 1x14
 186.181640625 1212.54589844 l 1x12
EndSplineSet
EndChar

StartChar: DIGIT
Encoding: 57 57 25
Width: 1117
VWidth: 80
Flags: HW
HStem: 2.36328 185.81<186.182 745.1> 560.537 186.182<186.182 745.1> 1119.45 186.183<186.182 745.1>
VStem: 0 186.182<746.719 1119.45> 186.182 558.918<2.36328 188.173 1119.45 1305.64> 745.1 185.81<188.173 560.537 746.719 1119.45>
LayerCount: 2
Fore
SplineSet
186.181640625 1212.54589844 m 1xe8
 186.181640625 1305.63671875 l 1
 465.640625 1305.63671875 l 1
 745.099609375 1305.63671875 l 1
 745.099609375 1212.54589844 l 1
 745.099609375 1119.45410156 l 1xe8
 465.640625 1119.45410156 l 1
 186.181640625 1119.45410156 l 1
 186.181640625 933.086914062 l 1
 186.181640625 746.71875 l 1
 465.640625 746.71875 l 1
 745.099609375 746.71875 l 1
 745.099609375 933.086914062 l 1xf4
 745.099609375 1119.45410156 l 1xe8
 838.00390625 1119.45410156 l 1
 930.909179688 1119.45410156 l 1
 930.909179688 653.813476562 l 1
 930.909179688 188.172851562 l 1xe4
 838.00390625 188.172851562 l 1
 745.099609375 188.172851562 l 1xe8
 745.099609375 374.354492188 l 1
 745.099609375 560.537109375 l 1xe4
 465.640625 560.537109375 l 1
 186.181640625 560.537109375 l 1
 186.181640625 653.627929688 l 1xe8
 186.181640625 746.71875 l 1
 93.0908203125 746.71875 l 1
 0 746.71875 l 1
 0 933.086914062 l 1
 0 1119.45410156 l 1
 93.0908203125 1119.45410156 l 1
 186.181640625 1119.45410156 l 1xf0
 186.181640625 1212.54589844 l 1xe8
745.099609375 188.172851562 m 1
 745.099609375 95.2685546875 l 1
 745.099609375 2.36328125 l 1
 465.640625 2.36328125 l 1
 186.181640625 2.36328125 l 1
 186.181640625 95.2685546875 l 1
 186.181640625 188.172851562 l 1
 465.640625 188.172851562 l 1
 745.099609375 188.172851562 l 1
EndSplineSet
EndChar

StartChar: COLON
Encoding: 58 58 26
Width: 1117
VWidth: 80
Flags: HW
HStem: 2.36328 371.991<372.363 744.728> 560.909 372.363<372.363 744.728>
VStem: 372.363 372.364<2.36328 374.354 560.909 933.272>
LayerCount: 2
Fore
SplineSet
372.36328125 747.090820312 m 1
 372.36328125 933.272460938 l 1
 558.545898438 933.272460938 l 1
 744.727539062 933.272460938 l 1
 744.727539062 747.090820312 l 1
 744.727539062 560.909179688 l 1
 558.545898438 560.909179688 l 1
 372.36328125 560.909179688 l 1
 372.36328125 747.090820312 l 1
372.36328125 188.359375 m 1
 372.36328125 374.354492188 l 1
 558.545898438 374.354492188 l 1
 744.727539062 374.354492188 l 1
 744.727539062 188.359375 l 1
 744.727539062 2.36328125 l 1
 558.545898438 2.36328125 l 1
 372.36328125 2.36328125 l 1
 372.36328125 188.359375 l 1
EndSplineSet
EndChar

StartChar: SEMICOLON
Encoding: 59 59 27
Width: 1117
VWidth: 80
Flags: HW
HStem: -370 185.81<186.182 372.363> 560.909 372.363<186.182 558.546>
VStem: 186.182 186.182<-370 -184.19> 372.363 186.183<-184.19 1.99121>
LayerCount: 2
Fore
SplineSet
186.181640625 747.090820312 m 1xe0
 186.181640625 933.272460938 l 1xe0
 372.36328125 933.272460938 l 1
 558.545898438 933.272460938 l 1
 558.545898438 747.090820312 l 1
 558.545898438 560.909179688 l 1
 372.36328125 560.909179688 l 1xd0
 186.181640625 560.909179688 l 1
 186.181640625 747.090820312 l 1xe0
186.181640625 188.172851562 m 1
 186.181640625 374.354492188 l 1xe0
 372.36328125 374.354492188 l 1
 558.545898438 374.354492188 l 1
 558.545898438 95.08203125 l 1
 558.545898438 -184.190429688 l 1xd0
 465.454101562 -184.190429688 l 1
 372.36328125 -184.190429688 l 1xe0
 372.36328125 -91.099609375 l 1
 372.36328125 1.9912109375 l 1xd0
 279.272460938 1.9912109375 l 1
 186.181640625 1.9912109375 l 1
 186.181640625 188.172851562 l 1
372.36328125 -184.190429688 m 1
 372.36328125 -277.095703125 l 1
 372.36328125 -370 l 1
 279.272460938 -370 l 1
 186.181640625 -370 l 1
 186.181640625 -277.095703125 l 1
 186.181640625 -184.190429688 l 1
 279.272460938 -184.190429688 l 1
 372.36328125 -184.190429688 l 1
EndSplineSet
EndChar

StartChar: LESS-THAN
Encoding: 60 60 28
Width: 1117
VWidth: 80
Flags: HW
HStem: 2.36328 185.81<745.1 930.909> 188.173 186.182<558.546 745.1> 374.354 186.183<372.363 558.546> 560.537 186.182<186.182 372.363> 746.719 186.554<372.363 558.546> 933.272 186.182<558.546 745.1> 1119.45 186.183<745.1 930.909>
VStem: 186.182 186.182<560.537 746.719> 372.363 186.183<374.354 560.537 746.719 933.272> 558.546 186.554<188.173 374.354 933.272 1119.45> 745.1 185.81<2.36328 188.173 1119.45 1305.64>
LayerCount: 2
Fore
SplineSet
745.099609375 1212.54589844 m 1x0420
 745.099609375 1305.63671875 l 1
 838.00390625 1305.63671875 l 1
 930.909179688 1305.63671875 l 1
 930.909179688 1212.54589844 l 1
 930.909179688 1119.45410156 l 1
 838.00390625 1119.45410156 l 1x0220
 745.099609375 1119.45410156 l 1x0440
 745.099609375 1212.54589844 l 1x0420
745.099609375 188.172851562 m 1x8040
 651.822265625 188.172851562 l 1
 558.545898438 188.172851562 l 1
 558.545898438 281.263671875 l 1x4040
 558.545898438 374.354492188 l 1x4080
 465.454101562 374.354492188 l 1
 372.36328125 374.354492188 l 1
 372.36328125 467.446289062 l 1x2080
 372.36328125 560.537109375 l 1x21
 279.272460938 560.537109375 l 1
 186.181640625 560.537109375 l 1
 186.181640625 653.627929688 l 1
 186.181640625 746.71875 l 1
 279.272460938 746.71875 l 1
 372.36328125 746.71875 l 1x11
 372.36328125 839.99609375 l 1
 372.36328125 933.272460938 l 1
 465.454101562 933.272460938 l 1
 558.545898438 933.272460938 l 1x0880
 558.545898438 1026.36328125 l 1
 558.545898438 1119.45410156 l 1
 651.822265625 1119.45410156 l 1
 745.099609375 1119.45410156 l 1
 745.099609375 1026.36328125 l 1
 745.099609375 933.272460938 l 1
 651.822265625 933.272460938 l 1x0440
 558.545898438 933.272460938 l 1
 558.545898438 839.99609375 l 1
 558.545898438 746.71875 l 1
 465.454101562 746.71875 l 1x0880
 372.36328125 746.71875 l 1x11
 372.36328125 653.627929688 l 1
 372.36328125 560.537109375 l 1x21
 465.454101562 560.537109375 l 1
 558.545898438 560.537109375 l 1x2080
 558.545898438 467.446289062 l 1
 558.545898438 374.354492188 l 1x4080
 651.822265625 374.354492188 l 1
 745.099609375 374.354492188 l 1x4040
 745.099609375 281.263671875 l 1
 745.099609375 188.172851562 l 1x8040
745.099609375 188.172851562 m 1x8040
 838.00390625 188.172851562 l 1
 930.909179688 188.172851562 l 1
 930.909179688 95.2685546875 l 1
 930.909179688 2.36328125 l 1
 838.00390625 2.36328125 l 1
 745.099609375 2.36328125 l 1
 745.099609375 95.2685546875 l 1x8020
 745.099609375 188.172851562 l 1x8040
EndSplineSet
EndChar

StartChar: EQUALS
Encoding: 61 61 29
Width: 1117
VWidth: 80
Flags: HW
HStem: 374.728 186.182<0 930.909> 747.091 186.182<0 930.909>
LayerCount: 2
Fore
SplineSet
0 840.181640625 m 1
 0 933.272460938 l 1
 465.454101562 933.272460938 l 1
 930.909179688 933.272460938 l 1
 930.909179688 840.181640625 l 1
 930.909179688 747.090820312 l 1
 465.454101562 747.090820312 l 1
 0 747.090820312 l 1
 0 840.181640625 l 1
0 467.818359375 m 1
 0 560.909179688 l 1
 465.454101562 560.909179688 l 1
 930.909179688 560.909179688 l 1
 930.909179688 467.818359375 l 1
 930.909179688 374.727539062 l 1
 465.454101562 374.727539062 l 1
 0 374.727539062 l 1
 0 467.818359375 l 1
EndSplineSet
EndChar

StartChar: GREATER-THAN
Encoding: 62 62 30
Width: 1117
VWidth: 80
Flags: HW
HStem: 2.36328 185.81<186.182 372.363> 188.173 186.182<372.363 558.546> 374.354 186.183<558.546 745.1> 560.537 186.182<745.1 930.909> 746.719 186.554<558.546 745.1> 933.272 186.182<372.363 558.546> 1119.45 186.183<186.182 372.363>
VStem: 186.182 186.182<2.36328 188.173 1119.45 1305.64> 372.363 186.183<188.173 374.354 933.272 1119.45> 558.546 186.554<374.354 560.537 746.719 933.272> 745.1 185.81<560.537 746.719>
LayerCount: 2
Fore
SplineSet
186.181640625 1212.54589844 m 1x03
 186.181640625 1305.63671875 l 1
 279.272460938 1305.63671875 l 1
 372.36328125 1305.63671875 l 1x03
 372.36328125 1212.54589844 l 1
 372.36328125 1119.45410156 l 1x05
 279.272460938 1119.45410156 l 1
 186.181640625 1119.45410156 l 1
 186.181640625 1212.54589844 l 1x03
372.36328125 188.172851562 m 1x81
 372.36328125 281.263671875 l 1
 372.36328125 374.354492188 l 1
 465.454101562 374.354492188 l 1
 558.545898438 374.354492188 l 1x4080
 558.545898438 467.446289062 l 1
 558.545898438 560.537109375 l 1
 651.822265625 560.537109375 l 1
 745.099609375 560.537109375 l 1x2040
 745.099609375 653.627929688 l 1x2020
 745.099609375 746.71875 l 1x1040
 651.822265625 746.71875 l 1
 558.545898438 746.71875 l 1
 558.545898438 839.99609375 l 1x0840
 558.545898438 933.272460938 l 1x0880
 465.454101562 933.272460938 l 1
 372.36328125 933.272460938 l 1
 372.36328125 1026.36328125 l 1x0480
 372.36328125 1119.45410156 l 1x05
 465.454101562 1119.45410156 l 1
 558.545898438 1119.45410156 l 1x0480
 558.545898438 1026.36328125 l 1
 558.545898438 933.272460938 l 1x0880
 651.822265625 933.272460938 l 1
 745.099609375 933.272460938 l 1x0840
 745.099609375 839.99609375 l 1
 745.099609375 746.71875 l 1x1040
 838.00390625 746.71875 l 1
 930.909179688 746.71875 l 1
 930.909179688 653.627929688 l 1
 930.909179688 560.537109375 l 1
 838.00390625 560.537109375 l 1x1020
 745.099609375 560.537109375 l 1
 745.099609375 467.446289062 l 1
 745.099609375 374.354492188 l 1
 651.822265625 374.354492188 l 1x2040
 558.545898438 374.354492188 l 1
 558.545898438 281.263671875 l 1
 558.545898438 188.172851562 l 1
 465.454101562 188.172851562 l 1x4080
 372.36328125 188.172851562 l 1x81
372.36328125 188.172851562 m 1x81
 372.36328125 95.2685546875 l 1
 372.36328125 2.36328125 l 1
 279.272460938 2.36328125 l 1
 186.181640625 2.36328125 l 1
 186.181640625 95.2685546875 l 1
 186.181640625 188.172851562 l 1
 279.272460938 188.172851562 l 1
 372.36328125 188.172851562 l 1x81
EndSplineSet
EndChar

StartChar: QUESTION
Encoding: 63 63 31
Width: 1117
VWidth: 80
Flags: HW
HStem: 2.36328 185.81<372.363 558.918> 374.354 186.183<372.363 558.918> 560.537 186.182<558.918 745.1> 933.272 186.182<0 186.182> 1119.45 186.183<186.182 745.1>
VStem: 0 186.182<933.272 1119.45> 372.363 186.555<2.36328 188.173 374.354 560.537> 558.918 186.182<560.537 746.719> 745.1 185.81<746.719 1119.45>
LayerCount: 2
Fore
SplineSet
186.181640625 1212.54589844 m 1x9480
 186.181640625 1305.63671875 l 1
 465.640625 1305.63671875 l 1
 745.099609375 1305.63671875 l 1
 745.099609375 1212.54589844 l 1
 745.099609375 1119.45410156 l 1
 465.640625 1119.45410156 l 1x8c80
 186.181640625 1119.45410156 l 1
 186.181640625 1212.54589844 l 1x9480
372.36328125 95.2685546875 m 1x86
 372.36328125 188.172851562 l 1
 465.640625 188.172851562 l 1
 558.91796875 188.172851562 l 1
 558.91796875 95.2685546875 l 1
 558.91796875 2.36328125 l 1
 465.640625 2.36328125 l 1
 372.36328125 2.36328125 l 1
 372.36328125 95.2685546875 l 1x86
186.181640625 1119.45410156 m 1x94
 186.181640625 1026.36328125 l 1
 186.181640625 933.272460938 l 1
 93.0908203125 933.272460938 l 1
 0 933.272460938 l 1
 0 1026.36328125 l 1
 0 1119.45410156 l 1
 93.0908203125 1119.45410156 l 1
 186.181640625 1119.45410156 l 1x94
558.91796875 560.537109375 m 1xc6
 558.91796875 653.627929688 l 1
 558.91796875 746.71875 l 1
 652.008789062 746.71875 l 1
 745.099609375 746.71875 l 1xa5
 745.099609375 933.086914062 l 1
 745.099609375 1119.45410156 l 1
 838.00390625 1119.45410156 l 1
 930.909179688 1119.45410156 l 1
 930.909179688 933.086914062 l 1
 930.909179688 746.71875 l 1xac80
 838.00390625 746.71875 l 1
 745.099609375 746.71875 l 1
 745.099609375 653.627929688 l 1
 745.099609375 560.537109375 l 1
 652.008789062 560.537109375 l 1xad
 558.91796875 560.537109375 l 1xc6
558.91796875 560.537109375 m 1xc6
 558.91796875 467.446289062 l 1
 558.91796875 374.354492188 l 1
 465.640625 374.354492188 l 1
 372.36328125 374.354492188 l 1
 372.36328125 467.446289062 l 1
 372.36328125 560.537109375 l 1
 465.640625 560.537109375 l 1
 558.91796875 560.537109375 l 1xc6
EndSplineSet
EndChar

StartChar: COMMERCIAL
Encoding: 64 64 32
Width: 1117
VWidth: 80
Flags: HW
HStem: 2.36328 185.81<186.182 930.909> 374.354 186.183<558.918 745.1> 746.719 186.554<558.918 745.1> 1119.45 186.183<186.182 745.1>
VStem: 0 186.182<188.173 1119.45> 372.363 186.555<560.537 746.719> 745.1 185.81<560.537 746.719 933.272 1119.45>
LayerCount: 2
Fore
SplineSet
745.099609375 653.627929688 m 1
 745.099609375 746.71875 l 1
 652.008789062 746.71875 l 1
 558.91796875 746.71875 l 1
 558.91796875 653.627929688 l 1
 558.91796875 560.537109375 l 1
 652.008789062 560.537109375 l 1
 745.099609375 560.537109375 l 1
 745.099609375 653.627929688 l 1
186.181640625 1212.54589844 m 1
 186.181640625 1305.63671875 l 1
 465.640625 1305.63671875 l 1
 745.099609375 1305.63671875 l 1
 745.099609375 1212.54589844 l 1
 745.099609375 1119.45410156 l 1
 465.640625 1119.45410156 l 1
 186.181640625 1119.45410156 l 1
 186.181640625 1212.54589844 l 1
186.181640625 188.172851562 m 1
 93.0908203125 188.172851562 l 1
 0 188.172851562 l 1
 0 653.813476562 l 1
 0 1119.45410156 l 1
 93.0908203125 1119.45410156 l 1
 186.181640625 1119.45410156 l 1
 186.181640625 653.813476562 l 1
 186.181640625 188.172851562 l 1
186.181640625 188.172851562 m 1
 558.545898438 188.172851562 l 1
 930.909179688 188.172851562 l 1
 930.909179688 95.2685546875 l 1
 930.909179688 2.36328125 l 1
 558.545898438 2.36328125 l 1
 186.181640625 2.36328125 l 1
 186.181640625 95.2685546875 l 1
 186.181640625 188.172851562 l 1
745.099609375 1119.45410156 m 1
 838.00390625 1119.45410156 l 1
 930.909179688 1119.45410156 l 1
 930.909179688 746.904296875 l 1
 930.909179688 374.354492188 l 1
 651.63671875 374.354492188 l 1
 372.36328125 374.354492188 l 1
 372.36328125 653.813476562 l 1
 372.36328125 933.272460938 l 1
 558.731445312 933.272460938 l 1
 745.099609375 933.272460938 l 1
 745.099609375 1026.36328125 l 1
 745.099609375 1119.45410156 l 1
EndSplineSet
EndChar

StartChar: LATIN
Encoding: 65 65 33
Width: 1117
VWidth: 80
Flags: HW
HStem: 2.36328 21G<0 186.182 745.1 930.909> 746.719 186.182<186.182 745.1> 1285.64 20G<745.1 930.909> 1305.64 186.182<186.182 745.1>
VStem: 0 186.182<2.36328 746.719 932.9 1305.64> 745.1 185.81<2.36328 746.719 932.9 1305.64>
LayerCount: 2
Fore
SplineSet
186.181640625 1398.72753906 m 1xdc
 186.181640625 1491.81835938 l 1
 465.640625 1491.81835938 l 1
 745.099609375 1491.81835938 l 1xdc
 745.099609375 1398.72753906 l 1
 745.099609375 1305.63671875 l 1xec
 465.640625 1305.63671875 l 1
 186.181640625 1305.63671875 l 1xdc
 186.181640625 1119.26855469 l 1
 186.181640625 932.900390625 l 1
 465.640625 932.900390625 l 1
 745.099609375 932.900390625 l 1
 745.099609375 1119.26855469 l 1
 745.099609375 1305.63671875 l 1
 838.00390625 1305.63671875 l 1
 930.909179688 1305.63671875 l 1xec
 930.909179688 654 l 1
 930.909179688 2.36328125 l 1
 838.00390625 2.36328125 l 1
 745.099609375 2.36328125 l 1
 745.099609375 374.541015625 l 1
 745.099609375 746.71875 l 1
 465.640625 746.71875 l 1
 186.181640625 746.71875 l 1
 186.181640625 374.541015625 l 1
 186.181640625 2.36328125 l 1
 93.0908203125 2.36328125 l 1
 0 2.36328125 l 1
 0 654 l 1
 0 1305.63671875 l 1
 93.0908203125 1305.63671875 l 1
 186.181640625 1305.63671875 l 1
 186.181640625 1398.72753906 l 1xdc
EndSplineSet
EndChar

StartChar: LATIN
Encoding: 66 66 34
Width: 1117
VWidth: 80
Flags: HW
HStem: 2.36328 185.81<186.182 745.1> 746.719 186.182<186.182 745.1> 1285.64 20G<745.1 930.909> 1305.64 186.182<186.182 745.1>
VStem: 0 745.1<2.36328 188.173 746.719 932.9 1305.64 1491.82> 0 186.182<188.173 746.719 932.9 1305.64> 745.1 185.81<188.173 746.719 932.9 1305.64>
LayerCount: 2
Fore
SplineSet
0 747.090820312 m 1xe8
 0 1491.81835938 l 1
 372.549804688 1491.81835938 l 1
 745.099609375 1491.81835938 l 1xd8
 745.099609375 1398.72753906 l 1
 745.099609375 1305.63671875 l 1xe8
 465.640625 1305.63671875 l 1
 186.181640625 1305.63671875 l 1
 186.181640625 1119.26855469 l 1
 186.181640625 932.900390625 l 1xd4
 465.640625 932.900390625 l 1
 745.099609375 932.900390625 l 1xd8
 745.099609375 1119.26855469 l 1xd2
 745.099609375 1305.63671875 l 1xe8
 838.00390625 1305.63671875 l 1
 930.909179688 1305.63671875 l 1
 930.909179688 1119.26855469 l 1
 930.909179688 932.900390625 l 1xe2
 838.00390625 932.900390625 l 1
 745.099609375 932.900390625 l 1
 745.099609375 839.809570312 l 1
 745.099609375 746.71875 l 1xe8
 465.640625 746.71875 l 1
 186.181640625 746.71875 l 1
 186.181640625 467.446289062 l 1
 186.181640625 188.172851562 l 1xe4
 465.640625 188.172851562 l 1
 745.099609375 188.172851562 l 1xe8
 745.099609375 467.446289062 l 1xe2
 745.099609375 746.71875 l 1xe8
 838.00390625 746.71875 l 1
 930.909179688 746.71875 l 1
 930.909179688 467.446289062 l 1
 930.909179688 188.172851562 l 1xe2
 838.00390625 188.172851562 l 1
 745.099609375 188.172851562 l 1
 745.099609375 95.2685546875 l 1
 745.099609375 2.36328125 l 1
 372.549804688 2.36328125 l 1
 0 2.36328125 l 1
 0 747.090820312 l 1xe8
EndSplineSet
EndChar

StartChar: LATIN
Encoding: 67 67 35
Width: 1117
VWidth: 80
Flags: HW
HStem: 2.36328 185.81<186.182 745.1> 188.173 186.182<745.1 930.909> 1119.45 186.183<745.1 930.909> 1305.64 186.182<186.182 745.1>
VStem: 0 186.182<188.173 1305.64> 186.182 558.918<2.36328 188.173 1305.64 1491.82> 745.1 185.81<188.173 374.354 1119.45 1305.64>
LayerCount: 2
Fore
SplineSet
186.181640625 1398.72753906 m 1x14
 186.181640625 1491.81835938 l 1
 465.640625 1491.81835938 l 1
 745.099609375 1491.81835938 l 1x14
 745.099609375 1398.72753906 l 1
 745.099609375 1305.63671875 l 1x24
 465.640625 1305.63671875 l 1
 186.181640625 1305.63671875 l 1x18
 186.181640625 1398.72753906 l 1x14
745.099609375 188.172851562 m 1x94
 745.099609375 95.2685546875 l 1
 745.099609375 2.36328125 l 1
 465.640625 2.36328125 l 1
 186.181640625 2.36328125 l 1
 186.181640625 95.2685546875 l 1x94
 186.181640625 188.172851562 l 1x98
 93.0908203125 188.172851562 l 1
 0 188.172851562 l 1x48
 0 746.904296875 l 1
 0 1305.63671875 l 1
 93.0908203125 1305.63671875 l 1
 186.181640625 1305.63671875 l 1
 186.181640625 746.904296875 l 1
 186.181640625 188.172851562 l 1x98
 465.640625 188.172851562 l 1
 745.099609375 188.172851562 l 1x94
745.099609375 188.172851562 m 1
 745.099609375 281.263671875 l 1
 745.099609375 374.354492188 l 1
 838.00390625 374.354492188 l 1
 930.909179688 374.354492188 l 1
 930.909179688 281.263671875 l 1
 930.909179688 188.172851562 l 1
 838.00390625 188.172851562 l 1x42
 745.099609375 188.172851562 l 1
745.099609375 1305.63671875 m 1x24
 838.00390625 1305.63671875 l 1
 930.909179688 1305.63671875 l 1
 930.909179688 1212.54589844 l 1
 930.909179688 1119.45410156 l 1
 838.00390625 1119.45410156 l 1
 745.099609375 1119.45410156 l 1
 745.099609375 1212.54589844 l 1x22
 745.099609375 1305.63671875 l 1x24
EndSplineSet
EndChar

StartChar: LATIN
Encoding: 68 68 36
Width: 1117
VWidth: 80
Flags: HW
HStem: 2.36328 185.81<186.182 745.1> 1285.64 20G<745.1 930.909> 1305.64 186.182<186.182 745.1>
VStem: 0 186.182<188.173 1305.64> 745.1 185.81<188.173 1305.64>
LayerCount: 2
Fore
SplineSet
0 747.090820312 m 1xd8
 0 1491.81835938 l 1
 372.549804688 1491.81835938 l 1
 745.099609375 1491.81835938 l 1xb8
 745.099609375 1398.72753906 l 1
 745.099609375 1305.63671875 l 1xd8
 465.640625 1305.63671875 l 1
 186.181640625 1305.63671875 l 1xb8
 186.181640625 746.904296875 l 1
 186.181640625 188.172851562 l 1
 465.640625 188.172851562 l 1
 745.099609375 188.172851562 l 1
 745.099609375 746.904296875 l 1
 745.099609375 1305.63671875 l 1
 838.00390625 1305.63671875 l 1
 930.909179688 1305.63671875 l 1
 930.909179688 746.904296875 l 1
 930.909179688 188.172851562 l 1
 838.00390625 188.172851562 l 1
 745.099609375 188.172851562 l 1
 745.099609375 95.2685546875 l 1
 745.099609375 2.36328125 l 1
 372.549804688 2.36328125 l 1
 0 2.36328125 l 1
 0 747.090820312 l 1xd8
EndSplineSet
EndChar

StartChar: LATIN
Encoding: 69 69 37
Width: 1117
VWidth: 80
Flags: HW
HStem: 2.36328 185.81<186.182 930.909> 746.719 186.182<186.182 745.1> 1305.64 186.182<186.182 930.909>
VStem: 0 186.182<188.173 746.719 932.9 1305.64>
LayerCount: 2
Fore
SplineSet
0 747.090820312 m 1
 0 1491.81835938 l 1
 465.454101562 1491.81835938 l 1
 930.909179688 1491.81835938 l 1
 930.909179688 1398.72753906 l 1
 930.909179688 1305.63671875 l 1
 558.545898438 1305.63671875 l 1
 186.181640625 1305.63671875 l 1
 186.181640625 1119.26855469 l 1
 186.181640625 932.900390625 l 1
 465.640625 932.900390625 l 1
 745.099609375 932.900390625 l 1
 745.099609375 839.809570312 l 1
 745.099609375 746.71875 l 1
 465.640625 746.71875 l 1
 186.181640625 746.71875 l 1
 186.181640625 467.446289062 l 1
 186.181640625 188.172851562 l 1
 558.545898438 188.172851562 l 1
 930.909179688 188.172851562 l 1
 930.909179688 95.2685546875 l 1
 930.909179688 2.36328125 l 1
 465.454101562 2.36328125 l 1
 0 2.36328125 l 1
 0 747.090820312 l 1
EndSplineSet
EndChar

StartChar: LATIN
Encoding: 70 70 38
Width: 1117
VWidth: 80
Flags: HW
HStem: 2.36328 21G<0 186.182> 746.719 186.182<186.182 745.1> 1305.64 186.182<186.182 930.909>
VStem: 0 186.182<2.36328 746.719 932.9 1305.64>
LayerCount: 2
Fore
SplineSet
0 747.090820312 m 1
 0 1491.81835938 l 1
 465.454101562 1491.81835938 l 1
 930.909179688 1491.81835938 l 1
 930.909179688 1398.72753906 l 1
 930.909179688 1305.63671875 l 1
 558.545898438 1305.63671875 l 1
 186.181640625 1305.63671875 l 1
 186.181640625 1119.26855469 l 1
 186.181640625 932.900390625 l 1
 465.640625 932.900390625 l 1
 745.099609375 932.900390625 l 1
 745.099609375 839.809570312 l 1
 745.099609375 746.71875 l 1
 465.640625 746.71875 l 1
 186.181640625 746.71875 l 1
 186.181640625 374.541015625 l 1
 186.181640625 2.36328125 l 1
 93.0908203125 2.36328125 l 1
 0 2.36328125 l 1
 0 747.090820312 l 1
EndSplineSet
EndChar

StartChar: LATIN
Encoding: 71 71 39
Width: 1117
VWidth: 80
Flags: HW
HStem: 2.36328 185.81<186.182 745.1> 746.719 186.182<372.363 745.1> 1119.45 186.183<745.1 930.909> 1305.64 186.182<186.182 745.1>
VStem: 0 186.182<188.173 1305.64> 186.182 558.918<2.36328 188.173 1305.64 1491.82> 745.1 185.81<188.173 746.719 1119.45 1305.64>
LayerCount: 2
Fore
SplineSet
186.181640625 1398.72753906 m 1xd4
 186.181640625 1491.81835938 l 1
 465.640625 1491.81835938 l 1
 745.099609375 1491.81835938 l 1xd4
 745.099609375 1398.72753906 l 1
 745.099609375 1305.63671875 l 1xe4
 465.640625 1305.63671875 l 1
 186.181640625 1305.63671875 l 1xd8
 186.181640625 1398.72753906 l 1xd4
745.099609375 188.172851562 m 1
 745.099609375 95.2685546875 l 1
 745.099609375 2.36328125 l 1
 465.640625 2.36328125 l 1
 186.181640625 2.36328125 l 1
 186.181640625 95.2685546875 l 1xd4
 186.181640625 188.172851562 l 1
 93.0908203125 188.172851562 l 1
 0 188.172851562 l 1
 0 746.904296875 l 1
 0 1305.63671875 l 1
 93.0908203125 1305.63671875 l 1
 186.181640625 1305.63671875 l 1
 186.181640625 746.904296875 l 1
 186.181640625 188.172851562 l 1xd8
 465.640625 188.172851562 l 1
 745.099609375 188.172851562 l 1
745.099609375 188.172851562 m 1
 745.099609375 467.446289062 l 1
 745.099609375 746.71875 l 1
 558.731445312 746.71875 l 1
 372.36328125 746.71875 l 1
 372.36328125 839.809570312 l 1
 372.36328125 932.900390625 l 1
 651.63671875 932.900390625 l 1
 930.909179688 932.900390625 l 1
 930.909179688 560.537109375 l 1
 930.909179688 188.172851562 l 1xc2
 838.00390625 188.172851562 l 1
 745.099609375 188.172851562 l 1
745.099609375 1305.63671875 m 1xe4
 838.00390625 1305.63671875 l 1
 930.909179688 1305.63671875 l 1
 930.909179688 1212.54589844 l 1
 930.909179688 1119.45410156 l 1
 838.00390625 1119.45410156 l 1
 745.099609375 1119.45410156 l 1
 745.099609375 1212.54589844 l 1xe2
 745.099609375 1305.63671875 l 1xe4
EndSplineSet
EndChar

StartChar: LATIN
Encoding: 72 72 40
Width: 1117
VWidth: 80
Flags: HW
HStem: 2.36328 21G<0 186.182 745.1 930.909> 746.719 186.182<186.182 745.1> 1471.82 20G<0 186.182 745.1 930.909>
VStem: 0 186.182<2.36328 746.719 932.9 1491.82> 745.1 185.81<2.36328 746.719 932.9 1491.82>
LayerCount: 2
Fore
SplineSet
0 747.090820312 m 1
 0 1491.81835938 l 1
 93.0908203125 1491.81835938 l 1
 186.181640625 1491.81835938 l 1
 186.181640625 1212.359375 l 1
 186.181640625 932.900390625 l 1
 465.640625 932.900390625 l 1
 745.099609375 932.900390625 l 1
 745.099609375 1212.359375 l 1
 745.099609375 1491.81835938 l 1
 838.00390625 1491.81835938 l 1
 930.909179688 1491.81835938 l 1
 930.909179688 747.090820312 l 1
 930.909179688 2.36328125 l 1
 838.00390625 2.36328125 l 1
 745.099609375 2.36328125 l 1
 745.099609375 374.541015625 l 1
 745.099609375 746.71875 l 1
 465.640625 746.71875 l 1
 186.181640625 746.71875 l 1
 186.181640625 374.541015625 l 1
 186.181640625 2.36328125 l 1
 93.0908203125 2.36328125 l 1
 0 2.36328125 l 1
 0 747.090820312 l 1
EndSplineSet
EndChar

StartChar: LATIN
Encoding: 73 73 41
Width: 1117
VWidth: 80
Flags: HW
HStem: 2.36328 185.81<186.182 372.363 558.546 744.728> 1305.64 186.182<186.182 372.363 558.546 744.728>
VStem: 186.182 558.546<2.36328 188.173 1305.64 1491.82> 372.363 186.183<188.173 1305.64>
LayerCount: 2
Fore
SplineSet
186.181640625 1398.72753906 m 1xe0
 186.181640625 1491.81835938 l 1
 465.454101562 1491.81835938 l 1
 744.727539062 1491.81835938 l 1
 744.727539062 1398.72753906 l 1
 744.727539062 1305.63671875 l 1xe0
 651.63671875 1305.63671875 l 1
 558.545898438 1305.63671875 l 1
 558.545898438 746.904296875 l 1
 558.545898438 188.172851562 l 1xd0
 651.63671875 188.172851562 l 1
 744.727539062 188.172851562 l 1
 744.727539062 95.2685546875 l 1
 744.727539062 2.36328125 l 1
 465.454101562 2.36328125 l 1
 186.181640625 2.36328125 l 1
 186.181640625 95.2685546875 l 1
 186.181640625 188.172851562 l 1xe0
 279.272460938 188.172851562 l 1
 372.36328125 188.172851562 l 1
 372.36328125 746.904296875 l 1
 372.36328125 1305.63671875 l 1xd0
 279.272460938 1305.63671875 l 1
 186.181640625 1305.63671875 l 1
 186.181640625 1398.72753906 l 1xe0
EndSplineSet
EndChar

StartChar: LATIN
Encoding: 74 74 42
Width: 1117
VWidth: 80
Flags: HW
HStem: 2.36328 185.81<186.182 745.1> 1471.82 20G<745.1 930.909>
VStem: 0 186.182<188.173 560.537> 745.1 185.81<188.173 1491.82>
LayerCount: 2
Fore
SplineSet
745.099609375 839.99609375 m 1
 745.099609375 1491.81835938 l 1
 838.00390625 1491.81835938 l 1
 930.909179688 1491.81835938 l 1
 930.909179688 839.99609375 l 1
 930.909179688 188.172851562 l 1
 838.00390625 188.172851562 l 1
 745.099609375 188.172851562 l 1
 745.099609375 839.99609375 l 1
186.181640625 188.172851562 m 1
 465.640625 188.172851562 l 1
 745.099609375 188.172851562 l 1
 745.099609375 95.2685546875 l 1
 745.099609375 2.36328125 l 1
 465.640625 2.36328125 l 1
 186.181640625 2.36328125 l 1
 186.181640625 95.2685546875 l 1
 186.181640625 188.172851562 l 1
186.181640625 188.172851562 m 1
 93.0908203125 188.172851562 l 1
 0 188.172851562 l 1
 0 374.354492188 l 1
 0 560.537109375 l 1
 93.0908203125 560.537109375 l 1
 186.181640625 560.537109375 l 1
 186.181640625 374.354492188 l 1
 186.181640625 188.172851562 l 1
EndSplineSet
EndChar

StartChar: LATIN
Encoding: 75 75 43
Width: 1117
VWidth: 80
Flags: HW
HStem: 2.36328 21G<0 186.182 745.1 930.909> 374.354 186.183<558.918 745.1> 560.537 186.182<372.363 558.918> 746.719 186.182<186.182 372.363> 932.9 186.554<372.363 558.918> 1119.45 186.183<558.918 745.1> 1305.64 186.182<745.1 930.909>
VStem: 0 186.182<2.36328 746.719 932.9 1491.82> 372.363 186.555<560.537 746.719 932.9 1119.45> 558.918 186.182<374.354 560.537 1119.45 1305.64> 745.1 185.81<2.36328 374.354 1305.64 1491.82>
LayerCount: 2
Fore
SplineSet
0 747.090820312 m 1x9180
 0 1491.81835938 l 1
 93.0908203125 1491.81835938 l 1
 186.181640625 1491.81835938 l 1
 186.181640625 1212.359375 l 1
 186.181640625 932.900390625 l 1
 279.272460938 932.900390625 l 1
 372.36328125 932.900390625 l 1x9380
 372.36328125 839.809570312 l 1
 372.36328125 746.71875 l 1xa180
 279.272460938 746.71875 l 1
 186.181640625 746.71875 l 1
 186.181640625 374.541015625 l 1
 186.181640625 2.36328125 l 1
 93.0908203125 2.36328125 l 1
 0 2.36328125 l 1
 0 747.090820312 l 1x9180
745.099609375 374.354492188 m 1xc140
 652.008789062 374.354492188 l 1
 558.91796875 374.354492188 l 1
 558.91796875 467.446289062 l 1xc140
 558.91796875 560.537109375 l 1xc180
 465.640625 560.537109375 l 1
 372.36328125 560.537109375 l 1
 372.36328125 653.627929688 l 1
 372.36328125 746.71875 l 1
 465.640625 746.71875 l 1
 558.91796875 746.71875 l 1xa180
 558.91796875 653.627929688 l 1
 558.91796875 560.537109375 l 1xc180
 652.008789062 560.537109375 l 1
 745.099609375 560.537109375 l 1
 745.099609375 467.446289062 l 1
 745.099609375 374.354492188 l 1xc140
745.099609375 374.354492188 m 1
 838.00390625 374.354492188 l 1
 930.909179688 374.354492188 l 1
 930.909179688 188.359375 l 1
 930.909179688 2.36328125 l 1
 838.00390625 2.36328125 l 1
 745.099609375 2.36328125 l 1
 745.099609375 188.359375 l 1xc120
 745.099609375 374.354492188 l 1
745.099609375 1305.63671875 m 1x8540
 745.099609375 1212.54589844 l 1
 745.099609375 1119.45410156 l 1
 652.008789062 1119.45410156 l 1x8540
 558.91796875 1119.45410156 l 1
 558.91796875 1026.17773438 l 1
 558.91796875 932.900390625 l 1
 465.640625 932.900390625 l 1x8980
 372.36328125 932.900390625 l 1x9180
 372.36328125 1026.17773438 l 1
 372.36328125 1119.45410156 l 1
 465.640625 1119.45410156 l 1
 558.91796875 1119.45410156 l 1x8980
 558.91796875 1212.54589844 l 1
 558.91796875 1305.63671875 l 1
 652.008789062 1305.63671875 l 1
 745.099609375 1305.63671875 l 1x8540
745.099609375 1305.63671875 m 1
 745.099609375 1398.72753906 l 1
 745.099609375 1491.81835938 l 1
 838.00390625 1491.81835938 l 1
 930.909179688 1491.81835938 l 1
 930.909179688 1398.72753906 l 1
 930.909179688 1305.63671875 l 1
 838.00390625 1305.63671875 l 1x8320
 745.099609375 1305.63671875 l 1
EndSplineSet
EndChar

StartChar: LATIN
Encoding: 76 76 44
Width: 1117
VWidth: 80
Flags: HW
HStem: 2.36328 185.81<186.182 930.909> 1471.82 20G<0 186.182>
VStem: 0 186.182<188.173 1491.82>
LayerCount: 2
Fore
SplineSet
0 747.090820312 m 1
 0 1491.81835938 l 1
 93.0908203125 1491.81835938 l 1
 186.181640625 1491.81835938 l 1
 186.181640625 839.99609375 l 1
 186.181640625 188.172851562 l 1
 558.545898438 188.172851562 l 1
 930.909179688 188.172851562 l 1
 930.909179688 95.2685546875 l 1
 930.909179688 2.36328125 l 1
 465.454101562 2.36328125 l 1
 0 2.36328125 l 1
 0 747.090820312 l 1
EndSplineSet
EndChar

StartChar: LATIN
Encoding: 77 77 45
Width: 1117
VWidth: 80
Flags: HW
HStem: 2.36328 21G<0 186.182 745.1 930.909> 1119.45 186.183<186.182 372.363 558.918 745.1> 1471.82 20G<0 186.182 745.1 930.909>
VStem: 0 186.182<2.36328 1119.45 1305.64 1491.82> 372.363 186.555<746.719 1119.45> 745.1 185.81<2.36328 1119.45 1305.64 1491.82>
LayerCount: 2
Fore
SplineSet
0 747.090820312 m 1
 0 1491.81835938 l 1
 93.0908203125 1491.81835938 l 1
 186.181640625 1491.81835938 l 1
 186.181640625 1398.72753906 l 1
 186.181640625 1305.63671875 l 1
 279.272460938 1305.63671875 l 1
 372.36328125 1305.63671875 l 1
 372.36328125 1212.54589844 l 1
 372.36328125 1119.45410156 l 1
 279.272460938 1119.45410156 l 1
 186.181640625 1119.45410156 l 1
 186.181640625 560.909179688 l 1
 186.181640625 2.36328125 l 1
 93.0908203125 2.36328125 l 1
 0 2.36328125 l 1
 0 747.090820312 l 1
558.91796875 1119.45410156 m 1
 558.91796875 933.086914062 l 1
 558.91796875 746.71875 l 1
 465.640625 746.71875 l 1
 372.36328125 746.71875 l 1
 372.36328125 933.086914062 l 1
 372.36328125 1119.45410156 l 1
 465.640625 1119.45410156 l 1
 558.91796875 1119.45410156 l 1
558.91796875 1119.45410156 m 1
 558.91796875 1212.54589844 l 1
 558.91796875 1305.63671875 l 1
 652.008789062 1305.63671875 l 1
 745.099609375 1305.63671875 l 1
 745.099609375 1398.72753906 l 1
 745.099609375 1491.81835938 l 1
 838.00390625 1491.81835938 l 1
 930.909179688 1491.81835938 l 1
 930.909179688 747.090820312 l 1
 930.909179688 2.36328125 l 1
 838.00390625 2.36328125 l 1
 745.099609375 2.36328125 l 1
 745.099609375 560.909179688 l 1
 745.099609375 1119.45410156 l 1
 652.008789062 1119.45410156 l 1
 558.91796875 1119.45410156 l 1
EndSplineSet
EndChar

StartChar: LATIN
Encoding: 78 78 46
Width: 1117
VWidth: 80
Flags: HW
HStem: 2.36328 21G<0 186.182 745.1 930.909> 912.9 20G<372.363 558.918> 1471.82 20G<0 186.182 745.1 930.909>
VStem: 0 372.363<932.9 1305.64> 0 186.182<2.36328 932.9 1305.64 1491.82> 372.363 186.555<560.537 932.9> 558.918 371.991<188.173 560.537> 745.1 185.81<2.36328 188.173 560.537 1491.82>
LayerCount: 2
Fore
SplineSet
0 747.090820312 m 1xe8
 0 1491.81835938 l 1
 93.0908203125 1491.81835938 l 1
 186.181640625 1491.81835938 l 1
 186.181640625 1398.72753906 l 1
 186.181640625 1305.63671875 l 1xe8
 279.272460938 1305.63671875 l 1
 372.36328125 1305.63671875 l 1
 372.36328125 1119.26855469 l 1
 372.36328125 932.900390625 l 1xf0
 279.272460938 932.900390625 l 1
 186.181640625 932.900390625 l 1
 186.181640625 467.631835938 l 1
 186.181640625 2.36328125 l 1
 93.0908203125 2.36328125 l 1
 0 2.36328125 l 1
 0 747.090820312 l 1xe8
558.91796875 560.537109375 m 1xe4
 465.640625 560.537109375 l 1
 372.36328125 560.537109375 l 1
 372.36328125 746.71875 l 1xe4
 372.36328125 932.900390625 l 1xf0
 465.640625 932.900390625 l 1
 558.91796875 932.900390625 l 1
 558.91796875 746.71875 l 1
 558.91796875 560.537109375 l 1xe4
558.91796875 560.537109375 m 1
 652.008789062 560.537109375 l 1
 745.099609375 560.537109375 l 1
 745.099609375 1026.17773438 l 1
 745.099609375 1491.81835938 l 1
 838.00390625 1491.81835938 l 1
 930.909179688 1491.81835938 l 1
 930.909179688 747.090820312 l 1
 930.909179688 2.36328125 l 1
 838.00390625 2.36328125 l 1
 745.099609375 2.36328125 l 1
 745.099609375 95.2685546875 l 1
 745.099609375 188.172851562 l 1xe5
 652.008789062 188.172851562 l 1
 558.91796875 188.172851562 l 1
 558.91796875 374.354492188 l 1xe2
 558.91796875 560.537109375 l 1
EndSplineSet
EndChar

StartChar: LATIN
Encoding: 79 79 47
Width: 1117
VWidth: 80
Flags: HW
HStem: 2.36328 185.81<186.182 745.1> 1285.64 20G<745.1 930.909> 1305.64 186.182<186.182 745.1>
VStem: 0 186.182<188.173 1305.64> 186.182 558.918<2.36328 188.173 1305.64 1491.82> 745.1 185.81<188.173 1305.64>
LayerCount: 2
Fore
SplineSet
186.181640625 1398.72753906 m 1xa8
 186.181640625 1491.81835938 l 1
 465.640625 1491.81835938 l 1
 745.099609375 1491.81835938 l 1xa8
 745.099609375 1398.72753906 l 1
 745.099609375 1305.63671875 l 1xc8
 465.640625 1305.63671875 l 1
 186.181640625 1305.63671875 l 1
 186.181640625 746.904296875 l 1
 186.181640625 188.172851562 l 1xb0
 465.640625 188.172851562 l 1
 745.099609375 188.172851562 l 1xa8
 745.099609375 746.904296875 l 1xa4
 745.099609375 1305.63671875 l 1xc8
 838.00390625 1305.63671875 l 1
 930.909179688 1305.63671875 l 1
 930.909179688 746.904296875 l 1
 930.909179688 188.172851562 l 1xc4
 838.00390625 188.172851562 l 1
 745.099609375 188.172851562 l 1
 745.099609375 95.2685546875 l 1
 745.099609375 2.36328125 l 1
 465.640625 2.36328125 l 1
 186.181640625 2.36328125 l 1
 186.181640625 95.2685546875 l 1xc8
 186.181640625 188.172851562 l 1
 93.0908203125 188.172851562 l 1
 0 188.172851562 l 1
 0 746.904296875 l 1
 0 1305.63671875 l 1
 93.0908203125 1305.63671875 l 1
 186.181640625 1305.63671875 l 1xb0
 186.181640625 1398.72753906 l 1xa8
EndSplineSet
EndChar

StartChar: LATIN
Encoding: 80 80 48
Width: 1117
VWidth: 80
Flags: HW
HStem: 2.36328 21G<0 186.182> 746.719 186.182<186.182 745.1> 1285.64 20G<745.1 930.909> 1305.64 186.182<186.182 745.1>
VStem: 0 186.182<2.36328 746.719 932.9 1305.64> 745.1 185.81<932.9 1305.64>
LayerCount: 2
Fore
SplineSet
0 747.090820312 m 1xec
 0 1491.81835938 l 1
 372.549804688 1491.81835938 l 1
 745.099609375 1491.81835938 l 1xdc
 745.099609375 1398.72753906 l 1
 745.099609375 1305.63671875 l 1xec
 465.640625 1305.63671875 l 1
 186.181640625 1305.63671875 l 1xdc
 186.181640625 1119.26855469 l 1
 186.181640625 932.900390625 l 1
 465.640625 932.900390625 l 1
 745.099609375 932.900390625 l 1
 745.099609375 1119.26855469 l 1
 745.099609375 1305.63671875 l 1
 838.00390625 1305.63671875 l 1
 930.909179688 1305.63671875 l 1
 930.909179688 1119.26855469 l 1
 930.909179688 932.900390625 l 1
 838.00390625 932.900390625 l 1
 745.099609375 932.900390625 l 1
 745.099609375 839.809570312 l 1
 745.099609375 746.71875 l 1
 465.640625 746.71875 l 1
 186.181640625 746.71875 l 1
 186.181640625 374.541015625 l 1
 186.181640625 2.36328125 l 1
 93.0908203125 2.36328125 l 1
 0 2.36328125 l 1
 0 747.090820312 l 1xec
EndSplineSet
EndChar

StartChar: LATIN
Encoding: 81 81 49
Width: 1117
VWidth: 80
Flags: HW
HStem: 1.99121 186.182<186.182 558.918> 188.173 186.182<558.918 745.1> 374.354 186.183<372.363 558.918> 1285.64 20G<745.1 930.909> 1305.64 186.182<186.182 745.1>
VStem: 0 186.182<188.173 1305.64> 372.363 186.555<374.354 560.537> 558.918 186.182<188.173 374.354> 745.1 185.81<-183.818 188.173 374.354 1305.64>
LayerCount: 2
Fore
SplineSet
186.181640625 1398.72753906 m 1x4d
 186.181640625 1491.81835938 l 1
 465.640625 1491.81835938 l 1
 745.099609375 1491.81835938 l 1x4c80
 745.099609375 1398.72753906 l 1
 745.099609375 1305.63671875 l 1x1480
 465.640625 1305.63671875 l 1
 186.181640625 1305.63671875 l 1
 186.181640625 746.904296875 l 1
 186.181640625 188.172851562 l 1
 372.549804688 188.172851562 l 1
 558.91796875 188.172851562 l 1
 558.91796875 281.263671875 l 1x8d
 558.91796875 374.354492188 l 1x46
 652.008789062 374.354492188 l 1
 745.099609375 374.354492188 l 1x45
 745.099609375 839.99609375 l 1
 745.099609375 1305.63671875 l 1
 838.00390625 1305.63671875 l 1
 930.909179688 1305.63671875 l 1
 930.909179688 839.99609375 l 1
 930.909179688 374.354492188 l 1
 838.00390625 374.354492188 l 1x3480
 745.099609375 374.354492188 l 1
 745.099609375 281.263671875 l 1
 745.099609375 188.172851562 l 1
 652.008789062 188.172851562 l 1x45
 558.91796875 188.172851562 l 1
 558.91796875 95.08203125 l 1
 558.91796875 1.9912109375 l 1
 372.549804688 1.9912109375 l 1
 186.181640625 1.9912109375 l 1
 186.181640625 95.08203125 l 1
 186.181640625 188.172851562 l 1x85
 93.0908203125 188.172851562 l 1
 0 188.172851562 l 1
 0 746.904296875 l 1
 0 1305.63671875 l 1
 93.0908203125 1305.63671875 l 1
 186.181640625 1305.63671875 l 1
 186.181640625 1398.72753906 l 1x4d
372.36328125 467.446289062 m 1x26
 372.36328125 560.537109375 l 1
 465.640625 560.537109375 l 1
 558.91796875 560.537109375 l 1x26
 558.91796875 467.446289062 l 1
 558.91796875 374.354492188 l 1x46
 465.640625 374.354492188 l 1
 372.36328125 374.354492188 l 1
 372.36328125 467.446289062 l 1x26
745.099609375 188.172851562 m 1x45
 838.00390625 188.172851562 l 1
 930.909179688 188.172851562 l 1
 930.909179688 2.177734375 l 1
 930.909179688 -183.818359375 l 1
 838.00390625 -183.818359375 l 1
 745.099609375 -183.818359375 l 1
 745.099609375 2.177734375 l 1x4480
 745.099609375 188.172851562 l 1x45
EndSplineSet
EndChar

StartChar: LATIN
Encoding: 82 82 50
Width: 1117
VWidth: 80
Flags: HW
HStem: 2.36328 21G<0 186.182 745.1 930.909> 746.719 186.182<186.182 558.918> 1285.64 20G<745.1 930.909> 1305.64 186.182<186.182 745.1>
VStem: 0 186.182<2.36328 746.719 932.9 1305.64> 558.918 186.182<560.537 746.719> 745.1 185.81<2.36328 560.537 932.9 1305.64>
LayerCount: 2
Fore
SplineSet
0 747.090820312 m 1xec
 0 1491.81835938 l 1
 372.549804688 1491.81835938 l 1
 745.099609375 1491.81835938 l 1xda
 745.099609375 1398.72753906 l 1
 745.099609375 1305.63671875 l 1xea
 465.640625 1305.63671875 l 1
 186.181640625 1305.63671875 l 1xda
 186.181640625 1119.26855469 l 1
 186.181640625 932.900390625 l 1
 465.640625 932.900390625 l 1
 745.099609375 932.900390625 l 1
 745.099609375 1119.26855469 l 1
 745.099609375 1305.63671875 l 1
 838.00390625 1305.63671875 l 1
 930.909179688 1305.63671875 l 1
 930.909179688 1119.26855469 l 1
 930.909179688 932.900390625 l 1
 838.00390625 932.900390625 l 1
 745.099609375 932.900390625 l 1xea
 745.099609375 746.71875 l 1
 745.099609375 560.537109375 l 1
 652.008789062 560.537109375 l 1
 558.91796875 560.537109375 l 1
 558.91796875 653.627929688 l 1
 558.91796875 746.71875 l 1
 372.549804688 746.71875 l 1
 186.181640625 746.71875 l 1
 186.181640625 374.541015625 l 1
 186.181640625 2.36328125 l 1
 93.0908203125 2.36328125 l 1
 0 2.36328125 l 1
 0 747.090820312 l 1xec
745.099609375 560.537109375 m 1xcc
 838.00390625 560.537109375 l 1
 930.909179688 560.537109375 l 1
 930.909179688 281.450195312 l 1
 930.909179688 2.36328125 l 1
 838.00390625 2.36328125 l 1
 745.099609375 2.36328125 l 1
 745.099609375 281.450195312 l 1xca
 745.099609375 560.537109375 l 1xcc
EndSplineSet
EndChar

StartChar: LATIN
Encoding: 83 83 51
Width: 1117
VWidth: 80
Flags: HW
HStem: 2.36328 185.81<186.182 745.1> 188.173 186.182<0 186.182> 746.719 186.182<186.182 745.1> 1119.45 186.183<745.1 930.909> 1305.64 186.182<186.182 745.1>
VStem: 0 186.182<188.173 374.354 932.9 1305.64> 186.182 558.918<2.36328 188.173 746.719 932.9 1305.64 1491.82> 745.1 185.81<188.173 746.719 1119.45 1305.64>
LayerCount: 2
Fore
SplineSet
186.181640625 1398.72753906 m 1x2a
 186.181640625 1491.81835938 l 1
 465.640625 1491.81835938 l 1
 745.099609375 1491.81835938 l 1x2a
 745.099609375 1398.72753906 l 1
 745.099609375 1305.63671875 l 1x32
 465.640625 1305.63671875 l 1
 186.181640625 1305.63671875 l 1x2c
 186.181640625 1398.72753906 l 1x2a
186.181640625 188.172851562 m 1xa4
 465.640625 188.172851562 l 1
 745.099609375 188.172851562 l 1xa2
 745.099609375 467.446289062 l 1xa1
 745.099609375 746.71875 l 1
 465.640625 746.71875 l 1
 186.181640625 746.71875 l 1
 186.181640625 839.809570312 l 1xa2
 186.181640625 932.900390625 l 1
 93.0908203125 932.900390625 l 1
 0 932.900390625 l 1
 0 1119.26855469 l 1
 0 1305.63671875 l 1
 93.0908203125 1305.63671875 l 1
 186.181640625 1305.63671875 l 1
 186.181640625 1119.26855469 l 1
 186.181640625 932.900390625 l 1xac
 465.640625 932.900390625 l 1
 745.099609375 932.900390625 l 1
 745.099609375 839.809570312 l 1
 745.099609375 746.71875 l 1xaa
 838.00390625 746.71875 l 1
 930.909179688 746.71875 l 1
 930.909179688 467.446289062 l 1
 930.909179688 188.172851562 l 1
 838.00390625 188.172851562 l 1x69
 745.099609375 188.172851562 l 1
 745.099609375 95.2685546875 l 1
 745.099609375 2.36328125 l 1
 465.640625 2.36328125 l 1
 186.181640625 2.36328125 l 1
 186.181640625 95.2685546875 l 1xa2
 186.181640625 188.172851562 l 1xa4
186.181640625 188.172851562 m 1xa4
 93.0908203125 188.172851562 l 1
 0 188.172851562 l 1
 0 281.263671875 l 1
 0 374.354492188 l 1
 93.0908203125 374.354492188 l 1
 186.181640625 374.354492188 l 1x64
 186.181640625 281.263671875 l 1
 186.181640625 188.172851562 l 1xa4
745.099609375 1305.63671875 m 1x32
 838.00390625 1305.63671875 l 1
 930.909179688 1305.63671875 l 1
 930.909179688 1212.54589844 l 1
 930.909179688 1119.45410156 l 1
 838.00390625 1119.45410156 l 1
 745.099609375 1119.45410156 l 1
 745.099609375 1212.54589844 l 1x31
 745.099609375 1305.63671875 l 1x32
EndSplineSet
EndChar

StartChar: LATIN
Encoding: 84 84 52
Width: 1117
VWidth: 80
Flags: HW
HStem: 2.36328 21G<372.363 558.918> 1305.64 186.182<0 372.363 558.918 930.909>
VStem: 372.363 186.555<2.36328 1305.64>
LayerCount: 2
Fore
SplineSet
0 1398.72753906 m 1
 0 1491.81835938 l 1
 465.454101562 1491.81835938 l 1
 930.909179688 1491.81835938 l 1
 930.909179688 1398.72753906 l 1
 930.909179688 1305.63671875 l 1
 744.913085938 1305.63671875 l 1
 558.91796875 1305.63671875 l 1
 558.91796875 654 l 1
 558.91796875 2.36328125 l 1
 465.640625 2.36328125 l 1
 372.36328125 2.36328125 l 1
 372.36328125 654 l 1
 372.36328125 1305.63671875 l 1
 186.181640625 1305.63671875 l 1
 0 1305.63671875 l 1
 0 1398.72753906 l 1
EndSplineSet
EndChar

StartChar: LATIN
Encoding: 85 85 53
Width: 1117
VWidth: 80
Flags: HW
HStem: 2.36328 185.81<186.182 745.1> 1471.82 20G<0 186.182 745.1 930.909>
VStem: 0 186.182<188.173 1491.82> 745.1 185.81<188.173 1491.82>
LayerCount: 2
Fore
SplineSet
0 839.99609375 m 1
 0 1491.81835938 l 1
 93.0908203125 1491.81835938 l 1
 186.181640625 1491.81835938 l 1
 186.181640625 839.99609375 l 1
 186.181640625 188.172851562 l 1
 93.0908203125 188.172851562 l 1
 0 188.172851562 l 1
 0 839.99609375 l 1
745.099609375 188.172851562 m 1
 745.099609375 95.2685546875 l 1
 745.099609375 2.36328125 l 1
 465.640625 2.36328125 l 1
 186.181640625 2.36328125 l 1
 186.181640625 95.2685546875 l 1
 186.181640625 188.172851562 l 1
 465.640625 188.172851562 l 1
 745.099609375 188.172851562 l 1
745.099609375 188.172851562 m 1
 745.099609375 839.99609375 l 1
 745.099609375 1491.81835938 l 1
 838.00390625 1491.81835938 l 1
 930.909179688 1491.81835938 l 1
 930.909179688 839.99609375 l 1
 930.909179688 188.172851562 l 1
 838.00390625 188.172851562 l 1
 745.099609375 188.172851562 l 1
EndSplineSet
EndChar

StartChar: LATIN
Encoding: 86 86 54
Width: 1117
VWidth: 80
Flags: HW
HStem: 2.36328 21G<372.363 558.918> 374.354 372.364<186.182 372.363 558.918 745.1> 1471.82 20G<0 186.182 745.1 930.909>
VStem: 0 186.182<746.719 1491.82> 186.182 186.182<374.354 746.719> 372.363 186.555<2.36328 374.354> 558.918 186.182<374.354 746.719> 745.1 185.81<746.719 1491.82>
LayerCount: 2
Fore
SplineSet
0 1119.26855469 m 1xf0
 0 1491.81835938 l 1
 93.0908203125 1491.81835938 l 1
 186.181640625 1491.81835938 l 1
 186.181640625 1119.26855469 l 1
 186.181640625 746.71875 l 1
 93.0908203125 746.71875 l 1
 0 746.71875 l 1
 0 1119.26855469 l 1xf0
745.099609375 746.71875 m 1xe2
 745.099609375 560.537109375 l 1
 745.099609375 374.354492188 l 1xe2
 652.008789062 374.354492188 l 1
 558.91796875 374.354492188 l 1
 558.91796875 188.359375 l 1
 558.91796875 2.36328125 l 1
 465.640625 2.36328125 l 1
 372.36328125 2.36328125 l 1
 372.36328125 188.359375 l 1xe4
 372.36328125 374.354492188 l 1
 279.272460938 374.354492188 l 1
 186.181640625 374.354492188 l 1
 186.181640625 560.537109375 l 1xe8
 186.181640625 746.71875 l 1xf0
 279.272460938 746.71875 l 1
 372.36328125 746.71875 l 1
 372.36328125 560.537109375 l 1
 372.36328125 374.354492188 l 1xe8
 465.640625 374.354492188 l 1
 558.91796875 374.354492188 l 1xe4
 558.91796875 560.537109375 l 1
 558.91796875 746.71875 l 1
 652.008789062 746.71875 l 1
 745.099609375 746.71875 l 1xe2
745.099609375 746.71875 m 1
 745.099609375 1119.26855469 l 1
 745.099609375 1491.81835938 l 1
 838.00390625 1491.81835938 l 1
 930.909179688 1491.81835938 l 1
 930.909179688 1119.26855469 l 1
 930.909179688 746.71875 l 1xe1
 838.00390625 746.71875 l 1
 745.099609375 746.71875 l 1
EndSplineSet
EndChar

StartChar: LATIN
Encoding: 87 87 55
Width: 1117
VWidth: 80
Flags: HW
HStem: 2.36328 371.991<186.182 372.363 558.918 745.1> 912.9 20G<372.363 558.918> 1471.82 20G<0 186.182 745.1 930.909>
VStem: 0 186.182<374.354 1491.82> 186.182 186.182<2.36328 374.354> 372.363 186.555<374.354 932.9> 558.918 186.182<2.36328 374.354> 745.1 185.81<374.354 1491.82>
LayerCount: 2
Fore
SplineSet
0 933.086914062 m 1xf0
 0 1491.81835938 l 1
 93.0908203125 1491.81835938 l 1
 186.181640625 1491.81835938 l 1
 186.181640625 933.086914062 l 1
 186.181640625 374.354492188 l 1
 93.0908203125 374.354492188 l 1
 0 374.354492188 l 1
 0 933.086914062 l 1xf0
745.099609375 374.354492188 m 1xe2
 745.099609375 188.359375 l 1
 745.099609375 2.36328125 l 1
 652.008789062 2.36328125 l 1
 558.91796875 2.36328125 l 1
 558.91796875 188.359375 l 1xe2
 558.91796875 374.354492188 l 1xe4
 465.640625 374.354492188 l 1
 372.36328125 374.354492188 l 1
 372.36328125 188.359375 l 1
 372.36328125 2.36328125 l 1
 279.272460938 2.36328125 l 1
 186.181640625 2.36328125 l 1
 186.181640625 188.359375 l 1xe8
 186.181640625 374.354492188 l 1xf0
 279.272460938 374.354492188 l 1
 372.36328125 374.354492188 l 1xe8
 372.36328125 653.627929688 l 1
 372.36328125 932.900390625 l 1
 465.640625 932.900390625 l 1
 558.91796875 932.900390625 l 1
 558.91796875 653.627929688 l 1
 558.91796875 374.354492188 l 1xe4
 652.008789062 374.354492188 l 1
 745.099609375 374.354492188 l 1xe2
745.099609375 374.354492188 m 1
 745.099609375 933.086914062 l 1
 745.099609375 1491.81835938 l 1
 838.00390625 1491.81835938 l 1
 930.909179688 1491.81835938 l 1
 930.909179688 933.086914062 l 1
 930.909179688 374.354492188 l 1xe1
 838.00390625 374.354492188 l 1
 745.099609375 374.354492188 l 1
EndSplineSet
EndChar

StartChar: LATIN
Encoding: 88 88 56
Width: 1117
VWidth: 80
Flags: HW
HStem: 2.36328 558.174<0 186.182 745.1 930.909> 560.537 186.182<186.182 372.363 558.918 745.1> 746.719 186.182<372.363 558.918> 932.9 186.554<186.182 372.363 558.918 745.1> 1119.45 372.364<0 186.182 745.1 930.909>
VStem: 0 186.182<2.36328 560.537 1119.45 1491.82> 186.182 186.182<560.537 746.719 932.9 1119.45> 372.363 186.555<746.719 932.9> 558.918 186.182<560.537 746.719 932.9 1119.45> 745.1 185.81<2.36328 560.537 1119.45 1491.82>
LayerCount: 2
Fore
SplineSet
0 1305.63671875 m 1x0c
 0 1491.81835938 l 1
 93.0908203125 1491.81835938 l 1
 186.181640625 1491.81835938 l 1x0c
 186.181640625 1305.63671875 l 1
 186.181640625 1119.45410156 l 1x14
 93.0908203125 1119.45410156 l 1
 0 1119.45410156 l 1
 0 1305.63671875 l 1x0c
186.181640625 560.537109375 m 1x84
 186.181640625 653.627929688 l 1
 186.181640625 746.71875 l 1
 279.272460938 746.71875 l 1
 372.36328125 746.71875 l 1x42
 372.36328125 839.809570312 l 1x41
 372.36328125 932.900390625 l 1x22
 279.272460938 932.900390625 l 1
 186.181640625 932.900390625 l 1
 186.181640625 1026.17773438 l 1x12
 186.181640625 1119.45410156 l 1x14
 279.272460938 1119.45410156 l 1
 372.36328125 1119.45410156 l 1x12
 372.36328125 1026.17773438 l 1
 372.36328125 932.900390625 l 1x22
 465.640625 932.900390625 l 1
 558.91796875 932.900390625 l 1x21
 558.91796875 839.809570312 l 1
 558.91796875 746.71875 l 1x41
 465.640625 746.71875 l 1x21
 372.36328125 746.71875 l 1
 372.36328125 653.627929688 l 1
 372.36328125 560.537109375 l 1
 279.272460938 560.537109375 l 1x42
 186.181640625 560.537109375 l 1x84
186.181640625 560.537109375 m 1x84
 186.181640625 281.450195312 l 1
 186.181640625 2.36328125 l 1
 93.0908203125 2.36328125 l 1
 0 2.36328125 l 1
 0 281.450195312 l 1
 0 560.537109375 l 1
 93.0908203125 560.537109375 l 1
 186.181640625 560.537109375 l 1x84
745.099609375 560.537109375 m 1x8080
 652.008789062 560.537109375 l 1
 558.91796875 560.537109375 l 1
 558.91796875 653.627929688 l 1x4080
 558.91796875 746.71875 l 1x41
 652.008789062 746.71875 l 1
 745.099609375 746.71875 l 1x4080
 745.099609375 653.627929688 l 1
 745.099609375 560.537109375 l 1x8080
745.099609375 560.537109375 m 1x8080
 838.00390625 560.537109375 l 1
 930.909179688 560.537109375 l 1
 930.909179688 281.450195312 l 1
 930.909179688 2.36328125 l 1
 838.00390625 2.36328125 l 1
 745.099609375 2.36328125 l 1
 745.099609375 281.450195312 l 1x8040
 745.099609375 560.537109375 l 1x8080
745.099609375 1119.45410156 m 1x1080
 745.099609375 1026.17773438 l 1
 745.099609375 932.900390625 l 1
 652.008789062 932.900390625 l 1x1080
 558.91796875 932.900390625 l 1x21
 558.91796875 1026.17773438 l 1
 558.91796875 1119.45410156 l 1
 652.008789062 1119.45410156 l 1
 745.099609375 1119.45410156 l 1x1080
745.099609375 1119.45410156 m 1
 745.099609375 1305.63671875 l 1
 745.099609375 1491.81835938 l 1
 838.00390625 1491.81835938 l 1
 930.909179688 1491.81835938 l 1
 930.909179688 1305.63671875 l 1
 930.909179688 1119.45410156 l 1
 838.00390625 1119.45410156 l 1x0840
 745.099609375 1119.45410156 l 1
EndSplineSet
EndChar

StartChar: LATIN
Encoding: 89 89 57
Width: 1117
VWidth: 80
Flags: HW
HStem: 2.36328 21G<372.363 558.918> 932.9 186.554<186.182 372.363 558.918 745.1> 1119.45 372.364<0 186.182 745.1 930.909>
VStem: 0 186.182<1119.45 1491.82> 186.182 186.182<932.9 1119.45> 372.363 186.555<2.36328 932.9> 558.918 186.182<932.9 1119.45> 745.1 185.81<1119.45 1491.82>
LayerCount: 2
Fore
SplineSet
0 1305.63671875 m 1xb0
 0 1491.81835938 l 1
 93.0908203125 1491.81835938 l 1
 186.181640625 1491.81835938 l 1xb0
 186.181640625 1305.63671875 l 1
 186.181640625 1119.45410156 l 1xd0
 93.0908203125 1119.45410156 l 1
 0 1119.45410156 l 1
 0 1305.63671875 l 1xb0
745.099609375 1119.45410156 m 1xc2
 745.099609375 1026.17773438 l 1
 745.099609375 932.900390625 l 1xc2
 652.008789062 932.900390625 l 1
 558.91796875 932.900390625 l 1
 558.91796875 467.631835938 l 1
 558.91796875 2.36328125 l 1
 465.640625 2.36328125 l 1
 372.36328125 2.36328125 l 1
 372.36328125 467.631835938 l 1xc4
 372.36328125 932.900390625 l 1
 279.272460938 932.900390625 l 1
 186.181640625 932.900390625 l 1
 186.181640625 1026.17773438 l 1xc8
 186.181640625 1119.45410156 l 1xd0
 279.272460938 1119.45410156 l 1
 372.36328125 1119.45410156 l 1
 372.36328125 1026.17773438 l 1
 372.36328125 932.900390625 l 1xc8
 465.640625 932.900390625 l 1
 558.91796875 932.900390625 l 1xc4
 558.91796875 1026.17773438 l 1
 558.91796875 1119.45410156 l 1
 652.008789062 1119.45410156 l 1
 745.099609375 1119.45410156 l 1xc2
745.099609375 1119.45410156 m 1
 745.099609375 1305.63671875 l 1
 745.099609375 1491.81835938 l 1
 838.00390625 1491.81835938 l 1
 930.909179688 1491.81835938 l 1
 930.909179688 1305.63671875 l 1
 930.909179688 1119.45410156 l 1
 838.00390625 1119.45410156 l 1xa1
 745.099609375 1119.45410156 l 1
EndSplineSet
EndChar

StartChar: LATIN
Encoding: 90 90 58
Width: 1117
VWidth: 80
Flags: HW
HStem: 2.36328 185.81<186.182 930.909> 560.537 186.182<186.182 372.363> 746.719 186.182<372.363 558.918> 932.9 186.554<558.918 745.1> 1305.64 186.182<0 745.1>
VStem: 0 186.182<188.173 560.537> 186.182 186.182<560.537 746.719> 372.363 186.555<746.719 932.9> 558.918 186.182<932.9 1119.45> 745.1 185.81<1119.45 1305.64>
LayerCount: 2
Fore
SplineSet
0 1398.72753906 m 1x9c40
 0 1491.81835938 l 1
 465.454101562 1491.81835938 l 1
 930.909179688 1491.81835938 l 1
 930.909179688 1305.63671875 l 1
 930.909179688 1119.45410156 l 1x9c40
 838.00390625 1119.45410156 l 1
 745.099609375 1119.45410156 l 1x9880
 745.099609375 1212.54589844 l 1
 745.099609375 1305.63671875 l 1
 372.549804688 1305.63671875 l 1
 0 1305.63671875 l 1
 0 1398.72753906 l 1x9c40
186.181640625 560.537109375 m 1xcc
 186.181640625 653.627929688 l 1
 186.181640625 746.71875 l 1
 279.272460938 746.71875 l 1
 372.36328125 746.71875 l 1xca
 372.36328125 839.809570312 l 1
 372.36328125 932.900390625 l 1
 465.640625 932.900390625 l 1
 558.91796875 932.900390625 l 1xa9
 558.91796875 1026.17773438 l 1
 558.91796875 1119.45410156 l 1
 652.008789062 1119.45410156 l 1
 745.099609375 1119.45410156 l 1
 745.099609375 1026.17773438 l 1
 745.099609375 932.900390625 l 1
 652.008789062 932.900390625 l 1x9880
 558.91796875 932.900390625 l 1
 558.91796875 839.809570312 l 1
 558.91796875 746.71875 l 1
 465.640625 746.71875 l 1xa9
 372.36328125 746.71875 l 1
 372.36328125 653.627929688 l 1
 372.36328125 560.537109375 l 1xca
 279.272460938 560.537109375 l 1
 186.181640625 560.537109375 l 1xcc
186.181640625 560.537109375 m 1xcc40
 186.181640625 374.354492188 l 1
 186.181640625 188.172851562 l 1
 558.545898438 188.172851562 l 1
 930.909179688 188.172851562 l 1
 930.909179688 95.2685546875 l 1
 930.909179688 2.36328125 l 1
 465.454101562 2.36328125 l 1
 0 2.36328125 l 1
 0 281.450195312 l 1
 0 560.537109375 l 1
 93.0908203125 560.537109375 l 1
 186.181640625 560.537109375 l 1xcc40
EndSplineSet
EndChar

StartChar: LEFT
Encoding: 91 91 59
Width: 1117
VWidth: 80
Flags: HW
HStem: -183.818 185.81<558.546 930.909> 1305.64 186.182<558.546 930.909>
VStem: 372.363 558.546<-183.818 1.99121 1305.64 1491.82> 372.363 186.183<1.99121 1305.64>
LayerCount: 2
Fore
SplineSet
372.36328125 654 m 1xd0
 372.36328125 1491.81835938 l 1
 651.63671875 1491.81835938 l 1
 930.909179688 1491.81835938 l 1
 930.909179688 1398.72753906 l 1
 930.909179688 1305.63671875 l 1xe0
 744.727539062 1305.63671875 l 1
 558.545898438 1305.63671875 l 1
 558.545898438 653.813476562 l 1
 558.545898438 1.9912109375 l 1xd0
 744.727539062 1.9912109375 l 1
 930.909179688 1.9912109375 l 1
 930.909179688 -90.9130859375 l 1
 930.909179688 -183.818359375 l 1
 651.63671875 -183.818359375 l 1
 372.36328125 -183.818359375 l 1xe0
 372.36328125 654 l 1xd0
EndSplineSet
EndChar

StartChar: REVERSE
Encoding: 92 92 60
Width: 1117
VWidth: 80
Flags: HW
HStem: -370 21G<931.281 1117.09> -18.0088 20G<931.281 1117.09> 1.99121 21G<745.1 931.281> 1471.82 20G<186.182 372.363>
VStem: 186.182 186.182<1119.45 1491.82> 372.363 186.183<746.719 1119.45> 558.546 186.554<374.354 746.719> 745.1 186.182<1.99121 374.354> 931.281 185.81<-370 1.99121>
LayerCount: 2
Fore
SplineSet
186.181640625 1305.63671875 m 1x98
 186.181640625 1491.81835938 l 1
 279.272460938 1491.81835938 l 1
 372.36328125 1491.81835938 l 1
 372.36328125 1305.63671875 l 1
 372.36328125 1119.45410156 l 1
 279.272460938 1119.45410156 l 1
 186.181640625 1119.45410156 l 1
 186.181640625 1305.63671875 l 1x98
931.28125 1.9912109375 m 1xd1
 838.190429688 1.9912109375 l 1
 745.099609375 1.9912109375 l 1
 745.099609375 188.172851562 l 1xb1
 745.099609375 374.354492188 l 1
 651.822265625 374.354492188 l 1
 558.545898438 374.354492188 l 1
 558.545898438 560.537109375 l 1xb2
 558.545898438 746.71875 l 1
 465.454101562 746.71875 l 1
 372.36328125 746.71875 l 1
 372.36328125 933.086914062 l 1xb4
 372.36328125 1119.45410156 l 1xb8
 465.454101562 1119.45410156 l 1
 558.545898438 1119.45410156 l 1
 558.545898438 933.086914062 l 1
 558.545898438 746.71875 l 1xb4
 651.822265625 746.71875 l 1
 745.099609375 746.71875 l 1
 745.099609375 560.537109375 l 1
 745.099609375 374.354492188 l 1xb2
 838.190429688 374.354492188 l 1
 931.28125 374.354492188 l 1
 931.28125 188.172851562 l 1
 931.28125 1.9912109375 l 1xd1
931.28125 1.9912109375 m 1xd1
 1024.18652344 1.9912109375 l 1
 1117.09082031 1.9912109375 l 1
 1117.09082031 -184.00390625 l 1
 1117.09082031 -370 l 1
 1024.18652344 -370 l 1
 931.28125 -370 l 1
 931.28125 -184.00390625 l 1xd080
 931.28125 1.9912109375 l 1xd1
EndSplineSet
EndChar

StartChar: RIGHT
Encoding: 93 93 61
Width: 1117
VWidth: 80
Flags: HW
HStem: -183.818 185.81<0 372.363> 1305.64 186.182<0 372.363>
VStem: 0 558.546<-183.818 1.99121 1305.64 1491.82> 372.363 186.183<1.99121 1305.64>
LayerCount: 2
Fore
SplineSet
0 1398.72753906 m 1xe0
 0 1491.81835938 l 1
 279.272460938 1491.81835938 l 1
 558.545898438 1491.81835938 l 1xe0
 558.545898438 654 l 1xd0
 558.545898438 -183.818359375 l 1
 279.272460938 -183.818359375 l 1
 0 -183.818359375 l 1
 0 -90.9130859375 l 1
 0 1.9912109375 l 1xe0
 186.181640625 1.9912109375 l 1
 372.36328125 1.9912109375 l 1
 372.36328125 653.813476562 l 1
 372.36328125 1305.63671875 l 1xd0
 186.181640625 1305.63671875 l 1
 0 1305.63671875 l 1
 0 1398.72753906 l 1xe0
EndSplineSet
EndChar

StartChar: CIRCUMFLEX
Encoding: 94 94 62
Width: 1117
VWidth: 80
Flags: HW
HStem: 747.091 186.182<0 186.182 745.1 930.909> 933.272 186.182<186.182 372.363 558.918 745.1> 1119.45 186.183<372.363 558.918>
VStem: 0 186.182<747.091 933.272> 186.182 186.182<933.272 1119.45> 372.363 186.555<1119.45 1305.64> 558.918 186.182<933.272 1119.45> 745.1 185.81<747.091 933.272>
LayerCount: 2
Fore
SplineSet
372.36328125 1212.54589844 m 1x44
 372.36328125 1305.63671875 l 1
 465.640625 1305.63671875 l 1
 558.91796875 1305.63671875 l 1x24
 558.91796875 1212.54589844 l 1
 558.91796875 1119.45410156 l 1x44
 465.640625 1119.45410156 l 1x24
 372.36328125 1119.45410156 l 1x48
 372.36328125 1212.54589844 l 1x44
186.181640625 933.272460938 m 1x90
 186.181640625 1026.36328125 l 1
 186.181640625 1119.45410156 l 1
 279.272460938 1119.45410156 l 1
 372.36328125 1119.45410156 l 1
 372.36328125 1026.36328125 l 1
 372.36328125 933.272460938 l 1
 279.272460938 933.272460938 l 1x48
 186.181640625 933.272460938 l 1x90
186.181640625 933.272460938 m 1x90
 186.181640625 840.181640625 l 1
 186.181640625 747.090820312 l 1
 93.0908203125 747.090820312 l 1
 0 747.090820312 l 1
 0 840.181640625 l 1
 0 933.272460938 l 1
 93.0908203125 933.272460938 l 1
 186.181640625 933.272460938 l 1x90
745.099609375 933.272460938 m 1x82
 652.008789062 933.272460938 l 1
 558.91796875 933.272460938 l 1
 558.91796875 1026.36328125 l 1x42
 558.91796875 1119.45410156 l 1x44
 652.008789062 1119.45410156 l 1
 745.099609375 1119.45410156 l 1x42
 745.099609375 1026.36328125 l 1
 745.099609375 933.272460938 l 1x82
745.099609375 933.272460938 m 1x82
 838.00390625 933.272460938 l 1
 930.909179688 933.272460938 l 1
 930.909179688 840.181640625 l 1
 930.909179688 747.090820312 l 1
 838.00390625 747.090820312 l 1
 745.099609375 747.090820312 l 1
 745.099609375 840.181640625 l 1x81
 745.099609375 933.272460938 l 1x82
EndSplineSet
EndChar

StartChar: LOW
Encoding: 95 95 63
Width: 1117
VWidth: 80
Flags: HW
HStem: -183.818 186.182<0 1117.09>
LayerCount: 2
Fore
SplineSet
0 -90.7275390625 m 1
 0 2.36328125 l 1
 558.545898438 2.36328125 l 1
 1117.09082031 2.36328125 l 1
 1117.09082031 -90.7275390625 l 1
 1117.09082031 -183.818359375 l 1
 558.545898438 -183.818359375 l 1
 0 -183.818359375 l 1
 0 -90.7275390625 l 1
EndSplineSet
EndChar

StartChar: GRAVE
Encoding: 96 96 64
Width: 1117
VWidth: 80
Flags: HW
HStem: 933.272 186.182<558.546 744.728> 1119.45 186.183<372.363 558.546> 1305.64 186.182<186.182 372.363>
VStem: 186.182 186.182<1305.64 1491.82> 372.363 186.183<1119.45 1305.64> 558.546 186.182<933.272 1119.45>
LayerCount: 2
Fore
SplineSet
186.181640625 1398.72753906 m 1x30
 186.181640625 1491.81835938 l 1
 279.272460938 1491.81835938 l 1
 372.36328125 1491.81835938 l 1x30
 372.36328125 1398.72753906 l 1
 372.36328125 1305.63671875 l 1x50
 279.272460938 1305.63671875 l 1
 186.181640625 1305.63671875 l 1
 186.181640625 1398.72753906 l 1x30
558.545898438 1119.45410156 m 1x88
 465.454101562 1119.45410156 l 1
 372.36328125 1119.45410156 l 1
 372.36328125 1212.54589844 l 1x48
 372.36328125 1305.63671875 l 1x50
 465.454101562 1305.63671875 l 1
 558.545898438 1305.63671875 l 1x48
 558.545898438 1212.54589844 l 1
 558.545898438 1119.45410156 l 1x88
558.545898438 1119.45410156 m 1x88
 651.63671875 1119.45410156 l 1
 744.727539062 1119.45410156 l 1
 744.727539062 1026.36328125 l 1
 744.727539062 933.272460938 l 1
 651.63671875 933.272460938 l 1
 558.545898438 933.272460938 l 1
 558.545898438 1026.36328125 l 1x84
 558.545898438 1119.45410156 l 1x88
EndSplineSet
EndChar

StartChar: LATIN
Encoding: 97 97 65
Width: 1117
VWidth: 80
Flags: HW
HStem: 2.36328 185.81<186.182 745.1> 188.173 186.182<0 186.182> 374.354 186.555<186.182 745.1> 747.091 186.182<186.182 745.1>
VStem: 0 186.182<188.173 374.354> 745.1 185.81<188.173 374.354 560.909 747.091>
LayerCount: 2
Fore
SplineSet
745.099609375 281.263671875 m 1x9c
 745.099609375 374.354492188 l 1
 465.640625 374.354492188 l 1xbc
 186.181640625 374.354492188 l 1x5c
 186.181640625 281.263671875 l 1
 186.181640625 188.172851562 l 1
 465.640625 188.172851562 l 1
 745.099609375 188.172851562 l 1
 745.099609375 281.263671875 l 1x9c
186.181640625 840.181640625 m 1
 186.181640625 933.272460938 l 1
 465.640625 933.272460938 l 1
 745.099609375 933.272460938 l 1
 745.099609375 840.181640625 l 1
 745.099609375 747.090820312 l 1
 465.640625 747.090820312 l 1
 186.181640625 747.090820312 l 1
 186.181640625 840.181640625 l 1
186.181640625 374.354492188 m 1x5c
 186.181640625 467.631835938 l 1
 186.181640625 560.909179688 l 1
 465.640625 560.909179688 l 1
 745.099609375 560.909179688 l 1
 745.099609375 654 l 1
 745.099609375 747.090820312 l 1
 838.00390625 747.090820312 l 1
 930.909179688 747.090820312 l 1
 930.909179688 374.727539062 l 1
 930.909179688 2.36328125 l 1
 558.545898438 2.36328125 l 1
 186.181640625 2.36328125 l 1
 186.181640625 95.2685546875 l 1
 186.181640625 188.172851562 l 1xbc
 93.0908203125 188.172851562 l 1
 0 188.172851562 l 1
 0 281.263671875 l 1
 0 374.354492188 l 1
 93.0908203125 374.354492188 l 1
 186.181640625 374.354492188 l 1x5c
EndSplineSet
EndChar

StartChar: LATIN
Encoding: 98 98 66
Width: 1117
VWidth: 80
Flags: HW
HStem: 2.36328 185.81<186.182 745.1> 560.537 186.182<186.182 372.363> 746.719 186.182<372.363 745.1> 1471.82 20G<0 186.182>
VStem: 0 186.182<188.173 560.537 746.719 1491.82> 745.1 185.81<188.173 746.719>
LayerCount: 2
Fore
SplineSet
0 747.090820312 m 1xbc
 0 1491.81835938 l 1
 93.0908203125 1491.81835938 l 1
 186.181640625 1491.81835938 l 1
 186.181640625 1119.26855469 l 1
 186.181640625 746.71875 l 1
 279.272460938 746.71875 l 1
 372.36328125 746.71875 l 1
 372.36328125 653.627929688 l 1
 372.36328125 560.537109375 l 1
 279.272460938 560.537109375 l 1
 186.181640625 560.537109375 l 1xdc
 186.181640625 374.354492188 l 1
 186.181640625 188.172851562 l 1
 465.640625 188.172851562 l 1
 745.099609375 188.172851562 l 1
 745.099609375 467.446289062 l 1
 745.099609375 746.71875 l 1
 558.731445312 746.71875 l 1xbc
 372.36328125 746.71875 l 1xdc
 372.36328125 839.809570312 l 1
 372.36328125 932.900390625 l 1
 558.731445312 932.900390625 l 1
 745.099609375 932.900390625 l 1
 745.099609375 839.809570312 l 1
 745.099609375 746.71875 l 1
 838.00390625 746.71875 l 1
 930.909179688 746.71875 l 1
 930.909179688 467.446289062 l 1
 930.909179688 188.172851562 l 1
 838.00390625 188.172851562 l 1
 745.099609375 188.172851562 l 1
 745.099609375 95.2685546875 l 1
 745.099609375 2.36328125 l 1
 372.549804688 2.36328125 l 1
 0 2.36328125 l 1
 0 747.090820312 l 1xbc
EndSplineSet
EndChar

StartChar: LATIN
Encoding: 99 99 67
Width: 1117
VWidth: 80
Flags: HW
HStem: 2.36328 185.81<186.182 930.909> 747.091 186.182<186.182 930.909>
VStem: 0 186.182<188.173 747.091>
LayerCount: 2
Fore
SplineSet
186.181640625 840.181640625 m 1
 186.181640625 933.272460938 l 1
 558.545898438 933.272460938 l 1
 930.909179688 933.272460938 l 1
 930.909179688 840.181640625 l 1
 930.909179688 747.090820312 l 1
 558.545898438 747.090820312 l 1
 186.181640625 747.090820312 l 1
 186.181640625 840.181640625 l 1
186.181640625 188.172851562 m 1
 93.0908203125 188.172851562 l 1
 0 188.172851562 l 1
 0 467.631835938 l 1
 0 747.090820312 l 1
 93.0908203125 747.090820312 l 1
 186.181640625 747.090820312 l 1
 186.181640625 467.631835938 l 1
 186.181640625 188.172851562 l 1
186.181640625 188.172851562 m 1
 558.545898438 188.172851562 l 1
 930.909179688 188.172851562 l 1
 930.909179688 95.2685546875 l 1
 930.909179688 2.36328125 l 1
 558.545898438 2.36328125 l 1
 186.181640625 2.36328125 l 1
 186.181640625 95.2685546875 l 1
 186.181640625 188.172851562 l 1
EndSplineSet
EndChar

StartChar: LATIN
Encoding: 100 100 68
Width: 1117
VWidth: 80
Flags: HW
HStem: 2.36328 185.81<186.182 558.918> 188.173 186.182<558.918 745.1> 746.719 186.182<186.182 745.1> 1471.82 20G<745.1 930.909>
VStem: 0 186.182<188.173 746.719> 745.1 185.81<2.36328 188.173 374.354 746.719 932.9 1491.82>
LayerCount: 2
Fore
SplineSet
745.099609375 560.537109375 m 1x7c
 745.099609375 746.71875 l 1
 465.640625 746.71875 l 1
 186.181640625 746.71875 l 1
 186.181640625 467.446289062 l 1
 186.181640625 188.172851562 l 1
 372.549804688 188.172851562 l 1
 558.91796875 188.172851562 l 1xbc
 558.91796875 281.263671875 l 1
 558.91796875 374.354492188 l 1
 652.008789062 374.354492188 l 1
 745.099609375 374.354492188 l 1
 745.099609375 560.537109375 l 1x7c
745.099609375 1212.359375 m 1
 745.099609375 1491.81835938 l 1
 838.00390625 1491.81835938 l 1
 930.909179688 1491.81835938 l 1
 930.909179688 747.090820312 l 1
 930.909179688 2.36328125 l 1
 838.00390625 2.36328125 l 1
 745.099609375 2.36328125 l 1xbc
 745.099609375 95.2685546875 l 1
 745.099609375 188.172851562 l 1
 652.008789062 188.172851562 l 1x7c
 558.91796875 188.172851562 l 1
 558.91796875 95.2685546875 l 1
 558.91796875 2.36328125 l 1
 372.549804688 2.36328125 l 1
 186.181640625 2.36328125 l 1
 186.181640625 95.2685546875 l 1
 186.181640625 188.172851562 l 1xbc
 93.0908203125 188.172851562 l 1
 0 188.172851562 l 1x7c
 0 467.446289062 l 1
 0 746.71875 l 1
 93.0908203125 746.71875 l 1
 186.181640625 746.71875 l 1
 186.181640625 839.809570312 l 1
 186.181640625 932.900390625 l 1
 465.640625 932.900390625 l 1
 745.099609375 932.900390625 l 1
 745.099609375 1212.359375 l 1
EndSplineSet
EndChar

StartChar: LATIN
Encoding: 101 101 69
Width: 1117
VWidth: 80
Flags: HW
HStem: 2.36328 185.81<186.182 930.909> 374.354 186.555<186.182 745.1> 747.091 186.182<186.182 745.1>
VStem: 0 186.182<188.173 374.354 560.909 747.091> 745.1 185.81<560.909 747.091>
LayerCount: 2
Fore
SplineSet
186.181640625 840.181640625 m 1
 186.181640625 933.272460938 l 1
 465.640625 933.272460938 l 1
 745.099609375 933.272460938 l 1
 745.099609375 840.181640625 l 1
 745.099609375 747.090820312 l 1
 465.640625 747.090820312 l 1
 186.181640625 747.090820312 l 1
 186.181640625 654 l 1
 186.181640625 560.909179688 l 1
 465.640625 560.909179688 l 1
 745.099609375 560.909179688 l 1
 745.099609375 654 l 1
 745.099609375 747.090820312 l 1
 838.00390625 747.090820312 l 1
 930.909179688 747.090820312 l 1
 930.909179688 560.72265625 l 1
 930.909179688 374.354492188 l 1
 558.545898438 374.354492188 l 1
 186.181640625 374.354492188 l 1
 186.181640625 281.263671875 l 1
 186.181640625 188.172851562 l 1
 93.0908203125 188.172851562 l 1
 0 188.172851562 l 1
 0 467.631835938 l 1
 0 747.090820312 l 1
 93.0908203125 747.090820312 l 1
 186.181640625 747.090820312 l 1
 186.181640625 840.181640625 l 1
186.181640625 188.172851562 m 1
 558.545898438 188.172851562 l 1
 930.909179688 188.172851562 l 1
 930.909179688 95.2685546875 l 1
 930.909179688 2.36328125 l 1
 558.545898438 2.36328125 l 1
 186.181640625 2.36328125 l 1
 186.181640625 95.2685546875 l 1
 186.181640625 188.172851562 l 1
EndSplineSet
EndChar

StartChar: LATIN
Encoding: 102 102 70
Width: 1117
VWidth: 80
Flags: HW
HStem: 2.36328 21G<186.182 372.363> 746.719 186.182<372.363 744.728> 1285.64 20G<186.182 372.363> 1305.64 186.182<372.363 744.728>
VStem: 186.182 186.182<2.36328 746.719 932.9 1305.64>
LayerCount: 2
Fore
SplineSet
372.36328125 1398.72753906 m 1xe8
 372.36328125 1491.81835938 l 1
 558.545898438 1491.81835938 l 1
 744.727539062 1491.81835938 l 1
 744.727539062 1398.72753906 l 1
 744.727539062 1305.63671875 l 1
 558.545898438 1305.63671875 l 1xd8
 372.36328125 1305.63671875 l 1
 372.36328125 1398.72753906 l 1xe8
372.36328125 1305.63671875 m 1xe8
 372.36328125 1119.26855469 l 1
 372.36328125 932.900390625 l 1
 558.545898438 932.900390625 l 1
 744.727539062 932.900390625 l 1
 744.727539062 839.809570312 l 1
 744.727539062 746.71875 l 1
 558.545898438 746.71875 l 1
 372.36328125 746.71875 l 1
 372.36328125 374.541015625 l 1
 372.36328125 2.36328125 l 1
 279.272460938 2.36328125 l 1
 186.181640625 2.36328125 l 1
 186.181640625 654 l 1
 186.181640625 1305.63671875 l 1
 279.272460938 1305.63671875 l 1
 372.36328125 1305.63671875 l 1xe8
EndSplineSet
EndChar

StartChar: LATIN
Encoding: 103 103 71
Width: 1117
VWidth: 80
Flags: HW
HStem: -370 185.81<186.182 745.1> 1.99121 186.182<186.182 558.918> 188.173 186.182<558.918 745.1> 747.091 186.182<186.182 745.1>
VStem: 0 186.182<188.173 747.091> 745.1 185.81<-184.19 188.173 374.354 747.091>
LayerCount: 2
Fore
SplineSet
745.099609375 560.72265625 m 1xbc
 745.099609375 747.090820312 l 1
 465.640625 747.090820312 l 1
 186.181640625 747.090820312 l 1
 186.181640625 467.631835938 l 1
 186.181640625 188.172851562 l 1
 372.549804688 188.172851562 l 1
 558.91796875 188.172851562 l 1xdc
 558.91796875 281.263671875 l 1
 558.91796875 374.354492188 l 1
 652.008789062 374.354492188 l 1
 745.099609375 374.354492188 l 1
 745.099609375 560.72265625 l 1xbc
186.181640625 840.181640625 m 1
 186.181640625 933.272460938 l 1
 558.545898438 933.272460938 l 1
 930.909179688 933.272460938 l 1
 930.909179688 374.541015625 l 1
 930.909179688 -184.190429688 l 1
 838.00390625 -184.190429688 l 1
 745.099609375 -184.190429688 l 1
 745.099609375 1.9912109375 l 1xdc
 745.099609375 188.172851562 l 1
 652.008789062 188.172851562 l 1xbc
 558.91796875 188.172851562 l 1
 558.91796875 95.08203125 l 1
 558.91796875 1.9912109375 l 1
 372.549804688 1.9912109375 l 1
 186.181640625 1.9912109375 l 1
 186.181640625 95.08203125 l 1
 186.181640625 188.172851562 l 1xdc
 93.0908203125 188.172851562 l 1
 0 188.172851562 l 1xbc
 0 467.631835938 l 1
 0 747.090820312 l 1
 93.0908203125 747.090820312 l 1
 186.181640625 747.090820312 l 1
 186.181640625 840.181640625 l 1
745.099609375 -184.190429688 m 1
 745.099609375 -277.095703125 l 1
 745.099609375 -370 l 1
 465.640625 -370 l 1
 186.181640625 -370 l 1
 186.181640625 -277.095703125 l 1
 186.181640625 -184.190429688 l 1
 465.640625 -184.190429688 l 1
 745.099609375 -184.190429688 l 1
EndSplineSet
EndChar

StartChar: LATIN
Encoding: 104 104 72
Width: 1117
VWidth: 80
Flags: HW
HStem: 2.36328 21G<0 186.182 745.1 930.909> 560.537 186.182<186.182 372.363> 746.719 186.182<372.363 745.1> 1471.82 20G<0 186.182>
VStem: 0 186.182<2.36328 560.537 746.719 1491.82> 745.1 185.81<2.36328 746.719>
LayerCount: 2
Fore
SplineSet
0 747.090820312 m 1xdc
 0 1491.81835938 l 1
 93.0908203125 1491.81835938 l 1
 186.181640625 1491.81835938 l 1
 186.181640625 1119.26855469 l 1
 186.181640625 746.71875 l 1
 279.272460938 746.71875 l 1
 372.36328125 746.71875 l 1
 372.36328125 653.627929688 l 1
 372.36328125 560.537109375 l 1
 279.272460938 560.537109375 l 1
 186.181640625 560.537109375 l 1
 186.181640625 281.450195312 l 1
 186.181640625 2.36328125 l 1
 93.0908203125 2.36328125 l 1
 0 2.36328125 l 1
 0 747.090820312 l 1xdc
745.099609375 746.71875 m 1xbc
 558.731445312 746.71875 l 1xbc
 372.36328125 746.71875 l 1xdc
 372.36328125 839.809570312 l 1
 372.36328125 932.900390625 l 1
 558.731445312 932.900390625 l 1
 745.099609375 932.900390625 l 1
 745.099609375 839.809570312 l 1
 745.099609375 746.71875 l 1xbc
745.099609375 746.71875 m 1
 838.00390625 746.71875 l 1
 930.909179688 746.71875 l 1
 930.909179688 374.541015625 l 1
 930.909179688 2.36328125 l 1
 838.00390625 2.36328125 l 1
 745.099609375 2.36328125 l 1
 745.099609375 374.541015625 l 1
 745.099609375 746.71875 l 1
EndSplineSet
EndChar

StartChar: LATIN
Encoding: 105 105 73
Width: 1117
VWidth: 80
Flags: HW
HStem: 2.36328 185.81<558.546 744.728> 746.719 186.554<186.182 372.363> 1119.45 186.183<372.363 558.546>
VStem: 372.363 186.183<188.173 746.719 1119.45 1305.64>
LayerCount: 2
Fore
SplineSet
372.36328125 1212.54589844 m 1
 372.36328125 1305.63671875 l 1
 465.454101562 1305.63671875 l 1
 558.545898438 1305.63671875 l 1
 558.545898438 1212.54589844 l 1
 558.545898438 1119.45410156 l 1
 465.454101562 1119.45410156 l 1
 372.36328125 1119.45410156 l 1
 372.36328125 1212.54589844 l 1
186.181640625 839.99609375 m 1
 186.181640625 933.272460938 l 1
 372.36328125 933.272460938 l 1
 558.545898438 933.272460938 l 1
 558.545898438 560.72265625 l 1
 558.545898438 188.172851562 l 1
 651.63671875 188.172851562 l 1
 744.727539062 188.172851562 l 1
 744.727539062 95.2685546875 l 1
 744.727539062 2.36328125 l 1
 558.545898438 2.36328125 l 1
 372.36328125 2.36328125 l 1
 372.36328125 374.541015625 l 1
 372.36328125 746.71875 l 1
 279.272460938 746.71875 l 1
 186.181640625 746.71875 l 1
 186.181640625 839.99609375 l 1
EndSplineSet
EndChar

StartChar: LATIN
Encoding: 106 106 74
Width: 1117
VWidth: 80
Flags: HW
HStem: -370 185.81<0 372.363> 746.719 186.554<186.182 372.363> 1119.45 186.183<372.363 558.546>
VStem: 372.363 186.183<-184.19 746.719 1119.45 1305.64>
LayerCount: 2
Fore
SplineSet
372.36328125 1212.54589844 m 1
 372.36328125 1305.63671875 l 1
 465.454101562 1305.63671875 l 1
 558.545898438 1305.63671875 l 1
 558.545898438 1212.54589844 l 1
 558.545898438 1119.45410156 l 1
 465.454101562 1119.45410156 l 1
 372.36328125 1119.45410156 l 1
 372.36328125 1212.54589844 l 1
186.181640625 839.99609375 m 1
 186.181640625 933.272460938 l 1
 372.36328125 933.272460938 l 1
 558.545898438 933.272460938 l 1
 558.545898438 374.541015625 l 1
 558.545898438 -184.190429688 l 1
 465.454101562 -184.190429688 l 1
 372.36328125 -184.190429688 l 1
 372.36328125 281.263671875 l 1
 372.36328125 746.71875 l 1
 279.272460938 746.71875 l 1
 186.181640625 746.71875 l 1
 186.181640625 839.99609375 l 1
372.36328125 -184.190429688 m 1
 372.36328125 -277.095703125 l 1
 372.36328125 -370 l 1
 186.181640625 -370 l 1
 0 -370 l 1
 0 -277.095703125 l 1
 0 -184.190429688 l 1
 186.181640625 -184.190429688 l 1
 372.36328125 -184.190429688 l 1
EndSplineSet
EndChar

StartChar: LATIN
Encoding: 107 107 75
Width: 1117
VWidth: 80
Flags: HW
HStem: 2.36328 185.81<745.1 930.909> 188.173 186.182<558.918 745.1> 374.354 186.183<186.182 372.363> 746.719 186.182<558.918 745.1> 1471.82 20G<0 186.182>
VStem: 0 186.182<2.36328 374.354 560.537 1491.82> 372.363 186.555<560.537 746.719> 558.918 186.182<188.173 374.354 746.719 932.9> 745.1 185.81<2.36328 188.173>
LayerCount: 2
Fore
SplineSet
0 747.090820312 m 1xbd
 0 1491.81835938 l 1
 93.0908203125 1491.81835938 l 1
 186.181640625 1491.81835938 l 1
 186.181640625 1026.17773438 l 1
 186.181640625 560.537109375 l 1
 279.272460938 560.537109375 l 1
 372.36328125 560.537109375 l 1
 372.36328125 653.627929688 l 1
 372.36328125 746.71875 l 1
 465.640625 746.71875 l 1
 558.91796875 746.71875 l 1
 558.91796875 560.537109375 l 1xbe
 558.91796875 374.354492188 l 1x5d
 372.549804688 374.354492188 l 1
 186.181640625 374.354492188 l 1
 186.181640625 188.359375 l 1
 186.181640625 2.36328125 l 1
 93.0908203125 2.36328125 l 1
 0 2.36328125 l 1
 0 747.090820312 l 1xbd
745.099609375 188.172851562 m 1x9d
 652.008789062 188.172851562 l 1
 558.91796875 188.172851562 l 1
 558.91796875 281.263671875 l 1
 558.91796875 374.354492188 l 1
 652.008789062 374.354492188 l 1
 745.099609375 374.354492188 l 1x5d
 745.099609375 281.263671875 l 1
 745.099609375 188.172851562 l 1x9d
745.099609375 188.172851562 m 1x9d
 838.00390625 188.172851562 l 1
 930.909179688 188.172851562 l 1
 930.909179688 95.2685546875 l 1
 930.909179688 2.36328125 l 1
 838.00390625 2.36328125 l 1
 745.099609375 2.36328125 l 1
 745.099609375 95.2685546875 l 1x9c80
 745.099609375 188.172851562 l 1x9d
558.91796875 746.71875 m 1x1e
 558.91796875 839.809570312 l 1
 558.91796875 932.900390625 l 1
 652.008789062 932.900390625 l 1
 745.099609375 932.900390625 l 1
 745.099609375 839.809570312 l 1
 745.099609375 746.71875 l 1x1d
 652.008789062 746.71875 l 1
 558.91796875 746.71875 l 1x1e
EndSplineSet
EndChar

StartChar: LATIN
Encoding: 108 108 76
Width: 1117
VWidth: 80
Flags: HW
HStem: 2.36328 185.81<558.546 930.909> 1305.64 186.182<186.182 372.363>
VStem: 372.363 186.183<188.173 1305.64>
LayerCount: 2
Fore
SplineSet
186.181640625 1398.72753906 m 1
 186.181640625 1491.81835938 l 1
 372.36328125 1491.81835938 l 1
 558.545898438 1491.81835938 l 1
 558.545898438 839.99609375 l 1
 558.545898438 188.172851562 l 1
 465.454101562 188.172851562 l 1
 372.36328125 188.172851562 l 1
 372.36328125 746.904296875 l 1
 372.36328125 1305.63671875 l 1
 279.272460938 1305.63671875 l 1
 186.181640625 1305.63671875 l 1
 186.181640625 1398.72753906 l 1
558.545898438 188.172851562 m 1
 744.727539062 188.172851562 l 1
 930.909179688 188.172851562 l 1
 930.909179688 95.2685546875 l 1
 930.909179688 2.36328125 l 1
 744.727539062 2.36328125 l 1
 558.545898438 2.36328125 l 1
 558.545898438 95.2685546875 l 1
 558.545898438 188.172851562 l 1
EndSplineSet
EndChar

StartChar: LATIN
Encoding: 109 109 77
Width: 1117
VWidth: 80
Flags: HW
HStem: 2.36328 21G<0 186.182 372.363 558.918 745.1 930.909> 747.091 186.182<186.182 372.363 558.918 745.1>
VStem: 0 186.182<2.36328 747.091> 372.363 186.555<2.36328 747.091> 745.1 185.81<2.36328 747.091>
LayerCount: 2
Fore
SplineSet
0 467.818359375 m 1
 0 933.272460938 l 1
 372.549804688 933.272460938 l 1
 745.099609375 933.272460938 l 1
 745.099609375 840.181640625 l 1
 745.099609375 747.090820312 l 1
 652.008789062 747.090820312 l 1
 558.91796875 747.090820312 l 1
 558.91796875 374.727539062 l 1
 558.91796875 2.36328125 l 1
 465.640625 2.36328125 l 1
 372.36328125 2.36328125 l 1
 372.36328125 374.727539062 l 1
 372.36328125 747.090820312 l 1
 279.272460938 747.090820312 l 1
 186.181640625 747.090820312 l 1
 186.181640625 374.727539062 l 1
 186.181640625 2.36328125 l 1
 93.0908203125 2.36328125 l 1
 0 2.36328125 l 1
 0 467.818359375 l 1
745.099609375 747.090820312 m 1
 838.00390625 747.090820312 l 1
 930.909179688 747.090820312 l 1
 930.909179688 374.727539062 l 1
 930.909179688 2.36328125 l 1
 838.00390625 2.36328125 l 1
 745.099609375 2.36328125 l 1
 745.099609375 374.727539062 l 1
 745.099609375 747.090820312 l 1
EndSplineSet
EndChar

StartChar: LATIN
Encoding: 110 110 78
Width: 1117
VWidth: 80
Flags: HW
HStem: 2.36328 21G<0 186.182 745.1 930.909> 747.091 186.182<186.182 745.1>
VStem: 0 186.182<2.36328 747.091> 745.1 185.81<2.36328 747.091>
LayerCount: 2
Fore
SplineSet
0 467.818359375 m 1
 0 933.272460938 l 1
 372.549804688 933.272460938 l 1
 745.099609375 933.272460938 l 1
 745.099609375 840.181640625 l 1
 745.099609375 747.090820312 l 1
 465.640625 747.090820312 l 1
 186.181640625 747.090820312 l 1
 186.181640625 374.727539062 l 1
 186.181640625 2.36328125 l 1
 93.0908203125 2.36328125 l 1
 0 2.36328125 l 1
 0 467.818359375 l 1
745.099609375 747.090820312 m 1
 838.00390625 747.090820312 l 1
 930.909179688 747.090820312 l 1
 930.909179688 374.727539062 l 1
 930.909179688 2.36328125 l 1
 838.00390625 2.36328125 l 1
 745.099609375 2.36328125 l 1
 745.099609375 374.727539062 l 1
 745.099609375 747.090820312 l 1
EndSplineSet
EndChar

StartChar: LATIN
Encoding: 111 111 79
Width: 1117
VWidth: 80
Flags: HW
HStem: 2.36328 185.81<186.182 745.1> 188.173 558.918<0 186.182 745.1 930.909> 747.091 186.182<186.182 745.1>
VStem: 0 186.182<188.173 747.091> 186.182 558.918<2.36328 188.173 747.091 933.272> 745.1 185.81<188.173 747.091>
LayerCount: 2
Fore
SplineSet
186.181640625 840.181640625 m 1x48
 186.181640625 933.272460938 l 1
 465.640625 933.272460938 l 1
 745.099609375 933.272460938 l 1x28
 745.099609375 840.181640625 l 1
 745.099609375 747.090820312 l 1x48
 465.640625 747.090820312 l 1x28
 186.181640625 747.090820312 l 1x50
 186.181640625 467.631835938 l 1
 186.181640625 188.172851562 l 1x90
 465.640625 188.172851562 l 1
 745.099609375 188.172851562 l 1x88
 745.099609375 467.631835938 l 1x84
 745.099609375 747.090820312 l 1x48
 838.00390625 747.090820312 l 1
 930.909179688 747.090820312 l 1
 930.909179688 467.631835938 l 1
 930.909179688 188.172851562 l 1
 838.00390625 188.172851562 l 1x44
 745.099609375 188.172851562 l 1
 745.099609375 95.2685546875 l 1
 745.099609375 2.36328125 l 1
 465.640625 2.36328125 l 1
 186.181640625 2.36328125 l 1
 186.181640625 95.2685546875 l 1x88
 186.181640625 188.172851562 l 1x90
 93.0908203125 188.172851562 l 1
 0 188.172851562 l 1
 0 467.631835938 l 1
 0 747.090820312 l 1
 93.0908203125 747.090820312 l 1
 186.181640625 747.090820312 l 1x50
 186.181640625 840.181640625 l 1x48
EndSplineSet
EndChar

StartChar: LATIN
Encoding: 112 112 80
Width: 1117
VWidth: 80
Flags: HW
HStem: -370 21G<0 186.182> 1.99121 186.182<186.182 745.1> 560.909 186.182<186.182 372.363> 747.091 186.182<372.363 745.1>
VStem: 0 186.182<-370 1.99121 188.173 560.909 747.091 933.272> 745.1 185.81<188.173 747.091>
LayerCount: 2
Fore
SplineSet
0 281.63671875 m 1xdc
 0 933.272460938 l 1
 93.0908203125 933.272460938 l 1
 186.181640625 933.272460938 l 1xdc
 186.181640625 840.181640625 l 1
 186.181640625 747.090820312 l 1
 279.272460938 747.090820312 l 1
 372.36328125 747.090820312 l 1
 372.36328125 654 l 1
 372.36328125 560.909179688 l 1
 279.272460938 560.909179688 l 1
 186.181640625 560.909179688 l 1xec
 186.181640625 374.541015625 l 1
 186.181640625 188.172851562 l 1
 465.640625 188.172851562 l 1
 745.099609375 188.172851562 l 1
 745.099609375 467.631835938 l 1
 745.099609375 747.090820312 l 1
 558.731445312 747.090820312 l 1xdc
 372.36328125 747.090820312 l 1xec
 372.36328125 840.181640625 l 1
 372.36328125 933.272460938 l 1
 558.731445312 933.272460938 l 1
 745.099609375 933.272460938 l 1
 745.099609375 840.181640625 l 1
 745.099609375 747.090820312 l 1
 838.00390625 747.090820312 l 1
 930.909179688 747.090820312 l 1
 930.909179688 467.631835938 l 1
 930.909179688 188.172851562 l 1
 838.00390625 188.172851562 l 1
 745.099609375 188.172851562 l 1
 745.099609375 95.08203125 l 1
 745.099609375 1.9912109375 l 1
 465.640625 1.9912109375 l 1
 186.181640625 1.9912109375 l 1
 186.181640625 -184.00390625 l 1
 186.181640625 -370 l 1
 93.0908203125 -370 l 1
 0 -370 l 1
 0 281.63671875 l 1xdc
EndSplineSet
EndChar

StartChar: LATIN
Encoding: 113 113 81
Width: 1117
VWidth: 80
Flags: HW
HStem: -370 21G<745.1 930.909> 1.99121 186.182<186.182 558.918> 188.173 186.182<558.918 745.1> 747.091 186.182<186.182 745.1>
VStem: 0 186.182<188.173 747.091> 745.1 185.81<-370 188.173 374.354 747.091>
LayerCount: 2
Fore
SplineSet
745.099609375 560.72265625 m 1xbc
 745.099609375 747.090820312 l 1
 465.640625 747.090820312 l 1
 186.181640625 747.090820312 l 1
 186.181640625 467.631835938 l 1
 186.181640625 188.172851562 l 1
 372.549804688 188.172851562 l 1
 558.91796875 188.172851562 l 1xdc
 558.91796875 281.263671875 l 1
 558.91796875 374.354492188 l 1
 652.008789062 374.354492188 l 1
 745.099609375 374.354492188 l 1
 745.099609375 560.72265625 l 1xbc
186.181640625 840.181640625 m 1
 186.181640625 933.272460938 l 1
 558.545898438 933.272460938 l 1
 930.909179688 933.272460938 l 1
 930.909179688 281.63671875 l 1
 930.909179688 -370 l 1
 838.00390625 -370 l 1
 745.099609375 -370 l 1
 745.099609375 -90.9130859375 l 1
 745.099609375 188.172851562 l 1
 652.008789062 188.172851562 l 1xbc
 558.91796875 188.172851562 l 1
 558.91796875 95.08203125 l 1
 558.91796875 1.9912109375 l 1
 372.549804688 1.9912109375 l 1
 186.181640625 1.9912109375 l 1
 186.181640625 95.08203125 l 1
 186.181640625 188.172851562 l 1xdc
 93.0908203125 188.172851562 l 1
 0 188.172851562 l 1xbc
 0 467.631835938 l 1
 0 747.090820312 l 1
 93.0908203125 747.090820312 l 1
 186.181640625 747.090820312 l 1
 186.181640625 840.181640625 l 1
EndSplineSet
EndChar

StartChar: LATIN
Encoding: 114 114 82
Width: 1117
VWidth: 80
Flags: HW
HStem: 2.36328 21G<0 186.182> 560.909 186.182<186.182 372.363 745.1 930.909> 747.091 186.182<372.363 745.1>
VStem: 0 186.182<2.36328 560.909 747.091 933.272> 745.1 185.81<560.909 747.091>
LayerCount: 2
Fore
SplineSet
0 467.818359375 m 1xd8
 0 933.272460938 l 1
 93.0908203125 933.272460938 l 1
 186.181640625 933.272460938 l 1xb8
 186.181640625 840.181640625 l 1
 186.181640625 747.090820312 l 1
 279.272460938 747.090820312 l 1
 372.36328125 747.090820312 l 1
 372.36328125 654 l 1
 372.36328125 560.909179688 l 1
 279.272460938 560.909179688 l 1
 186.181640625 560.909179688 l 1
 186.181640625 281.63671875 l 1
 186.181640625 2.36328125 l 1
 93.0908203125 2.36328125 l 1
 0 2.36328125 l 1
 0 467.818359375 l 1xd8
745.099609375 747.090820312 m 1xd8
 558.731445312 747.090820312 l 1xb8
 372.36328125 747.090820312 l 1xd8
 372.36328125 840.181640625 l 1
 372.36328125 933.272460938 l 1
 558.731445312 933.272460938 l 1
 745.099609375 933.272460938 l 1xb8
 745.099609375 840.181640625 l 1
 745.099609375 747.090820312 l 1xd8
745.099609375 747.090820312 m 1xd8
 838.00390625 747.090820312 l 1
 930.909179688 747.090820312 l 1
 930.909179688 654 l 1
 930.909179688 560.909179688 l 1
 838.00390625 560.909179688 l 1
 745.099609375 560.909179688 l 1
 745.099609375 654 l 1
 745.099609375 747.090820312 l 1xd8
EndSplineSet
EndChar

StartChar: LATIN
Encoding: 115 115 83
Width: 1117
VWidth: 80
Flags: HW
HStem: 2.36328 185.81<0 745.1> 188.173 186.182<745.1 930.909> 374.354 186.555<186.182 745.1> 560.909 186.182<0 186.182> 747.091 186.182<186.182 745.1>
VStem: 0 186.182<560.909 747.091> 186.182 558.918<374.354 560.909 747.091 933.272> 745.1 185.81<188.173 374.354>
LayerCount: 2
Fore
SplineSet
186.181640625 840.181640625 m 1x12
 186.181640625 933.272460938 l 1
 465.640625 933.272460938 l 1
 745.099609375 933.272460938 l 1
 745.099609375 840.181640625 l 1
 745.099609375 747.090820312 l 1
 465.640625 747.090820312 l 1x0a
 186.181640625 747.090820312 l 1x14
 186.181640625 840.181640625 l 1x12
745.099609375 188.172851562 m 1x81
 745.099609375 281.263671875 l 1x81
 745.099609375 374.354492188 l 1x42
 465.640625 374.354492188 l 1
 186.181640625 374.354492188 l 1
 186.181640625 467.631835938 l 1x22
 186.181640625 560.909179688 l 1x24
 93.0908203125 560.909179688 l 1
 0 560.909179688 l 1
 0 654 l 1
 0 747.090820312 l 1
 93.0908203125 747.090820312 l 1
 186.181640625 747.090820312 l 1x14
 186.181640625 654 l 1
 186.181640625 560.909179688 l 1x24
 465.640625 560.909179688 l 1
 745.099609375 560.909179688 l 1x22
 745.099609375 467.631835938 l 1
 745.099609375 374.354492188 l 1x42
 838.00390625 374.354492188 l 1
 930.909179688 374.354492188 l 1
 930.909179688 281.263671875 l 1
 930.909179688 188.172851562 l 1
 838.00390625 188.172851562 l 1x41
 745.099609375 188.172851562 l 1x81
745.099609375 188.172851562 m 1
 745.099609375 95.2685546875 l 1
 745.099609375 2.36328125 l 1
 372.549804688 2.36328125 l 1
 0 2.36328125 l 1
 0 95.2685546875 l 1
 0 188.172851562 l 1x85
 372.549804688 188.172851562 l 1
 745.099609375 188.172851562 l 1
EndSplineSet
EndChar

StartChar: LATIN
Encoding: 116 116 84
Width: 1117
VWidth: 80
Flags: HW
HStem: 2.36328 185.81<372.363 744.728> 746.719 186.182<0 186.182 372.363 744.728> 1471.82 20G<186.182 372.363>
VStem: 186.182 186.182<188.173 746.719 932.9 1491.82>
LayerCount: 2
Fore
SplineSet
186.181640625 1212.359375 m 1
 186.181640625 1491.81835938 l 1
 279.272460938 1491.81835938 l 1
 372.36328125 1491.81835938 l 1
 372.36328125 1212.359375 l 1
 372.36328125 932.900390625 l 1
 558.545898438 932.900390625 l 1
 744.727539062 932.900390625 l 1
 744.727539062 839.809570312 l 1
 744.727539062 746.71875 l 1
 558.545898438 746.71875 l 1
 372.36328125 746.71875 l 1
 372.36328125 467.446289062 l 1
 372.36328125 188.172851562 l 1
 279.272460938 188.172851562 l 1
 186.181640625 188.172851562 l 1
 186.181640625 467.446289062 l 1
 186.181640625 746.71875 l 1
 93.0908203125 746.71875 l 1
 0 746.71875 l 1
 0 839.809570312 l 1
 0 932.900390625 l 1
 93.0908203125 932.900390625 l 1
 186.181640625 932.900390625 l 1
 186.181640625 1212.359375 l 1
372.36328125 188.172851562 m 1
 558.545898438 188.172851562 l 1
 744.727539062 188.172851562 l 1
 744.727539062 95.2685546875 l 1
 744.727539062 2.36328125 l 1
 558.545898438 2.36328125 l 1
 372.36328125 2.36328125 l 1
 372.36328125 95.2685546875 l 1
 372.36328125 188.172851562 l 1
EndSplineSet
EndChar

StartChar: LATIN
Encoding: 117 117 85
Width: 1117
VWidth: 80
Flags: HW
HStem: 2.36328 185.81<186.182 558.918> 188.173 186.182<558.918 745.1> 913.272 20G<0 186.182 745.1 930.909>
VStem: 0 186.182<188.173 933.272> 745.1 185.81<2.36328 188.173 374.354 933.272>
LayerCount: 2
Fore
SplineSet
0 560.72265625 m 1x78
 0 933.272460938 l 1
 93.0908203125 933.272460938 l 1
 186.181640625 933.272460938 l 1
 186.181640625 560.72265625 l 1
 186.181640625 188.172851562 l 1xb8
 93.0908203125 188.172851562 l 1
 0 188.172851562 l 1
 0 560.72265625 l 1x78
558.91796875 188.172851562 m 1
 558.91796875 95.2685546875 l 1
 558.91796875 2.36328125 l 1
 372.549804688 2.36328125 l 1
 186.181640625 2.36328125 l 1
 186.181640625 95.2685546875 l 1
 186.181640625 188.172851562 l 1
 372.549804688 188.172851562 l 1
 558.91796875 188.172851562 l 1
558.91796875 188.172851562 m 1
 558.91796875 281.263671875 l 1
 558.91796875 374.354492188 l 1
 652.008789062 374.354492188 l 1
 745.099609375 374.354492188 l 1x78
 745.099609375 653.813476562 l 1
 745.099609375 933.272460938 l 1
 838.00390625 933.272460938 l 1
 930.909179688 933.272460938 l 1
 930.909179688 467.818359375 l 1
 930.909179688 2.36328125 l 1
 838.00390625 2.36328125 l 1
 745.099609375 2.36328125 l 1xb8
 745.099609375 95.2685546875 l 1
 745.099609375 188.172851562 l 1
 652.008789062 188.172851562 l 1x78
 558.91796875 188.172851562 l 1
EndSplineSet
EndChar

StartChar: LATIN
Encoding: 118 118 86
Width: 1117
VWidth: 80
Flags: HW
HStem: 2.36328 185.81<372.363 558.918> 188.173 372.736<186.182 372.363 558.918 745.1> 560.909 372.363<0 186.182 745.1 930.909>
VStem: 0 186.182<560.909 933.272> 186.182 186.182<188.173 560.909> 372.363 186.555<2.36328 188.173> 558.918 186.182<188.173 560.909> 745.1 185.81<560.909 933.272>
LayerCount: 2
Fore
SplineSet
0 747.090820312 m 1x30
 0 933.272460938 l 1
 93.0908203125 933.272460938 l 1
 186.181640625 933.272460938 l 1x30
 186.181640625 747.090820312 l 1
 186.181640625 560.909179688 l 1x50
 93.0908203125 560.909179688 l 1
 0 560.909179688 l 1
 0 747.090820312 l 1x30
745.099609375 560.909179688 m 1x42
 745.099609375 374.541015625 l 1
 745.099609375 188.172851562 l 1
 652.008789062 188.172851562 l 1x42
 558.91796875 188.172851562 l 1
 558.91796875 95.2685546875 l 1
 558.91796875 2.36328125 l 1
 465.640625 2.36328125 l 1
 372.36328125 2.36328125 l 1
 372.36328125 95.2685546875 l 1x84
 372.36328125 188.172851562 l 1x88
 279.272460938 188.172851562 l 1
 186.181640625 188.172851562 l 1
 186.181640625 374.541015625 l 1x48
 186.181640625 560.909179688 l 1x50
 279.272460938 560.909179688 l 1
 372.36328125 560.909179688 l 1x48
 372.36328125 374.541015625 l 1
 372.36328125 188.172851562 l 1x88
 465.640625 188.172851562 l 1
 558.91796875 188.172851562 l 1x84
 558.91796875 374.541015625 l 1
 558.91796875 560.909179688 l 1
 652.008789062 560.909179688 l 1
 745.099609375 560.909179688 l 1x42
745.099609375 560.909179688 m 1
 745.099609375 747.090820312 l 1
 745.099609375 933.272460938 l 1
 838.00390625 933.272460938 l 1
 930.909179688 933.272460938 l 1
 930.909179688 747.090820312 l 1
 930.909179688 560.909179688 l 1
 838.00390625 560.909179688 l 1x21
 745.099609375 560.909179688 l 1
EndSplineSet
EndChar

StartChar: LATIN
Encoding: 119 119 87
Width: 1117
VWidth: 80
Flags: HW
HStem: 2.36328 185.81<186.182 372.363 558.918 745.1> 913.272 20G<0 186.182 745.1 930.909>
VStem: 0 186.182<188.173 933.272> 186.182 186.182<2.36328 188.173> 372.363 186.555<188.173 747.091> 558.918 186.182<2.36328 188.173> 745.1 185.81<188.173 933.272>
LayerCount: 2
Fore
SplineSet
0 560.72265625 m 1xe0
 0 933.272460938 l 1
 93.0908203125 933.272460938 l 1
 186.181640625 933.272460938 l 1
 186.181640625 560.72265625 l 1
 186.181640625 188.172851562 l 1
 93.0908203125 188.172851562 l 1
 0 188.172851562 l 1
 0 560.72265625 l 1xe0
745.099609375 188.172851562 m 1xc4
 745.099609375 95.2685546875 l 1
 745.099609375 2.36328125 l 1
 652.008789062 2.36328125 l 1
 558.91796875 2.36328125 l 1
 558.91796875 95.2685546875 l 1xc4
 558.91796875 188.172851562 l 1xc8
 465.640625 188.172851562 l 1
 372.36328125 188.172851562 l 1
 372.36328125 95.2685546875 l 1
 372.36328125 2.36328125 l 1
 279.272460938 2.36328125 l 1
 186.181640625 2.36328125 l 1
 186.181640625 95.2685546875 l 1xd0
 186.181640625 188.172851562 l 1xe0
 279.272460938 188.172851562 l 1
 372.36328125 188.172851562 l 1xd0
 372.36328125 467.631835938 l 1
 372.36328125 747.090820312 l 1
 465.640625 747.090820312 l 1
 558.91796875 747.090820312 l 1
 558.91796875 467.631835938 l 1
 558.91796875 188.172851562 l 1xc8
 652.008789062 188.172851562 l 1
 745.099609375 188.172851562 l 1xc4
745.099609375 188.172851562 m 1
 745.099609375 560.72265625 l 1
 745.099609375 933.272460938 l 1
 838.00390625 933.272460938 l 1
 930.909179688 933.272460938 l 1
 930.909179688 560.72265625 l 1
 930.909179688 188.172851562 l 1xc2
 838.00390625 188.172851562 l 1
 745.099609375 188.172851562 l 1
EndSplineSet
EndChar

StartChar: LATIN
Encoding: 120 120 88
Width: 1117
VWidth: 80
Flags: HW
HStem: 2.36328 185.81<0 186.182 745.1 930.909> 188.173 186.182<186.182 372.363 558.918 745.1> 374.354 186.555<372.363 558.918> 560.909 186.182<186.182 372.363 558.918 745.1> 747.091 186.182<0 186.182 745.1 930.909>
VStem: 0 186.182<2.36328 188.173 747.091 933.272> 186.182 186.182<188.173 374.354 560.909 747.091> 372.363 186.555<374.354 560.909> 558.918 186.182<188.173 374.354 560.909 747.091> 745.1 185.81<2.36328 188.173 747.091 933.272>
LayerCount: 2
Fore
SplineSet
0 840.181640625 m 1x0c
 0 933.272460938 l 1
 93.0908203125 933.272460938 l 1
 186.181640625 933.272460938 l 1x0c
 186.181640625 840.181640625 l 1
 186.181640625 747.090820312 l 1x14
 93.0908203125 747.090820312 l 1
 0 747.090820312 l 1
 0 840.181640625 l 1x0c
186.181640625 188.172851562 m 1x84
 186.181640625 281.263671875 l 1
 186.181640625 374.354492188 l 1
 279.272460938 374.354492188 l 1
 372.36328125 374.354492188 l 1x42
 372.36328125 467.631835938 l 1x41
 372.36328125 560.909179688 l 1x22
 279.272460938 560.909179688 l 1
 186.181640625 560.909179688 l 1
 186.181640625 654 l 1x12
 186.181640625 747.090820312 l 1x14
 279.272460938 747.090820312 l 1
 372.36328125 747.090820312 l 1x12
 372.36328125 654 l 1
 372.36328125 560.909179688 l 1x22
 465.640625 560.909179688 l 1
 558.91796875 560.909179688 l 1x21
 558.91796875 467.631835938 l 1
 558.91796875 374.354492188 l 1x41
 465.640625 374.354492188 l 1x21
 372.36328125 374.354492188 l 1
 372.36328125 281.263671875 l 1
 372.36328125 188.172851562 l 1
 279.272460938 188.172851562 l 1x42
 186.181640625 188.172851562 l 1x84
186.181640625 188.172851562 m 1x84
 186.181640625 95.2685546875 l 1
 186.181640625 2.36328125 l 1
 93.0908203125 2.36328125 l 1
 0 2.36328125 l 1
 0 95.2685546875 l 1
 0 188.172851562 l 1
 93.0908203125 188.172851562 l 1
 186.181640625 188.172851562 l 1x84
745.099609375 188.172851562 m 1x8080
 652.008789062 188.172851562 l 1
 558.91796875 188.172851562 l 1
 558.91796875 281.263671875 l 1x4080
 558.91796875 374.354492188 l 1x41
 652.008789062 374.354492188 l 1
 745.099609375 374.354492188 l 1x4080
 745.099609375 281.263671875 l 1
 745.099609375 188.172851562 l 1x8080
745.099609375 188.172851562 m 1x8080
 838.00390625 188.172851562 l 1
 930.909179688 188.172851562 l 1
 930.909179688 95.2685546875 l 1
 930.909179688 2.36328125 l 1
 838.00390625 2.36328125 l 1
 745.099609375 2.36328125 l 1
 745.099609375 95.2685546875 l 1x8040
 745.099609375 188.172851562 l 1x8080
745.099609375 747.090820312 m 1x1080
 745.099609375 654 l 1
 745.099609375 560.909179688 l 1
 652.008789062 560.909179688 l 1x1080
 558.91796875 560.909179688 l 1x21
 558.91796875 654 l 1
 558.91796875 747.090820312 l 1
 652.008789062 747.090820312 l 1
 745.099609375 747.090820312 l 1x1080
745.099609375 747.090820312 m 1
 745.099609375 840.181640625 l 1
 745.099609375 933.272460938 l 1
 838.00390625 933.272460938 l 1
 930.909179688 933.272460938 l 1
 930.909179688 840.181640625 l 1
 930.909179688 747.090820312 l 1
 838.00390625 747.090820312 l 1x0840
 745.099609375 747.090820312 l 1
EndSplineSet
EndChar

StartChar: LATIN
Encoding: 121 121 89
Width: 1117
VWidth: 80
Flags: HW
HStem: -370 185.81<186.182 745.1> 1.99121 186.182<186.182 558.918> 188.173 186.182<558.918 745.1> 913.272 20G<0 186.182 745.1 930.909>
VStem: 0 186.182<188.173 933.272> 745.1 185.81<-184.19 188.173 374.354 933.272>
LayerCount: 2
Fore
SplineSet
0 560.72265625 m 1xbc
 0 933.272460938 l 1
 93.0908203125 933.272460938 l 1
 186.181640625 933.272460938 l 1
 186.181640625 560.72265625 l 1
 186.181640625 188.172851562 l 1xdc
 93.0908203125 188.172851562 l 1
 0 188.172851562 l 1
 0 560.72265625 l 1xbc
745.099609375 -184.190429688 m 1
 745.099609375 1.9912109375 l 1xdc
 745.099609375 188.172851562 l 1
 652.008789062 188.172851562 l 1xbc
 558.91796875 188.172851562 l 1
 558.91796875 95.08203125 l 1
 558.91796875 1.9912109375 l 1
 372.549804688 1.9912109375 l 1
 186.181640625 1.9912109375 l 1
 186.181640625 95.08203125 l 1
 186.181640625 188.172851562 l 1
 372.549804688 188.172851562 l 1
 558.91796875 188.172851562 l 1xdc
 558.91796875 281.263671875 l 1
 558.91796875 374.354492188 l 1
 652.008789062 374.354492188 l 1
 745.099609375 374.354492188 l 1xbc
 745.099609375 653.813476562 l 1
 745.099609375 933.272460938 l 1
 838.00390625 933.272460938 l 1
 930.909179688 933.272460938 l 1
 930.909179688 374.541015625 l 1
 930.909179688 -184.190429688 l 1
 838.00390625 -184.190429688 l 1
 745.099609375 -184.190429688 l 1
745.099609375 -184.190429688 m 1
 745.099609375 -277.095703125 l 1
 745.099609375 -370 l 1
 465.640625 -370 l 1
 186.181640625 -370 l 1
 186.181640625 -277.095703125 l 1
 186.181640625 -184.190429688 l 1
 465.640625 -184.190429688 l 1
 745.099609375 -184.190429688 l 1
EndSplineSet
EndChar

StartChar: LATIN
Encoding: 122 122 90
Width: 1117
VWidth: 80
Flags: HW
HStem: 2.36328 185.81<0 186.182 372.363 930.909> 374.354 186.555<372.363 558.918> 747.091 186.182<0 558.918 745.1 930.909>
VStem: 186.182 186.182<188.173 374.354> 372.363 186.555<374.354 560.909> 558.918 186.182<560.909 747.091>
LayerCount: 2
Fore
SplineSet
0 840.181640625 m 1xe4
 0 933.272460938 l 1
 465.454101562 933.272460938 l 1
 930.909179688 933.272460938 l 1
 930.909179688 840.181640625 l 1
 930.909179688 747.090820312 l 1
 838.00390625 747.090820312 l 1
 745.099609375 747.090820312 l 1
 745.099609375 654 l 1
 745.099609375 560.909179688 l 1xe4
 652.008789062 560.909179688 l 1
 558.91796875 560.909179688 l 1xe8
 558.91796875 654 l 1
 558.91796875 747.090820312 l 1
 279.458984375 747.090820312 l 1
 0 747.090820312 l 1
 0 840.181640625 l 1xe4
372.36328125 374.354492188 m 1xf0
 372.36328125 467.631835938 l 1
 372.36328125 560.909179688 l 1
 465.640625 560.909179688 l 1
 558.91796875 560.909179688 l 1
 558.91796875 467.631835938 l 1
 558.91796875 374.354492188 l 1xe8
 465.640625 374.354492188 l 1
 372.36328125 374.354492188 l 1xf0
372.36328125 374.354492188 m 1xf0
 372.36328125 281.263671875 l 1
 372.36328125 188.172851562 l 1
 651.63671875 188.172851562 l 1
 930.909179688 188.172851562 l 1
 930.909179688 95.2685546875 l 1
 930.909179688 2.36328125 l 1
 465.454101562 2.36328125 l 1
 0 2.36328125 l 1
 0 95.2685546875 l 1
 0 188.172851562 l 1
 93.0908203125 188.172851562 l 1
 186.181640625 188.172851562 l 1
 186.181640625 281.263671875 l 1
 186.181640625 374.354492188 l 1
 279.272460938 374.354492188 l 1
 372.36328125 374.354492188 l 1xf0
EndSplineSet
EndChar

StartChar: LEFT
Encoding: 123 123 91
Width: 1117
VWidth: 80
Flags: HW
HStem: -370 186.182<558.918 931.281> 560.537 186.182<0 372.363> 1471.82 20G<372.363 558.918> 1491.82 186.182<558.918 931.281>
VStem: 372.363 186.555<-183.818 560.537 746.719 1491.82> 558.918 372.363<-370 -183.818 1491.82 1678>
LayerCount: 2
Fore
SplineSet
558.91796875 1584.90917969 m 1xe4
 558.91796875 1678 l 1
 745.099609375 1678 l 1
 931.28125 1678 l 1
 931.28125 1584.90917969 l 1
 931.28125 1491.81835938 l 1
 745.099609375 1491.81835938 l 1xd4
 558.91796875 1491.81835938 l 1xe8
 558.91796875 1584.90917969 l 1xe4
558.91796875 -183.818359375 m 1xe8
 465.640625 -183.818359375 l 1
 372.36328125 -183.818359375 l 1
 372.36328125 188.359375 l 1
 372.36328125 560.537109375 l 1
 186.181640625 560.537109375 l 1
 0 560.537109375 l 1
 0 653.627929688 l 1
 0 746.71875 l 1
 186.181640625 746.71875 l 1
 372.36328125 746.71875 l 1
 372.36328125 1119.26855469 l 1
 372.36328125 1491.81835938 l 1
 465.640625 1491.81835938 l 1
 558.91796875 1491.81835938 l 1
 558.91796875 1119.26855469 l 1
 558.91796875 746.71875 l 1
 465.640625 746.71875 l 1
 372.36328125 746.71875 l 1
 372.36328125 653.627929688 l 1
 372.36328125 560.537109375 l 1
 465.640625 560.537109375 l 1
 558.91796875 560.537109375 l 1
 558.91796875 188.359375 l 1
 558.91796875 -183.818359375 l 1xe8
558.91796875 -183.818359375 m 1
 745.099609375 -183.818359375 l 1
 931.28125 -183.818359375 l 1
 931.28125 -276.909179688 l 1
 931.28125 -370 l 1
 745.099609375 -370 l 1
 558.91796875 -370 l 1
 558.91796875 -276.909179688 l 1xc4
 558.91796875 -183.818359375 l 1
EndSplineSet
EndChar

StartChar: VERTICAL
Encoding: 124 124 92
Width: 1117
VWidth: 80
Flags: HW
HStem: 1471.82 20G<372.363 558.546>
VStem: 372.363 186.183<-183.818 1491.82>
LayerCount: 2
Fore
SplineSet
372.36328125 654 m 1
 372.36328125 1491.81835938 l 1
 465.454101562 1491.81835938 l 1
 558.545898438 1491.81835938 l 1
 558.545898438 654 l 1
 558.545898438 -183.818359375 l 1
 465.454101562 -183.818359375 l 1
 372.36328125 -183.818359375 l 1
 372.36328125 654 l 1
EndSplineSet
EndChar

StartChar: RIGHT
Encoding: 125 125 93
Width: 1117
VWidth: 80
Flags: HW
HStem: -370 186.182<0 372.363> 560.537 186.182<558.918 931.281> 1471.82 20G<372.363 558.918> 1491.82 186.182<0 372.363>
VStem: 0 372.363<-370 -183.818 1491.82 1678> 372.363 186.555<-183.818 560.537 746.719 1491.82>
LayerCount: 2
Fore
SplineSet
0 1584.90917969 m 1xd8
 0 1678 l 1
 186.181640625 1678 l 1
 372.36328125 1678 l 1xd8
 372.36328125 1584.90917969 l 1
 372.36328125 1491.81835938 l 1xe8
 186.181640625 1491.81835938 l 1
 0 1491.81835938 l 1
 0 1584.90917969 l 1xd8
372.36328125 -183.818359375 m 1
 372.36328125 188.359375 l 1
 372.36328125 560.537109375 l 1
 465.640625 560.537109375 l 1
 558.91796875 560.537109375 l 1
 558.91796875 653.627929688 l 1
 558.91796875 746.71875 l 1
 465.640625 746.71875 l 1
 372.36328125 746.71875 l 1
 372.36328125 1119.26855469 l 1xe4
 372.36328125 1491.81835938 l 1xe8
 465.640625 1491.81835938 l 1
 558.91796875 1491.81835938 l 1
 558.91796875 1119.26855469 l 1
 558.91796875 746.71875 l 1
 745.099609375 746.71875 l 1
 931.28125 746.71875 l 1
 931.28125 653.627929688 l 1
 931.28125 560.537109375 l 1
 745.099609375 560.537109375 l 1
 558.91796875 560.537109375 l 1
 558.91796875 188.359375 l 1
 558.91796875 -183.818359375 l 1xe4
 465.640625 -183.818359375 l 1
 372.36328125 -183.818359375 l 1
372.36328125 -183.818359375 m 1xc8
 372.36328125 -276.909179688 l 1
 372.36328125 -370 l 1
 186.181640625 -370 l 1
 0 -370 l 1
 0 -276.909179688 l 1
 0 -183.818359375 l 1
 186.181640625 -183.818359375 l 1
 372.36328125 -183.818359375 l 1xc8
EndSplineSet
EndChar

StartChar: TILDE
Encoding: 126 126 94
Width: 1117
VWidth: 80
Flags: HW
HStem: 374.728 186.182<558.918 745.1> 560.909 186.182<0 186.182 372.363 558.918 745.1 930.909> 747.091 186.182<186.182 372.363>
VStem: 0 186.182<560.909 747.091> 186.182 186.182<747.091 933.272> 372.363 186.555<560.909 747.091> 558.918 186.182<374.728 560.909> 745.1 185.81<560.909 747.091>
LayerCount: 2
Fore
SplineSet
186.181640625 840.181640625 m 1x48
 186.181640625 933.272460938 l 1
 279.272460938 933.272460938 l 1
 372.36328125 933.272460938 l 1x28
 372.36328125 840.181640625 l 1
 372.36328125 747.090820312 l 1x48
 279.272460938 747.090820312 l 1x28
 186.181640625 747.090820312 l 1x50
 186.181640625 840.181640625 l 1x48
186.181640625 747.090820312 m 1x50
 186.181640625 654 l 1
 186.181640625 560.909179688 l 1
 93.0908203125 560.909179688 l 1
 0 560.909179688 l 1
 0 654 l 1
 0 747.090820312 l 1
 93.0908203125 747.090820312 l 1
 186.181640625 747.090820312 l 1x50
745.099609375 560.909179688 m 1x82
 745.099609375 467.818359375 l 1
 745.099609375 374.727539062 l 1
 652.008789062 374.727539062 l 1
 558.91796875 374.727539062 l 1
 558.91796875 467.818359375 l 1x82
 558.91796875 560.909179688 l 1x84
 465.640625 560.909179688 l 1
 372.36328125 560.909179688 l 1
 372.36328125 654 l 1x44
 372.36328125 747.090820312 l 1x48
 465.640625 747.090820312 l 1
 558.91796875 747.090820312 l 1x44
 558.91796875 654 l 1
 558.91796875 560.909179688 l 1x84
 652.008789062 560.909179688 l 1
 745.099609375 560.909179688 l 1x82
745.099609375 560.909179688 m 1
 745.099609375 654 l 1
 745.099609375 747.090820312 l 1
 838.00390625 747.090820312 l 1
 930.909179688 747.090820312 l 1
 930.909179688 654 l 1
 930.909179688 560.909179688 l 1
 838.00390625 560.909179688 l 1x41
 745.099609375 560.909179688 l 1
EndSplineSet
EndChar

StartChar: INVERTED
Encoding: 161 161 96
Width: 1117
VWidth: 80
Flags: HW
HStem: 2.36328 21G<372.363 558.546> 1305.64 186.182<372.363 558.546>
VStem: 372.363 186.183<2.36328 1119.45 1305.64 1491.82>
LayerCount: 2
Fore
SplineSet
372.36328125 1398.72753906 m 1
 372.36328125 1491.81835938 l 1
 465.454101562 1491.81835938 l 1
 558.545898438 1491.81835938 l 1
 558.545898438 1398.72753906 l 1
 558.545898438 1305.63671875 l 1
 465.454101562 1305.63671875 l 1
 372.36328125 1305.63671875 l 1
 372.36328125 1398.72753906 l 1
372.36328125 560.909179688 m 1
 372.36328125 1119.45410156 l 1
 465.454101562 1119.45410156 l 1
 558.545898438 1119.45410156 l 1
 558.545898438 560.909179688 l 1
 558.545898438 2.36328125 l 1
 465.454101562 2.36328125 l 1
 372.36328125 2.36328125 l 1
 372.36328125 560.909179688 l 1
EndSplineSet
EndChar

StartChar: CENT
Encoding: 162 162 97
Width: 1117
VWidth: 80
Flags: HW
HStem: 1.99121 186.182<186.182 372.363 558.918 930.909> 747.091 186.182<186.182 372.363 558.918 930.909>
VStem: 0 186.182<188.173 747.091> 372.363 186.555<-183.818 1.99121 188.173 747.091 933.272 1119.45>
LayerCount: 2
Fore
SplineSet
372.36328125 467.631835938 m 1
 372.36328125 747.090820312 l 1
 279.272460938 747.090820312 l 1
 186.181640625 747.090820312 l 1
 186.181640625 467.631835938 l 1
 186.181640625 188.172851562 l 1
 279.272460938 188.172851562 l 1
 372.36328125 188.172851562 l 1
 372.36328125 467.631835938 l 1
372.36328125 1026.36328125 m 1
 372.36328125 1119.45410156 l 1
 465.640625 1119.45410156 l 1
 558.91796875 1119.45410156 l 1
 558.91796875 1026.36328125 l 1
 558.91796875 933.272460938 l 1
 744.913085938 933.272460938 l 1
 930.909179688 933.272460938 l 1
 930.909179688 840.181640625 l 1
 930.909179688 747.090820312 l 1
 744.913085938 747.090820312 l 1
 558.91796875 747.090820312 l 1
 558.91796875 467.631835938 l 1
 558.91796875 188.172851562 l 1
 744.913085938 188.172851562 l 1
 930.909179688 188.172851562 l 1
 930.909179688 95.08203125 l 1
 930.909179688 1.9912109375 l 1
 744.913085938 1.9912109375 l 1
 558.91796875 1.9912109375 l 1
 558.91796875 -90.9130859375 l 1
 558.91796875 -183.818359375 l 1
 465.640625 -183.818359375 l 1
 372.36328125 -183.818359375 l 1
 372.36328125 -90.9130859375 l 1
 372.36328125 1.9912109375 l 1
 279.272460938 1.9912109375 l 1
 186.181640625 1.9912109375 l 1
 186.181640625 95.08203125 l 1
 186.181640625 188.172851562 l 1
 93.0908203125 188.172851562 l 1
 0 188.172851562 l 1
 0 467.631835938 l 1
 0 747.090820312 l 1
 93.0908203125 747.090820312 l 1
 186.181640625 747.090820312 l 1
 186.181640625 840.181640625 l 1
 186.181640625 933.272460938 l 1
 279.272460938 933.272460938 l 1
 372.36328125 933.272460938 l 1
 372.36328125 1026.36328125 l 1
EndSplineSet
EndChar

StartChar: POUND
Encoding: 163 163 98
Width: 1117
VWidth: 80
Flags: HW
HStem: 2.36328 185.81<0 186.182 372.363 745.1> 188.173 186.182<745.1 930.909> 560.537 186.182<0 186.182 372.363 558.918> 1119.45 186.183<745.1 930.909> 1305.64 186.182<372.363 745.1>
VStem: 0 186.182<2.36328 188.173> 186.182 186.182<188.173 560.537 746.719 1305.64> 372.363 372.736<2.36328 188.173 1305.64 1491.82> 745.1 185.81<188.173 374.354 1119.45 1305.64>
LayerCount: 2
Fore
SplineSet
372.36328125 1398.72753906 m 1x29
 372.36328125 1491.81835938 l 1
 558.731445312 1491.81835938 l 1
 745.099609375 1491.81835938 l 1x29
 745.099609375 1398.72753906 l 1
 745.099609375 1305.63671875 l 1x31
 558.731445312 1305.63671875 l 1
 372.36328125 1305.63671875 l 1x2a
 372.36328125 1398.72753906 l 1x29
186.181640625 188.172851562 m 1xa4
 186.181640625 374.354492188 l 1
 186.181640625 560.537109375 l 1x62
 93.0908203125 560.537109375 l 1
 0 560.537109375 l 1
 0 653.627929688 l 1
 0 746.71875 l 1x64
 93.0908203125 746.71875 l 1
 186.181640625 746.71875 l 1
 186.181640625 1026.17773438 l 1
 186.181640625 1305.63671875 l 1
 279.272460938 1305.63671875 l 1
 372.36328125 1305.63671875 l 1
 372.36328125 1026.17773438 l 1
 372.36328125 746.71875 l 1
 465.640625 746.71875 l 1
 558.91796875 746.71875 l 1
 558.91796875 653.627929688 l 1
 558.91796875 560.537109375 l 1
 465.640625 560.537109375 l 1
 372.36328125 560.537109375 l 1
 372.36328125 374.354492188 l 1x6a
 372.36328125 188.172851562 l 1xa2
 279.272460938 188.172851562 l 1x62
 186.181640625 188.172851562 l 1xa4
186.181640625 188.172851562 m 1xa4
 186.181640625 95.2685546875 l 1
 186.181640625 2.36328125 l 1
 93.0908203125 2.36328125 l 1
 0 2.36328125 l 1
 0 95.2685546875 l 1
 0 188.172851562 l 1
 93.0908203125 188.172851562 l 1
 186.181640625 188.172851562 l 1xa4
745.099609375 188.172851562 m 1xa1
 745.099609375 95.2685546875 l 1
 745.099609375 2.36328125 l 1
 558.731445312 2.36328125 l 1
 372.36328125 2.36328125 l 1
 372.36328125 95.2685546875 l 1xa1
 372.36328125 188.172851562 l 1xa2
 558.731445312 188.172851562 l 1
 745.099609375 188.172851562 l 1xa1
745.099609375 188.172851562 m 1
 745.099609375 281.263671875 l 1
 745.099609375 374.354492188 l 1
 838.00390625 374.354492188 l 1
 930.909179688 374.354492188 l 1
 930.909179688 281.263671875 l 1
 930.909179688 188.172851562 l 1
 838.00390625 188.172851562 l 1x6080
 745.099609375 188.172851562 l 1
745.099609375 1305.63671875 m 1x31
 838.00390625 1305.63671875 l 1
 930.909179688 1305.63671875 l 1
 930.909179688 1212.54589844 l 1
 930.909179688 1119.45410156 l 1
 838.00390625 1119.45410156 l 1
 745.099609375 1119.45410156 l 1
 745.099609375 1212.54589844 l 1x3080
 745.099609375 1305.63671875 l 1x31
EndSplineSet
EndChar

StartChar: CURRENCY
Encoding: 164 164 99
Width: 1117
VWidth: 80
Flags: HW
HStem: 2.36328 185.81<0 186.182 745.1 930.909> 188.173 186.182<372.363 558.918> 560.909 186.182<372.363 558.918> 747.091 186.182<0 186.182 745.1 930.909>
VStem: 0 186.182<2.36328 188.173 747.091 933.272> 186.182 186.182<374.354 560.909> 558.918 186.182<374.354 560.909> 745.1 185.81<2.36328 188.173 747.091 933.272>
LayerCount: 2
Fore
SplineSet
558.91796875 467.631835938 m 1x66
 558.91796875 560.909179688 l 1
 465.640625 560.909179688 l 1
 372.36328125 560.909179688 l 1
 372.36328125 467.631835938 l 1
 372.36328125 374.354492188 l 1
 465.640625 374.354492188 l 1
 558.91796875 374.354492188 l 1
 558.91796875 467.631835938 l 1x66
0 840.181640625 m 1x18
 0 933.272460938 l 1
 93.0908203125 933.272460938 l 1
 186.181640625 933.272460938 l 1
 186.181640625 840.181640625 l 1
 186.181640625 747.090820312 l 1
 93.0908203125 747.090820312 l 1
 0 747.090820312 l 1
 0 840.181640625 l 1x18
186.181640625 188.172851562 m 1x89
 186.181640625 467.631835938 l 1x84
 186.181640625 747.090820312 l 1x98
 465.640625 747.090820312 l 1x28
 745.099609375 747.090820312 l 1x19
 745.099609375 467.631835938 l 1x12
 745.099609375 188.172851562 l 1x91
 465.640625 188.172851562 l 1x41
 186.181640625 188.172851562 l 1x89
186.181640625 188.172851562 m 1x88
 186.181640625 95.2685546875 l 1
 186.181640625 2.36328125 l 1
 93.0908203125 2.36328125 l 1
 0 2.36328125 l 1
 0 95.2685546875 l 1
 0 188.172851562 l 1
 93.0908203125 188.172851562 l 1
 186.181640625 188.172851562 l 1x88
745.099609375 188.172851562 m 1x81
 838.00390625 188.172851562 l 1
 930.909179688 188.172851562 l 1
 930.909179688 95.2685546875 l 1
 930.909179688 2.36328125 l 1
 838.00390625 2.36328125 l 1
 745.099609375 2.36328125 l 1
 745.099609375 95.2685546875 l 1
 745.099609375 188.172851562 l 1x81
745.099609375 747.090820312 m 1x11
 745.099609375 840.181640625 l 1
 745.099609375 933.272460938 l 1
 838.00390625 933.272460938 l 1
 930.909179688 933.272460938 l 1
 930.909179688 840.181640625 l 1
 930.909179688 747.090820312 l 1
 838.00390625 747.090820312 l 1
 745.099609375 747.090820312 l 1x11
EndSplineSet
EndChar

StartChar: YEN
Encoding: 165 165 100
Width: 1117
VWidth: 80
Flags: HW
HStem: 188.173 186.182<0 372.363 558.918 930.909> 560.537 186.182<0 372.363 558.918 930.909> 932.9 186.554<186.182 372.363 558.918 745.1> 1119.45 372.364<0 186.182 745.1 930.909>
VStem: 0 186.182<1119.45 1491.82> 186.182 186.182<932.9 1119.45> 372.363 186.555<-183.818 188.173 374.354 560.537 746.719 932.9> 558.918 186.182<932.9 1119.45> 745.1 185.81<1119.45 1491.82>
LayerCount: 2
Fore
SplineSet
0 1305.63671875 m 1xd8
 0 1491.81835938 l 1
 93.0908203125 1491.81835938 l 1
 186.181640625 1491.81835938 l 1xd8
 186.181640625 1305.63671875 l 1
 186.181640625 1119.45410156 l 1xe8
 93.0908203125 1119.45410156 l 1
 0 1119.45410156 l 1
 0 1305.63671875 l 1xd8
745.099609375 1119.45410156 m 1xe1
 745.099609375 1026.17773438 l 1
 745.099609375 932.900390625 l 1xe1
 652.008789062 932.900390625 l 1
 558.91796875 932.900390625 l 1
 558.91796875 839.809570312 l 1
 558.91796875 746.71875 l 1
 744.913085938 746.71875 l 1
 930.909179688 746.71875 l 1
 930.909179688 653.627929688 l 1
 930.909179688 560.537109375 l 1
 744.913085938 560.537109375 l 1
 558.91796875 560.537109375 l 1
 558.91796875 467.446289062 l 1
 558.91796875 374.354492188 l 1
 744.913085938 374.354492188 l 1
 930.909179688 374.354492188 l 1
 930.909179688 281.263671875 l 1
 930.909179688 188.172851562 l 1
 744.913085938 188.172851562 l 1
 558.91796875 188.172851562 l 1
 558.91796875 2.177734375 l 1
 558.91796875 -183.818359375 l 1
 465.640625 -183.818359375 l 1
 372.36328125 -183.818359375 l 1
 372.36328125 2.177734375 l 1
 372.36328125 188.172851562 l 1xe280
 186.181640625 188.172851562 l 1xe4
 0 188.172851562 l 1
 0 281.263671875 l 1
 0 374.354492188 l 1xe8
 186.181640625 374.354492188 l 1xe4
 372.36328125 374.354492188 l 1
 372.36328125 467.446289062 l 1
 372.36328125 560.537109375 l 1xe2
 186.181640625 560.537109375 l 1xe4
 0 560.537109375 l 1
 0 653.627929688 l 1
 0 746.71875 l 1xe8
 186.181640625 746.71875 l 1xe4
 372.36328125 746.71875 l 1
 372.36328125 839.809570312 l 1xe2
 372.36328125 932.900390625 l 1
 279.272460938 932.900390625 l 1
 186.181640625 932.900390625 l 1
 186.181640625 1026.17773438 l 1xe4
 186.181640625 1119.45410156 l 1xe8
 279.272460938 1119.45410156 l 1
 372.36328125 1119.45410156 l 1
 372.36328125 1026.17773438 l 1
 372.36328125 932.900390625 l 1xe4
 465.640625 932.900390625 l 1
 558.91796875 932.900390625 l 1xe2
 558.91796875 1026.17773438 l 1
 558.91796875 1119.45410156 l 1
 652.008789062 1119.45410156 l 1
 745.099609375 1119.45410156 l 1xe1
745.099609375 1119.45410156 m 1
 745.099609375 1305.63671875 l 1
 745.099609375 1491.81835938 l 1
 838.00390625 1491.81835938 l 1
 930.909179688 1491.81835938 l 1
 930.909179688 1305.63671875 l 1
 930.909179688 1119.45410156 l 1
 838.00390625 1119.45410156 l 1xd080
 745.099609375 1119.45410156 l 1
EndSplineSet
EndChar

StartChar: BROKEN
Encoding: 166 166 101
Width: 1117
VWidth: 80
Flags: HW
HStem: 1471.82 20G<372.363 558.546>
VStem: 372.363 186.183<-183.818 560.537 746.719 1491.82>
LayerCount: 2
Fore
SplineSet
372.36328125 1119.26855469 m 1
 372.36328125 1491.81835938 l 1
 465.454101562 1491.81835938 l 1
 558.545898438 1491.81835938 l 1
 558.545898438 1119.26855469 l 1
 558.545898438 746.71875 l 1
 465.454101562 746.71875 l 1
 372.36328125 746.71875 l 1
 372.36328125 1119.26855469 l 1
372.36328125 188.359375 m 1
 372.36328125 560.537109375 l 1
 465.454101562 560.537109375 l 1
 558.545898438 560.537109375 l 1
 558.545898438 188.359375 l 1
 558.545898438 -183.818359375 l 1
 465.454101562 -183.818359375 l 1
 372.36328125 -183.818359375 l 1
 372.36328125 188.359375 l 1
EndSplineSet
EndChar

StartChar: SECTION
Encoding: 167 167 102
Width: 1117
VWidth: 80
Flags: HW
HStem: -183.818 185.81<186.182 745.1> 1.99121 21G<745.1 930.909> 374.354 186.183<372.363 745.1> 746.719 186.182<372.363 745.1> 1285.64 20G<186.182 372.363> 1305.64 186.182<372.363 930.909>
VStem: 186.182 558.918<-183.818 1.99121 746.719 932.9> 186.182 186.182<560.537 746.719 932.9 1305.64> 372.363 558.546<374.354 560.537 1305.64 1491.82> 745.1 185.81<1.99121 374.354 560.537 746.719>
LayerCount: 2
Fore
SplineSet
372.36328125 1398.72753906 m 1x3880
 372.36328125 1491.81835938 l 1
 651.63671875 1491.81835938 l 1
 930.909179688 1491.81835938 l 1
 930.909179688 1398.72753906 l 1
 930.909179688 1305.63671875 l 1
 651.63671875 1305.63671875 l 1x3480
 372.36328125 1305.63671875 l 1x39
 372.36328125 1398.72753906 l 1x3880
372.36328125 560.537109375 m 1x31
 558.731445312 560.537109375 l 1
 745.099609375 560.537109375 l 1
 745.099609375 653.627929688 l 1x3140
 745.099609375 746.71875 l 1x32
 558.731445312 746.71875 l 1
 372.36328125 746.71875 l 1
 372.36328125 653.627929688 l 1
 372.36328125 560.537109375 l 1x31
372.36328125 560.537109375 m 1
 279.272460938 560.537109375 l 1
 186.181640625 560.537109375 l 1
 186.181640625 933.086914062 l 1
 186.181640625 1305.63671875 l 1
 279.272460938 1305.63671875 l 1
 372.36328125 1305.63671875 l 1
 372.36328125 1119.26855469 l 1
 372.36328125 932.900390625 l 1xb9
 558.731445312 932.900390625 l 1
 745.099609375 932.900390625 l 1
 745.099609375 839.809570312 l 1
 745.099609375 746.71875 l 1xba
 838.00390625 746.71875 l 1
 930.909179688 746.71875 l 1xb840
 930.909179688 374.354492188 l 1xb880
 930.909179688 1.9912109375 l 1
 838.00390625 1.9912109375 l 1x7840
 745.099609375 1.9912109375 l 1xb2
 745.099609375 188.172851562 l 1
 745.099609375 374.354492188 l 1xb040
 558.731445312 374.354492188 l 1
 372.36328125 374.354492188 l 1
 372.36328125 467.446289062 l 1xb080
 372.36328125 560.537109375 l 1
745.099609375 1.9912109375 m 1xb2
 745.099609375 -90.9130859375 l 1
 745.099609375 -183.818359375 l 1
 465.640625 -183.818359375 l 1
 186.181640625 -183.818359375 l 1
 186.181640625 -90.9130859375 l 1
 186.181640625 1.9912109375 l 1
 465.640625 1.9912109375 l 1
 745.099609375 1.9912109375 l 1xb2
EndSplineSet
EndChar

StartChar: DIAERESIS
Encoding: 168 168 103
Width: 1117
VWidth: 80
Flags: HW
HStem: 1305.64 186.182<186.182 372.363 558.546 744.728>
VStem: 186.182 186.182<1305.64 1491.82> 558.546 186.182<1305.64 1491.82>
LayerCount: 2
Fore
SplineSet
186.181640625 1398.72753906 m 1
 186.181640625 1491.81835938 l 1
 279.272460938 1491.81835938 l 1
 372.36328125 1491.81835938 l 1
 372.36328125 1398.72753906 l 1
 372.36328125 1305.63671875 l 1
 279.272460938 1305.63671875 l 1
 186.181640625 1305.63671875 l 1
 186.181640625 1398.72753906 l 1
558.545898438 1398.72753906 m 1
 558.545898438 1491.81835938 l 1
 651.63671875 1491.81835938 l 1
 744.727539062 1491.81835938 l 1
 744.727539062 1398.72753906 l 1
 744.727539062 1305.63671875 l 1
 651.63671875 1305.63671875 l 1
 558.545898438 1305.63671875 l 1
 558.545898438 1398.72753906 l 1
EndSplineSet
EndChar

StartChar: COPYRIGHT
Encoding: 169 169 104
Width: 1117
VWidth: 80
Flags: HW
HStem: 2.36328 185.81<186.182 745.1> 374.354 186.183<372.363 558.918> 560.537 186.182<186.182 372.363> 746.719 186.554<372.363 558.918> 1119.45 186.183<186.182 745.1>
VStem: 0 186.182<188.173 560.537 746.719 1119.45> 186.182 558.918<2.36328 188.173 1119.45 1305.64> 372.363 186.555<374.354 560.537 746.719 933.272> 745.1 185.81<188.173 1119.45>
LayerCount: 2
Fore
SplineSet
186.181640625 1212.54589844 m 1xca
 186.181640625 1305.63671875 l 1
 465.640625 1305.63671875 l 1
 745.099609375 1305.63671875 l 1
 745.099609375 1212.54589844 l 1
 745.099609375 1119.45410156 l 1xca
 465.640625 1119.45410156 l 1
 186.181640625 1119.45410156 l 1
 186.181640625 933.086914062 l 1
 186.181640625 746.71875 l 1
 279.272460938 746.71875 l 1
 372.36328125 746.71875 l 1xad
 372.36328125 653.627929688 l 1
 372.36328125 560.537109375 l 1xcd
 279.272460938 560.537109375 l 1
 186.181640625 560.537109375 l 1xad
 186.181640625 374.354492188 l 1
 186.181640625 188.172851562 l 1xcd
 465.640625 188.172851562 l 1
 745.099609375 188.172851562 l 1xca
 745.099609375 653.813476562 l 1xc880
 745.099609375 1119.45410156 l 1xca
 838.00390625 1119.45410156 l 1
 930.909179688 1119.45410156 l 1
 930.909179688 653.813476562 l 1
 930.909179688 188.172851562 l 1xc880
 838.00390625 188.172851562 l 1
 745.099609375 188.172851562 l 1
 745.099609375 95.2685546875 l 1
 745.099609375 2.36328125 l 1
 465.640625 2.36328125 l 1
 186.181640625 2.36328125 l 1
 186.181640625 95.2685546875 l 1xca
 186.181640625 188.172851562 l 1
 93.0908203125 188.172851562 l 1
 0 188.172851562 l 1
 0 653.813476562 l 1
 0 1119.45410156 l 1
 93.0908203125 1119.45410156 l 1
 186.181640625 1119.45410156 l 1xcc
 186.181640625 1212.54589844 l 1xca
372.36328125 839.99609375 m 1xa9
 372.36328125 933.272460938 l 1
 465.640625 933.272460938 l 1
 558.91796875 933.272460938 l 1
 558.91796875 839.99609375 l 1
 558.91796875 746.71875 l 1
 465.640625 746.71875 l 1x99
 372.36328125 746.71875 l 1
 372.36328125 839.99609375 l 1xa9
372.36328125 560.537109375 m 1xc9
 465.640625 560.537109375 l 1
 558.91796875 560.537109375 l 1
 558.91796875 467.446289062 l 1
 558.91796875 374.354492188 l 1
 465.640625 374.354492188 l 1
 372.36328125 374.354492188 l 1
 372.36328125 467.446289062 l 1
 372.36328125 560.537109375 l 1xc9
EndSplineSet
EndChar

StartChar: FEMININE
Encoding: 170 170 105
Width: 1117
VWidth: 80
Flags: HW
HStem: 188.546 185.809<186.182 930.909> 560.537 186.182<372.363 558.546> 746.719 186.554<558.546 745.1> 1119.45 186.183<372.363 745.1>
VStem: 186.182 186.182<746.719 1119.45> 372.363 186.183<560.537 746.719> 745.1 185.81<560.537 746.719 933.272 1119.45>
LayerCount: 2
Fore
SplineSet
745.099609375 1026.36328125 m 1xb6
 745.099609375 1119.45410156 l 1
 558.731445312 1119.45410156 l 1
 372.36328125 1119.45410156 l 1
 372.36328125 933.086914062 l 1
 372.36328125 746.71875 l 1xda
 465.454101562 746.71875 l 1
 558.545898438 746.71875 l 1xd6
 558.545898438 839.99609375 l 1
 558.545898438 933.272460938 l 1
 651.822265625 933.272460938 l 1
 745.099609375 933.272460938 l 1
 745.099609375 1026.36328125 l 1xb6
372.36328125 1212.54589844 m 1xb6
 372.36328125 1305.63671875 l 1
 651.63671875 1305.63671875 l 1
 930.909179688 1305.63671875 l 1
 930.909179688 933.086914062 l 1
 930.909179688 560.537109375 l 1
 838.00390625 560.537109375 l 1
 745.099609375 560.537109375 l 1xd6
 745.099609375 653.627929688 l 1
 745.099609375 746.71875 l 1
 651.822265625 746.71875 l 1xb6
 558.545898438 746.71875 l 1
 558.545898438 653.627929688 l 1
 558.545898438 560.537109375 l 1
 465.454101562 560.537109375 l 1
 372.36328125 560.537109375 l 1
 372.36328125 653.627929688 l 1xd6
 372.36328125 746.71875 l 1xda
 279.272460938 746.71875 l 1
 186.181640625 746.71875 l 1
 186.181640625 933.086914062 l 1
 186.181640625 1119.45410156 l 1
 279.272460938 1119.45410156 l 1
 372.36328125 1119.45410156 l 1xba
 372.36328125 1212.54589844 l 1xb6
186.181640625 281.450195312 m 1x9a
 186.181640625 374.354492188 l 1x9a
 558.545898438 374.354492188 l 1
 930.909179688 374.354492188 l 1
 930.909179688 281.450195312 l 1
 930.909179688 188.545898438 l 1
 558.545898438 188.545898438 l 1x96
 186.181640625 188.545898438 l 1
 186.181640625 281.450195312 l 1x9a
EndSplineSet
EndChar

StartChar: LEFT-POINTING
Encoding: 171 171 106
Width: 1117
VWidth: 80
Flags: HW
HStem: 188.546 185.809<372.363 558.918 931.281 1117.09> 374.354 186.183<186.182 372.363 745.1 931.281> 560.537 186.554<0 186.182 558.918 745.1> 747.091 186.182<186.182 372.363 745.1 931.281> 933.272 186.182<372.363 558.918 931.281 1117.09>
VStem: 0 186.182<560.537 747.091> 186.182 186.182<374.354 560.537 747.091 933.272> 372.363 186.555<188.546 374.354 933.272 1119.45> 558.918 186.182<560.537 747.091> 745.1 186.182<374.354 560.537 747.091 933.272> 931.281 185.81<188.546 374.354 933.272 1119.45>
LayerCount: 2
Fore
SplineSet
372.36328125 1026.36328125 m 1x11
 372.36328125 1119.45410156 l 1
 465.640625 1119.45410156 l 1
 558.91796875 1119.45410156 l 1
 558.91796875 1026.36328125 l 1
 558.91796875 933.272460938 l 1
 465.640625 933.272460938 l 1x09
 372.36328125 933.272460938 l 1x12
 372.36328125 1026.36328125 l 1x11
931.28125 1026.36328125 m 1x1020
 931.28125 1119.45410156 l 1
 1024.18652344 1119.45410156 l 1
 1117.09082031 1119.45410156 l 1
 1117.09082031 1026.36328125 l 1
 1117.09082031 933.272460938 l 1
 1024.18652344 933.272460938 l 1x0820
 931.28125 933.272460938 l 1x1040
 931.28125 1026.36328125 l 1x1020
372.36328125 374.354492188 m 1x82
 279.272460938 374.354492188 l 1
 186.181640625 374.354492188 l 1
 186.181640625 467.446289062 l 1x42
 186.181640625 560.537109375 l 1x44
 93.0908203125 560.537109375 l 1
 0 560.537109375 l 1
 0 653.813476562 l 1
 0 747.090820312 l 1
 93.0908203125 747.090820312 l 1
 186.181640625 747.090820312 l 1x24
 186.181640625 840.181640625 l 1
 186.181640625 933.272460938 l 1
 279.272460938 933.272460938 l 1
 372.36328125 933.272460938 l 1
 372.36328125 840.181640625 l 1
 372.36328125 747.090820312 l 1
 279.272460938 747.090820312 l 1x12
 186.181640625 747.090820312 l 1x24
 186.181640625 653.813476562 l 1
 186.181640625 560.537109375 l 1x44
 279.272460938 560.537109375 l 1
 372.36328125 560.537109375 l 1x42
 372.36328125 467.446289062 l 1
 372.36328125 374.354492188 l 1x82
372.36328125 374.354492188 m 1x82
 465.640625 374.354492188 l 1
 558.91796875 374.354492188 l 1
 558.91796875 281.450195312 l 1
 558.91796875 188.545898438 l 1
 465.640625 188.545898438 l 1
 372.36328125 188.545898438 l 1
 372.36328125 281.450195312 l 1x81
 372.36328125 374.354492188 l 1x82
931.28125 374.354492188 m 1x8040
 838.190429688 374.354492188 l 1
 745.099609375 374.354492188 l 1
 745.099609375 467.446289062 l 1x4040
 745.099609375 560.537109375 l 1x4080
 652.008789062 560.537109375 l 1
 558.91796875 560.537109375 l 1
 558.91796875 653.813476562 l 1
 558.91796875 747.090820312 l 1
 652.008789062 747.090820312 l 1
 745.099609375 747.090820312 l 1x2080
 745.099609375 840.181640625 l 1
 745.099609375 933.272460938 l 1
 838.190429688 933.272460938 l 1
 931.28125 933.272460938 l 1
 931.28125 840.181640625 l 1
 931.28125 747.090820312 l 1
 838.190429688 747.090820312 l 1x1040
 745.099609375 747.090820312 l 1x2080
 745.099609375 653.813476562 l 1
 745.099609375 560.537109375 l 1x4080
 838.190429688 560.537109375 l 1
 931.28125 560.537109375 l 1x4040
 931.28125 467.446289062 l 1
 931.28125 374.354492188 l 1x8040
931.28125 374.354492188 m 1x8040
 1024.18652344 374.354492188 l 1
 1117.09082031 374.354492188 l 1
 1117.09082031 281.450195312 l 1
 1117.09082031 188.545898438 l 1
 1024.18652344 188.545898438 l 1
 931.28125 188.545898438 l 1
 931.28125 281.450195312 l 1x8020
 931.28125 374.354492188 l 1x8040
EndSplineSet
EndChar

StartChar: NOT
Encoding: 172 172 107
Width: 1117
VWidth: 80
Flags: HW
HStem: 560.909 186.182<186.182 745.1>
VStem: 745.1 185.81<374.728 560.909>
LayerCount: 2
Fore
SplineSet
186.181640625 654 m 1
 186.181640625 747.090820312 l 1
 558.545898438 747.090820312 l 1
 930.909179688 747.090820312 l 1
 930.909179688 560.909179688 l 1
 930.909179688 374.727539062 l 1
 838.00390625 374.727539062 l 1
 745.099609375 374.727539062 l 1
 745.099609375 467.818359375 l 1
 745.099609375 560.909179688 l 1
 465.640625 560.909179688 l 1
 186.181640625 560.909179688 l 1
 186.181640625 654 l 1
EndSplineSet
EndChar

StartChar: SOFT
Encoding: 173 173 108
Width: 1117
VWidth: 80
Flags: HW
HStem: 560.909 186.182<186.182 930.909>
LayerCount: 2
Fore
SplineSet
186.181640625 654 m 1
 186.181640625 747.090820312 l 1
 558.545898438 747.090820312 l 1
 930.909179688 747.090820312 l 1
 930.909179688 654 l 1
 930.909179688 560.909179688 l 1
 558.545898438 560.909179688 l 1
 186.181640625 560.909179688 l 1
 186.181640625 654 l 1
EndSplineSet
EndChar

StartChar: REGISTERED
Encoding: 174 174 109
Width: 1117
VWidth: 80
Flags: HW
HStem: 2.36328 185.81<186.182 745.1> 746.719 186.554<372.363 558.918> 1119.45 186.183<186.182 745.1>
VStem: 0 372.363<374.354 746.719> 0 186.182<188.173 374.354 933.272 1119.45> 186.182 558.918<2.36328 188.173 1119.45 1305.64> 745.1 185.81<188.173 1119.45>
LayerCount: 2
Fore
SplineSet
186.181640625 1212.54589844 m 1xe4
 186.181640625 1305.63671875 l 1
 465.640625 1305.63671875 l 1
 745.099609375 1305.63671875 l 1
 745.099609375 1212.54589844 l 1
 745.099609375 1119.45410156 l 1xe4
 465.640625 1119.45410156 l 1
 186.181640625 1119.45410156 l 1
 186.181640625 1026.36328125 l 1
 186.181640625 933.272460938 l 1xe8
 372.549804688 933.272460938 l 1
 558.91796875 933.272460938 l 1
 558.91796875 839.99609375 l 1
 558.91796875 746.71875 l 1
 465.640625 746.71875 l 1
 372.36328125 746.71875 l 1
 372.36328125 560.537109375 l 1
 372.36328125 374.354492188 l 1xf0
 279.272460938 374.354492188 l 1
 186.181640625 374.354492188 l 1
 186.181640625 281.263671875 l 1
 186.181640625 188.172851562 l 1xe8
 465.640625 188.172851562 l 1
 745.099609375 188.172851562 l 1xe4
 745.099609375 653.813476562 l 1xe2
 745.099609375 1119.45410156 l 1xe4
 838.00390625 1119.45410156 l 1
 930.909179688 1119.45410156 l 1
 930.909179688 653.813476562 l 1
 930.909179688 188.172851562 l 1xe2
 838.00390625 188.172851562 l 1
 745.099609375 188.172851562 l 1
 745.099609375 95.2685546875 l 1
 745.099609375 2.36328125 l 1
 465.640625 2.36328125 l 1
 186.181640625 2.36328125 l 1
 186.181640625 95.2685546875 l 1xe4
 186.181640625 188.172851562 l 1
 93.0908203125 188.172851562 l 1
 0 188.172851562 l 1xe8
 0 653.813476562 l 1xf0
 0 1119.45410156 l 1
 93.0908203125 1119.45410156 l 1
 186.181640625 1119.45410156 l 1xe8
 186.181640625 1212.54589844 l 1xe4
EndSplineSet
EndChar

StartChar: MACRON
Encoding: 175 175 110
Width: 1117
VWidth: 80
Flags: HW
HStem: 1305.64 186.182<0 930.909>
LayerCount: 2
Fore
SplineSet
0 1398.72753906 m 1
 0 1491.81835938 l 1
 465.454101562 1491.81835938 l 1
 930.909179688 1491.81835938 l 1
 930.909179688 1398.72753906 l 1
 930.909179688 1305.63671875 l 1
 465.454101562 1305.63671875 l 1
 0 1305.63671875 l 1
 0 1398.72753906 l 1
EndSplineSet
EndChar

StartChar: DEGREE
Encoding: 176 176 111
Width: 1117
VWidth: 80
Flags: HW
HStem: 747.091 186.182<372.363 558.546> 933.272 186.182<186.182 372.363 558.546 744.728> 1119.45 186.183<372.363 558.546>
VStem: 186.182 186.182<933.272 1119.45> 372.363 186.183<747.091 933.272 1119.45 1305.64> 558.546 186.182<933.272 1119.45>
LayerCount: 2
Fore
SplineSet
372.36328125 1212.54589844 m 1x48
 372.36328125 1305.63671875 l 1
 465.454101562 1305.63671875 l 1
 558.545898438 1305.63671875 l 1x28
 558.545898438 1212.54589844 l 1
 558.545898438 1119.45410156 l 1x48
 465.454101562 1119.45410156 l 1x28
 372.36328125 1119.45410156 l 1x50
 372.36328125 1026.36328125 l 1
 372.36328125 933.272460938 l 1x90
 465.454101562 933.272460938 l 1
 558.545898438 933.272460938 l 1x88
 558.545898438 1026.36328125 l 1x84
 558.545898438 1119.45410156 l 1x48
 651.63671875 1119.45410156 l 1
 744.727539062 1119.45410156 l 1
 744.727539062 1026.36328125 l 1
 744.727539062 933.272460938 l 1
 651.63671875 933.272460938 l 1x44
 558.545898438 933.272460938 l 1
 558.545898438 840.181640625 l 1
 558.545898438 747.090820312 l 1
 465.454101562 747.090820312 l 1
 372.36328125 747.090820312 l 1
 372.36328125 840.181640625 l 1x88
 372.36328125 933.272460938 l 1x90
 279.272460938 933.272460938 l 1
 186.181640625 933.272460938 l 1
 186.181640625 1026.36328125 l 1
 186.181640625 1119.45410156 l 1
 279.272460938 1119.45410156 l 1
 372.36328125 1119.45410156 l 1x50
 372.36328125 1212.54589844 l 1x48
EndSplineSet
EndChar

StartChar: PLUS-MINUS
Encoding: 177 177 112
Width: 1117
VWidth: 80
Flags: HW
HStem: 2.36328 185.81<0 372.363 558.918 930.909> 560.537 186.554<0 372.363 558.918 930.909>
VStem: 372.363 186.555<188.173 560.537 747.091 1119.45>
LayerCount: 2
Fore
SplineSet
372.36328125 933.272460938 m 1
 372.36328125 1119.45410156 l 1
 465.640625 1119.45410156 l 1
 558.91796875 1119.45410156 l 1
 558.91796875 933.272460938 l 1
 558.91796875 747.090820312 l 1
 744.913085938 747.090820312 l 1
 930.909179688 747.090820312 l 1
 930.909179688 653.813476562 l 1
 930.909179688 560.537109375 l 1
 744.913085938 560.537109375 l 1
 558.91796875 560.537109375 l 1
 558.91796875 374.354492188 l 1
 558.91796875 188.172851562 l 1
 744.913085938 188.172851562 l 1
 930.909179688 188.172851562 l 1
 930.909179688 95.2685546875 l 1
 930.909179688 2.36328125 l 1
 465.454101562 2.36328125 l 1
 0 2.36328125 l 1
 0 95.2685546875 l 1
 0 188.172851562 l 1
 186.181640625 188.172851562 l 1
 372.36328125 188.172851562 l 1
 372.36328125 374.354492188 l 1
 372.36328125 560.537109375 l 1
 186.181640625 560.537109375 l 1
 0 560.537109375 l 1
 0 653.813476562 l 1
 0 747.090820312 l 1
 186.181640625 747.090820312 l 1
 372.36328125 747.090820312 l 1
 372.36328125 933.272460938 l 1
EndSplineSet
EndChar

StartChar: SUPERSCRIPT
Encoding: 178 178 113
Width: 1117
VWidth: 80
Flags: HW
HStem: 560.909 185.81<186.182 372.363 558.546 930.909> 912.9 20G<372.363 558.546> 932.9 186.554<558.546 745.1> 1119.45 186.183<186.182 372.363 745.1 930.909> 1305.64 186.182<372.363 745.1>
VStem: 186.182 186.182<1119.45 1305.64> 372.363 186.183<746.719 932.9> 558.546 186.554<932.9 1119.45> 745.1 185.81<1119.45 1305.64>
LayerCount: 2
Fore
SplineSet
372.36328125 1398.72753906 m 1x92
 372.36328125 1491.81835938 l 1
 558.731445312 1491.81835938 l 1
 745.099609375 1491.81835938 l 1x8a80
 745.099609375 1398.72753906 l 1
 745.099609375 1305.63671875 l 1x9280
 558.731445312 1305.63671875 l 1x8a80
 372.36328125 1305.63671875 l 1x9480
 372.36328125 1398.72753906 l 1x92
372.36328125 1305.63671875 m 1x94
 372.36328125 1212.54589844 l 1
 372.36328125 1119.45410156 l 1
 279.272460938 1119.45410156 l 1
 186.181640625 1119.45410156 l 1
 186.181640625 1212.54589844 l 1
 186.181640625 1305.63671875 l 1
 279.272460938 1305.63671875 l 1
 372.36328125 1305.63671875 l 1x94
558.545898438 932.900390625 m 1xc2
 558.545898438 1026.17773438 l 1
 558.545898438 1119.45410156 l 1
 651.822265625 1119.45410156 l 1
 745.099609375 1119.45410156 l 1xa1
 745.099609375 1212.54589844 l 1
 745.099609375 1305.63671875 l 1
 838.00390625 1305.63671875 l 1
 930.909179688 1305.63671875 l 1
 930.909179688 1212.54589844 l 1
 930.909179688 1119.45410156 l 1
 838.00390625 1119.45410156 l 1x9080
 745.099609375 1119.45410156 l 1
 745.099609375 1026.17773438 l 1
 745.099609375 932.900390625 l 1
 651.822265625 932.900390625 l 1xa1
 558.545898438 932.900390625 l 1xc2
558.545898438 932.900390625 m 1xc2
 558.545898438 839.809570312 l 1
 558.545898438 746.71875 l 1
 744.727539062 746.71875 l 1
 930.909179688 746.71875 l 1
 930.909179688 653.813476562 l 1
 930.909179688 560.909179688 l 1xc280
 558.545898438 560.909179688 l 1
 186.181640625 560.909179688 l 1
 186.181640625 653.813476562 l 1
 186.181640625 746.71875 l 1xc5
 279.272460938 746.71875 l 1
 372.36328125 746.71875 l 1
 372.36328125 839.809570312 l 1
 372.36328125 932.900390625 l 1
 465.454101562 932.900390625 l 1
 558.545898438 932.900390625 l 1xc2
EndSplineSet
EndChar

StartChar: SUPERSCRIPT
Encoding: 179 179 114
Width: 1117
VWidth: 80
Flags: HW
HStem: 560.909 185.81<186.182 745.1> 746.719 186.182<745.1 930.909> 932.9 186.554<372.363 745.1> 1119.45 186.183<745.1 930.909> 1305.64 186.182<186.182 745.1>
VStem: 186.182 558.918<560.909 746.719 1305.64 1491.82> 745.1 185.81<746.719 932.9 1119.45 1305.64>
LayerCount: 2
Fore
SplineSet
186.181640625 1398.72753906 m 1x0c
 186.181640625 1491.81835938 l 1
 465.640625 1491.81835938 l 1
 745.099609375 1491.81835938 l 1x0c
 745.099609375 1398.72753906 l 1
 745.099609375 1305.63671875 l 1x14
 465.640625 1305.63671875 l 1
 186.181640625 1305.63671875 l 1
 186.181640625 1398.72753906 l 1x0c
745.099609375 746.71875 m 1x84
 745.099609375 839.809570312 l 1
 745.099609375 932.900390625 l 1x42
 558.731445312 932.900390625 l 1
 372.36328125 932.900390625 l 1
 372.36328125 1026.17773438 l 1
 372.36328125 1119.45410156 l 1
 558.731445312 1119.45410156 l 1
 745.099609375 1119.45410156 l 1
 745.099609375 1212.54589844 l 1x22
 745.099609375 1305.63671875 l 1x14
 838.00390625 1305.63671875 l 1
 930.909179688 1305.63671875 l 1
 930.909179688 1212.54589844 l 1
 930.909179688 1119.45410156 l 1
 838.00390625 1119.45410156 l 1x12
 745.099609375 1119.45410156 l 1x22
 745.099609375 1026.17773438 l 1
 745.099609375 932.900390625 l 1
 838.00390625 932.900390625 l 1
 930.909179688 932.900390625 l 1
 930.909179688 839.809570312 l 1
 930.909179688 746.71875 l 1
 838.00390625 746.71875 l 1x42
 745.099609375 746.71875 l 1x84
745.099609375 746.71875 m 1x84
 745.099609375 653.813476562 l 1
 745.099609375 560.909179688 l 1
 465.640625 560.909179688 l 1
 186.181640625 560.909179688 l 1
 186.181640625 653.813476562 l 1
 186.181640625 746.71875 l 1
 465.640625 746.71875 l 1
 745.099609375 746.71875 l 1x84
EndSplineSet
EndChar

StartChar: ACUTE
Encoding: 180 180 115
Width: 1117
VWidth: 80
Flags: HW
HStem: 1119.45 186.183<372.363 558.546> 1305.64 186.182<558.546 744.728>
VStem: 372.363 186.183<1119.45 1305.64> 558.546 186.182<1305.64 1491.82>
LayerCount: 2
Fore
SplineSet
558.545898438 1398.72753906 m 1x90
 558.545898438 1491.81835938 l 1
 651.63671875 1491.81835938 l 1
 744.727539062 1491.81835938 l 1
 744.727539062 1398.72753906 l 1
 744.727539062 1305.63671875 l 1
 651.63671875 1305.63671875 l 1x50
 558.545898438 1305.63671875 l 1xa0
 558.545898438 1398.72753906 l 1x90
558.545898438 1305.63671875 m 1xa0
 558.545898438 1212.54589844 l 1
 558.545898438 1119.45410156 l 1
 465.454101562 1119.45410156 l 1
 372.36328125 1119.45410156 l 1
 372.36328125 1212.54589844 l 1
 372.36328125 1305.63671875 l 1
 465.454101562 1305.63671875 l 1
 558.545898438 1305.63671875 l 1xa0
EndSplineSet
EndChar

StartChar: MICRO
Encoding: 181 181 116
Width: 1117
VWidth: 80
Flags: HW
HStem: 1.99121 186.182<372.363 745.1> 188.173 186.182<186.182 372.363> 913.272 20G<0 186.182 745.1 930.909>
VStem: 0 186.182<-183.818 188.173 374.354 933.272> 745.1 185.81<188.173 933.272>
LayerCount: 2
Fore
SplineSet
0 374.727539062 m 1x78
 0 933.272460938 l 1
 93.0908203125 933.272460938 l 1
 186.181640625 933.272460938 l 1
 186.181640625 653.813476562 l 1
 186.181640625 374.354492188 l 1
 279.272460938 374.354492188 l 1
 372.36328125 374.354492188 l 1x78
 372.36328125 281.263671875 l 1
 372.36328125 188.172851562 l 1xb8
 279.272460938 188.172851562 l 1
 186.181640625 188.172851562 l 1
 186.181640625 2.177734375 l 1
 186.181640625 -183.818359375 l 1
 93.0908203125 -183.818359375 l 1
 0 -183.818359375 l 1
 0 374.727539062 l 1x78
745.099609375 188.172851562 m 1xb8
 745.099609375 95.08203125 l 1
 745.099609375 1.9912109375 l 1
 558.731445312 1.9912109375 l 1
 372.36328125 1.9912109375 l 1
 372.36328125 95.08203125 l 1
 372.36328125 188.172851562 l 1
 558.731445312 188.172851562 l 1
 745.099609375 188.172851562 l 1xb8
745.099609375 188.172851562 m 1
 745.099609375 560.72265625 l 1
 745.099609375 933.272460938 l 1
 838.00390625 933.272460938 l 1
 930.909179688 933.272460938 l 1
 930.909179688 560.72265625 l 1
 930.909179688 188.172851562 l 1
 838.00390625 188.172851562 l 1x78
 745.099609375 188.172851562 l 1
EndSplineSet
EndChar

StartChar: PILCROW
Encoding: 182 182 117
Width: 1117
VWidth: 80
Flags: HW
HStem: 2.36328 21G<372.363 558.918 745.1 930.909> 1119.45 186.183<558.918 745.1>
VStem: 0 558.918<746.719 1119.45> 372.363 186.555<2.36328 560.537> 745.1 185.81<2.36328 1119.45>
LayerCount: 2
Fore
SplineSet
186.181640625 1212.54589844 m 1xe8
 186.181640625 1305.63671875 l 1
 558.545898438 1305.63671875 l 1
 930.909179688 1305.63671875 l 1
 930.909179688 654 l 1
 930.909179688 2.36328125 l 1
 838.00390625 2.36328125 l 1
 745.099609375 2.36328125 l 1
 745.099609375 560.909179688 l 1
 745.099609375 1119.45410156 l 1
 652.008789062 1119.45410156 l 1
 558.91796875 1119.45410156 l 1xe8
 558.91796875 560.909179688 l 1
 558.91796875 2.36328125 l 1
 465.640625 2.36328125 l 1
 372.36328125 2.36328125 l 1
 372.36328125 281.450195312 l 1
 372.36328125 560.537109375 l 1xd8
 279.272460938 560.537109375 l 1
 186.181640625 560.537109375 l 1
 186.181640625 653.627929688 l 1
 186.181640625 746.71875 l 1
 93.0908203125 746.71875 l 1
 0 746.71875 l 1
 0 933.086914062 l 1
 0 1119.45410156 l 1
 93.0908203125 1119.45410156 l 1
 186.181640625 1119.45410156 l 1
 186.181640625 1212.54589844 l 1xe8
EndSplineSet
EndChar

StartChar: MIDDLE
Encoding: 183 183 118
Width: 1117
VWidth: 80
Flags: HW
HStem: 560.909 186.182<372.363 558.546>
VStem: 372.363 186.183<560.909 747.091>
LayerCount: 2
Fore
SplineSet
372.36328125 654 m 1
 372.36328125 747.090820312 l 1
 465.454101562 747.090820312 l 1
 558.545898438 747.090820312 l 1
 558.545898438 654 l 1
 558.545898438 560.909179688 l 1
 465.454101562 560.909179688 l 1
 372.36328125 560.909179688 l 1
 372.36328125 654 l 1
EndSplineSet
EndChar

StartChar: CEDILLA
Encoding: 184 184 119
Width: 1117
VWidth: 80
Flags: HW
HStem: -370 186.182<372.363 558.546> -183.818 186.182<558.546 744.728>
VStem: 372.363 186.183<-370 -183.818> 558.546 186.182<-183.818 2.36328>
LayerCount: 2
Fore
SplineSet
558.545898438 -90.7275390625 m 1x90
 558.545898438 2.36328125 l 1
 651.63671875 2.36328125 l 1
 744.727539062 2.36328125 l 1
 744.727539062 -90.7275390625 l 1
 744.727539062 -183.818359375 l 1
 651.63671875 -183.818359375 l 1x50
 558.545898438 -183.818359375 l 1xa0
 558.545898438 -90.7275390625 l 1x90
558.545898438 -183.818359375 m 1xa0
 558.545898438 -276.909179688 l 1
 558.545898438 -370 l 1
 465.454101562 -370 l 1
 372.36328125 -370 l 1
 372.36328125 -276.909179688 l 1
 372.36328125 -183.818359375 l 1
 465.454101562 -183.818359375 l 1
 558.545898438 -183.818359375 l 1xa0
EndSplineSet
EndChar

StartChar: SUPERSCRIPT
Encoding: 185 185 120
Width: 1117
VWidth: 80
Flags: HW
HStem: 560.909 185.81<186.182 372.363 558.546 744.728> 1119.45 186.183<186.182 372.363> 1471.82 20G<372.363 558.546>
VStem: 372.363 186.183<746.719 1119.45 1305.64 1491.82>
LayerCount: 2
Fore
SplineSet
372.36328125 1398.72753906 m 1
 372.36328125 1491.81835938 l 1
 465.454101562 1491.81835938 l 1
 558.545898438 1491.81835938 l 1
 558.545898438 1119.26855469 l 1
 558.545898438 746.71875 l 1
 651.63671875 746.71875 l 1
 744.727539062 746.71875 l 1
 744.727539062 653.813476562 l 1
 744.727539062 560.909179688 l 1
 465.454101562 560.909179688 l 1
 186.181640625 560.909179688 l 1
 186.181640625 653.813476562 l 1
 186.181640625 746.71875 l 1
 279.272460938 746.71875 l 1
 372.36328125 746.71875 l 1
 372.36328125 933.086914062 l 1
 372.36328125 1119.45410156 l 1
 279.272460938 1119.45410156 l 1
 186.181640625 1119.45410156 l 1
 186.181640625 1212.54589844 l 1
 186.181640625 1305.63671875 l 1
 279.272460938 1305.63671875 l 1
 372.36328125 1305.63671875 l 1
 372.36328125 1398.72753906 l 1
EndSplineSet
EndChar

StartChar: MASCULINE
Encoding: 186 186 121
Width: 1117
VWidth: 80
Flags: HW
HStem: 188.546 185.809<186.182 930.909> 560.537 186.182<372.363 745.1> 746.719 372.735<186.182 372.363 745.1 930.909> 1119.45 186.183<372.363 745.1>
VStem: 186.182 186.182<746.719 1119.45> 372.363 372.736<560.537 746.719 1119.45 1305.64> 745.1 185.81<746.719 1119.45>
LayerCount: 2
Fore
SplineSet
372.36328125 1212.54589844 m 1xa4
 372.36328125 1305.63671875 l 1
 558.731445312 1305.63671875 l 1
 745.099609375 1305.63671875 l 1x94
 745.099609375 1212.54589844 l 1
 745.099609375 1119.45410156 l 1xa4
 558.731445312 1119.45410156 l 1x94
 372.36328125 1119.45410156 l 1xa8
 372.36328125 933.086914062 l 1
 372.36328125 746.71875 l 1xc8
 558.731445312 746.71875 l 1
 745.099609375 746.71875 l 1xc4
 745.099609375 933.086914062 l 1xc2
 745.099609375 1119.45410156 l 1xa4
 838.00390625 1119.45410156 l 1
 930.909179688 1119.45410156 l 1
 930.909179688 933.086914062 l 1
 930.909179688 746.71875 l 1
 838.00390625 746.71875 l 1xa2
 745.099609375 746.71875 l 1
 745.099609375 653.627929688 l 1
 745.099609375 560.537109375 l 1
 558.731445312 560.537109375 l 1
 372.36328125 560.537109375 l 1
 372.36328125 653.627929688 l 1xc4
 372.36328125 746.71875 l 1xc8
 279.272460938 746.71875 l 1
 186.181640625 746.71875 l 1
 186.181640625 933.086914062 l 1
 186.181640625 1119.45410156 l 1
 279.272460938 1119.45410156 l 1
 372.36328125 1119.45410156 l 1xa8
 372.36328125 1212.54589844 l 1xa4
186.181640625 281.450195312 m 1x8a
 186.181640625 374.354492188 l 1
 558.545898438 374.354492188 l 1
 930.909179688 374.354492188 l 1
 930.909179688 281.450195312 l 1
 930.909179688 188.545898438 l 1
 558.545898438 188.545898438 l 1
 186.181640625 188.545898438 l 1
 186.181640625 281.450195312 l 1x8a
EndSplineSet
EndChar

StartChar: RIGHT-POINTING
Encoding: 187 187 122
Width: 1117
VWidth: 80
Flags: HW
HStem: 188.546 185.809<0 186.182 558.918 745.1> 374.354 186.183<186.182 372.363 745.1 931.281> 560.537 186.554<372.363 558.918 931.281 1117.09> 747.091 186.182<186.182 372.363 745.1 931.281> 933.272 186.182<0 186.182 558.918 745.1>
VStem: 0 186.182<188.546 374.354 933.272 1119.45> 186.182 186.182<374.354 560.537 747.091 933.272> 372.363 186.555<560.537 747.091> 558.918 186.182<188.546 374.354 933.272 1119.45> 745.1 186.182<374.354 560.537 747.091 933.272> 931.281 185.81<560.537 747.091>
LayerCount: 2
Fore
SplineSet
0 1026.36328125 m 1x0c
 0 1119.45410156 l 1
 93.0908203125 1119.45410156 l 1
 186.181640625 1119.45410156 l 1x0c
 186.181640625 1026.36328125 l 1
 186.181640625 933.272460938 l 1x14
 93.0908203125 933.272460938 l 1
 0 933.272460938 l 1
 0 1026.36328125 l 1x0c
558.91796875 1026.36328125 m 1x0880
 558.91796875 1119.45410156 l 1
 652.008789062 1119.45410156 l 1
 745.099609375 1119.45410156 l 1x0880
 745.099609375 1026.36328125 l 1
 745.099609375 933.272460938 l 1x1080
 652.008789062 933.272460938 l 1
 558.91796875 933.272460938 l 1
 558.91796875 1026.36328125 l 1x0880
186.181640625 374.354492188 m 1x84
 186.181640625 467.446289062 l 1
 186.181640625 560.537109375 l 1
 279.272460938 560.537109375 l 1
 372.36328125 560.537109375 l 1x42
 372.36328125 653.813476562 l 1x41
 372.36328125 747.090820312 l 1x22
 279.272460938 747.090820312 l 1
 186.181640625 747.090820312 l 1
 186.181640625 840.181640625 l 1x12
 186.181640625 933.272460938 l 1x14
 279.272460938 933.272460938 l 1
 372.36328125 933.272460938 l 1x12
 372.36328125 840.181640625 l 1
 372.36328125 747.090820312 l 1x22
 465.640625 747.090820312 l 1
 558.91796875 747.090820312 l 1
 558.91796875 653.813476562 l 1
 558.91796875 560.537109375 l 1
 465.640625 560.537109375 l 1x21
 372.36328125 560.537109375 l 1
 372.36328125 467.446289062 l 1
 372.36328125 374.354492188 l 1
 279.272460938 374.354492188 l 1x42
 186.181640625 374.354492188 l 1x84
186.181640625 374.354492188 m 1x84
 186.181640625 281.450195312 l 1
 186.181640625 188.545898438 l 1
 93.0908203125 188.545898438 l 1
 0 188.545898438 l 1
 0 281.450195312 l 1
 0 374.354492188 l 1
 93.0908203125 374.354492188 l 1
 186.181640625 374.354492188 l 1x84
745.099609375 374.354492188 m 1x8080
 745.099609375 467.446289062 l 1
 745.099609375 560.537109375 l 1
 838.190429688 560.537109375 l 1
 931.28125 560.537109375 l 1x4040
 931.28125 653.813476562 l 1x4020
 931.28125 747.090820312 l 1x2040
 838.190429688 747.090820312 l 1
 745.099609375 747.090820312 l 1
 745.099609375 840.181640625 l 1x1040
 745.099609375 933.272460938 l 1x1080
 838.190429688 933.272460938 l 1
 931.28125 933.272460938 l 1x1040
 931.28125 840.181640625 l 1
 931.28125 747.090820312 l 1x2040
 1024.18652344 747.090820312 l 1
 1117.09082031 747.090820312 l 1
 1117.09082031 653.813476562 l 1
 1117.09082031 560.537109375 l 1
 1024.18652344 560.537109375 l 1x2020
 931.28125 560.537109375 l 1
 931.28125 467.446289062 l 1
 931.28125 374.354492188 l 1
 838.190429688 374.354492188 l 1x4040
 745.099609375 374.354492188 l 1x8080
745.099609375 374.354492188 m 1x8080
 745.099609375 281.450195312 l 1
 745.099609375 188.545898438 l 1
 652.008789062 188.545898438 l 1
 558.91796875 188.545898438 l 1
 558.91796875 281.450195312 l 1
 558.91796875 374.354492188 l 1
 652.008789062 374.354492188 l 1
 745.099609375 374.354492188 l 1x8080
EndSplineSet
EndChar

StartChar: VULGAR
Encoding: 188 188 123
Width: 1117
VWidth: 80
Flags: HW
HStem: 1.99121 186.182<372.363 558.918 745.1 931.281> 374.354 186.183<745.1 931.281> 560.537 186.182<0 186.182 372.363 558.918> 1119.45 186.183<0 186.182> 1471.82 20G<186.182 372.363>
VStem: 186.182 186.182<746.719 1119.45 1305.64 1491.82> 558.918 186.182<188.173 374.354> 931.281 185.81<-183.818 1.99121 188.173 374.354 560.537 746.719>
LayerCount: 2
Fore
SplineSet
186.181640625 1398.72753906 m 1xbf
 186.181640625 1491.81835938 l 1
 279.272460938 1491.81835938 l 1
 372.36328125 1491.81835938 l 1
 372.36328125 1119.26855469 l 1
 372.36328125 746.71875 l 1
 465.640625 746.71875 l 1
 558.91796875 746.71875 l 1
 558.91796875 653.627929688 l 1
 558.91796875 560.537109375 l 1
 279.458984375 560.537109375 l 1
 0 560.537109375 l 1
 0 653.627929688 l 1
 0 746.71875 l 1
 93.0908203125 746.71875 l 1
 186.181640625 746.71875 l 1
 186.181640625 933.086914062 l 1
 186.181640625 1119.45410156 l 1
 93.0908203125 1119.45410156 l 1
 0 1119.45410156 l 1
 0 1212.54589844 l 1
 0 1305.63671875 l 1
 93.0908203125 1305.63671875 l 1
 186.181640625 1305.63671875 l 1
 186.181640625 1398.72753906 l 1xbf
931.28125 281.263671875 m 1
 931.28125 374.354492188 l 1
 838.190429688 374.354492188 l 1
 745.099609375 374.354492188 l 1xdf
 745.099609375 281.263671875 l 1
 745.099609375 188.172851562 l 1
 838.190429688 188.172851562 l 1
 931.28125 188.172851562 l 1
 931.28125 281.263671875 l 1
931.28125 653.627929688 m 1
 931.28125 746.71875 l 1
 1024.18652344 746.71875 l 1
 1117.09082031 746.71875 l 1xbf
 1117.09082031 281.450195312 l 1
 1117.09082031 -183.818359375 l 1
 1024.18652344 -183.818359375 l 1
 931.28125 -183.818359375 l 1
 931.28125 -90.9130859375 l 1
 931.28125 1.9912109375 l 1
 651.822265625 1.9912109375 l 1
 372.36328125 1.9912109375 l 1
 372.36328125 95.08203125 l 1
 372.36328125 188.172851562 l 1
 465.640625 188.172851562 l 1
 558.91796875 188.172851562 l 1
 558.91796875 281.263671875 l 1
 558.91796875 374.354492188 l 1
 652.008789062 374.354492188 l 1
 745.099609375 374.354492188 l 1
 745.099609375 467.446289062 l 1
 745.099609375 560.537109375 l 1
 838.190429688 560.537109375 l 1
 931.28125 560.537109375 l 1
 931.28125 653.627929688 l 1
EndSplineSet
EndChar

StartChar: VULGAR
Encoding: 189 189 124
Width: 1117
VWidth: 80
Flags: HW
HStem: -183.818 185.81<558.918 745.1 931.281 1117.09> 374.354 186.183<558.918 745.1> 560.537 186.182<0 186.182 372.363 558.918 745.1 931.281> 1119.45 186.183<0 186.182> 1471.82 20G<186.182 372.363>
VStem: 186.182 186.182<746.719 1119.45 1305.64 1491.82> 558.918 186.182<374.354 560.537> 745.1 186.182<1.99121 188.173 560.537 746.719> 931.281 185.81<188.173 560.537>
LayerCount: 2
Fore
SplineSet
186.181640625 1398.72753906 m 1xbe
 186.181640625 1491.81835938 l 1
 279.272460938 1491.81835938 l 1
 372.36328125 1491.81835938 l 1
 372.36328125 1119.26855469 l 1
 372.36328125 746.71875 l 1
 465.640625 746.71875 l 1
 558.91796875 746.71875 l 1xbe
 558.91796875 653.627929688 l 1
 558.91796875 560.537109375 l 1xde
 279.458984375 560.537109375 l 1
 0 560.537109375 l 1
 0 653.627929688 l 1
 0 746.71875 l 1
 93.0908203125 746.71875 l 1
 186.181640625 746.71875 l 1
 186.181640625 933.086914062 l 1
 186.181640625 1119.45410156 l 1
 93.0908203125 1119.45410156 l 1
 0 1119.45410156 l 1
 0 1212.54589844 l 1
 0 1305.63671875 l 1
 93.0908203125 1305.63671875 l 1
 186.181640625 1305.63671875 l 1
 186.181640625 1398.72753906 l 1xbe
931.28125 188.172851562 m 1xdd
 931.28125 374.354492188 l 1xdc80
 931.28125 560.537109375 l 1
 838.190429688 560.537109375 l 1xbd
 745.099609375 560.537109375 l 1
 745.099609375 467.446289062 l 1
 745.099609375 374.354492188 l 1
 652.008789062 374.354492188 l 1
 558.91796875 374.354492188 l 1
 558.91796875 467.446289062 l 1
 558.91796875 560.537109375 l 1
 652.008789062 560.537109375 l 1
 745.099609375 560.537109375 l 1xde
 745.099609375 653.627929688 l 1
 745.099609375 746.71875 l 1
 838.190429688 746.71875 l 1
 931.28125 746.71875 l 1
 931.28125 653.627929688 l 1
 931.28125 560.537109375 l 1xbd
 1024.18652344 560.537109375 l 1
 1117.09082031 560.537109375 l 1xbc80
 1117.09082031 374.354492188 l 1
 1117.09082031 188.172851562 l 1xdc80
 1024.18652344 188.172851562 l 1
 931.28125 188.172851562 l 1xdd
931.28125 188.172851562 m 1x9d
 931.28125 95.08203125 l 1
 931.28125 1.9912109375 l 1x9d
 1024.18652344 1.9912109375 l 1
 1117.09082031 1.9912109375 l 1
 1117.09082031 -90.9130859375 l 1
 1117.09082031 -183.818359375 l 1
 838.00390625 -183.818359375 l 1
 558.91796875 -183.818359375 l 1
 558.91796875 -90.9130859375 l 1
 558.91796875 1.9912109375 l 1x9e80
 652.008789062 1.9912109375 l 1
 745.099609375 1.9912109375 l 1
 745.099609375 95.08203125 l 1
 745.099609375 188.172851562 l 1
 838.190429688 188.172851562 l 1
 931.28125 188.172851562 l 1x9d
EndSplineSet
EndChar

